<svg aria-hidden="true" style="width:0;height:0;position:absolute;overflow:hidden" xmlns="http://www.w3.org/2000/svg"><defs><symbol id="icon-instagram" viewBox="0 0 32 32"><path style="fill:var(--color1,#000)" d="M0 16C0 7.163 7.163 0 16 0s16 7.163 16 16-7.163 16-16 16S0 24.837 0 16z"/><path style="fill:var(--color1,#000)" d="M4.571 0h22.857a4.571 4.571 0 0 1 4.571 4.571v22.857a4.571 4.571 0 0 1-4.571 4.571H4.571A4.571 4.571 0 0 1 0 27.428V4.571A4.571 4.571 0 0 1 4.571 0z"/><path fill="#fff" style="fill:var(--color2,#fff)" d="M11.619 16a4.382 4.382 0 1 1 8.764 0 4.382 4.382 0 0 1-8.764 0zm7.226 0a2.844 2.844 0 1 0-5.689 0 2.844 2.844 0 0 0 5.689 0zM19.532 11.445a1.024 1.024 0 1 1 2.048 0 1.024 1.024 0 0 1-2.048 0z"/><path fill="#fff" style="fill:var(--color2,#fff)" d="M12.482 7.518c.91-.041 1.201-.052 3.519-.052h-.003c2.318 0 2.608.01 3.518.052.908.042 1.529.185 2.073.396.562.218 1.036.509 1.511.984s.766.95.985 1.512c.21.543.354 1.163.397 2.071.041.91.052 1.201.052 3.519s-.011 2.608-.052 3.518c-.043.908-.187 1.528-.397 2.071-.219.561-.51 1.037-.985 1.512s-.95.767-1.511.985c-.543.211-1.164.355-2.072.396-.91.041-1.2.052-3.518.052s-2.608-.01-3.518-.052c-.908-.042-1.528-.185-2.072-.396-.561-.218-1.037-.51-1.511-.985s-.766-.95-.984-1.512c-.211-.543-.355-1.163-.396-2.071-.041-.91-.052-1.2-.052-3.518s.011-2.609.051-3.519c.041-.908.185-1.528.396-2.071.219-.561.51-1.037.985-1.511s.95-.766 1.512-.984c.543-.211 1.163-.355 2.071-.396zm3.234 1.486h-.481v-.002c-1.59.002-1.895.012-2.683.048-.832.038-1.284.177-1.585.294-.398.155-.683.34-.981.639s-.484.583-.639.981c-.117.301-.256.752-.294 1.584-.041.9-.049 1.168-.049 3.447s.008 2.549.049 3.449c.038.832.177 1.284.294 1.584.155.398.34.682.639.981s.583.484.981.638c.301.117.752.256 1.585.294.9.041 1.17.05 3.448.05s2.549-.009 3.448-.05c.832-.038 1.284-.177 1.584-.294.398-.155.682-.34.981-.638s.484-.582.639-.98c.117-.3.256-.752.294-1.584.041-.9.05-1.17.05-3.447s-.009-2.548-.05-3.447c-.038-.832-.177-1.284-.294-1.584-.155-.398-.34-.683-.639-.981s-.582-.484-.981-.638c-.301-.117-.752-.256-1.584-.294-.9-.041-1.17-.049-3.448-.049h-.284z"/></symbol><symbol id="icon-viber" viewBox="0 0 32 32"><path fill="#675da9" style="fill:var(--color3,#675da9)" d="M16 32c8.837 0 16-7.163 16-16S24.837 0 16 0 0 7.163 0 16s7.163 16 16 16z"/><path fill="#675da9" style="fill:var(--color3,#675da9)" d="M4.571 0h22.857a4.571 4.571 0 0 1 4.571 4.571v22.857a4.571 4.571 0 0 1-4.571 4.571H4.571A4.571 4.571 0 0 1 0 27.428V4.571A4.571 4.571 0 0 1 4.571 0z"/><path fill="#fff" style="fill:var(--color2,#fff)" d="m24.985 11.977-.006-.023c-.454-1.85-2.5-3.835-4.379-4.248l-.021-.004a24.119 24.119 0 0 0-9.159 0l-.022.004c-1.878.413-3.924 2.398-4.379 4.248l-.005.023a18.225 18.225 0 0 0 0 7.787l.005.023c.435 1.771 2.329 3.665 4.137 4.186v2.065c0 .747.903 1.114 1.417.575l2.075-2.175c.45.025.9.04 1.351.04 1.53 0 3.06-.146 4.579-.438l.021-.004c1.879-.413 3.925-2.398 4.379-4.248l.006-.023a18.225 18.225 0 0 0 0-7.787zm-1.642 7.413c-.303 1.207-1.856 2.707-3.091 2.985a22.52 22.52 0 0 1-4.872.397.115.115 0 0 0-.086.035l-1.515 1.568-1.611 1.668a.188.188 0 0 1-.325-.131v-3.421a.117.117 0 0 0-.095-.115h-.001c-1.234-.277-2.787-1.778-3.091-2.985a16.537 16.537 0 0 1 0-7.038c.304-1.207 1.856-2.707 3.091-2.985a22.487 22.487 0 0 1 8.505 0c1.235.277 2.788 1.778 3.091 2.985a16.505 16.505 0 0 1 0 7.038z"/><path fill="#fff" style="fill:var(--color2,#fff)" d="M18.685 20.969c-.19-.058-.371-.097-.538-.167-1.74-.728-3.342-1.667-4.61-3.107-.721-.819-1.286-1.743-1.763-2.721-.226-.464-.417-.946-.612-1.425-.177-.437.084-.888.359-1.217.258-.309.59-.545.95-.719.281-.136.557-.058.762.182a9.97 9.97 0 0 1 1.18 1.665c.203.37.147.822-.22 1.073-.089.061-.171.133-.254.202a.846.846 0 0 0-.192.204.563.563 0 0 0-.037.49c.453 1.255 1.216 2.231 2.469 2.757.201.084.402.182.633.155.387-.046.512-.473.783-.697.265-.218.604-.221.889-.039s.562.378.837.575c.27.194.539.384.788.605.239.213.322.492.187.78-.247.528-.606.968-1.124 1.249-.146.079-.321.105-.486.156.165-.051-.19-.058 0 0zm-2.68-9.962c2.276.064 4.146 1.588 4.547 3.857.068.387.093.782.123 1.174.013.165-.08.322-.257.324-.183.002-.265-.152-.276-.317-.023-.327-.04-.655-.084-.979-.236-1.71-1.588-3.124-3.276-3.428-.254-.046-.514-.058-.771-.085-.163-.017-.376-.027-.412-.231-.03-.171.113-.307.274-.316.044-.002.088 0 .132 0 2.276.064-.044 0 0 0z"/><path fill="#fff" style="fill:var(--color2,#fff)" d="M19.464 15.529c-.004.029-.006.096-.022.16-.06.23-.407.259-.487.027a.687.687 0 0 1-.027-.222 2.803 2.803 0 0 0-.349-1.395 2.58 2.58 0 0 0-1.08-1.021 3.066 3.066 0 0 0-.86-.266c-.13-.022-.261-.035-.391-.053-.158-.022-.242-.124-.235-.281a.246.246 0 0 1 .273-.244c.522.03 1.027.144 1.491.392.944.504 1.484 1.3 1.641 2.363.007.048.019.096.022.144.009.119.015.239.024.396-.004.029-.009-.157 0 0z"/><path fill="#fff" style="fill:var(--color2,#fff)" d="M18.048 15.474c-.19.003-.292-.103-.312-.279-.014-.123-.024-.247-.053-.367a1.032 1.032 0 0 0-.377-.597.99.99 0 0 0-.308-.15c-.14-.041-.285-.029-.424-.064-.151-.037-.235-.161-.211-.304a.275.275 0 0 1 .289-.222c.883.064 1.513.524 1.603 1.572.006.074.014.152-.002.223-.028.121-.117.182-.203.188.087-.006-.19.003 0 0z"/></symbol><symbol id="icon-facebook" viewBox="0 0 32 32"><path fill="#3b5998" style="fill:var(--color4,#3b5998)" d="M0 16C0 7.163 7.163 0 16 0s16 7.163 16 16-7.163 16-16 16S0 24.837 0 16z"/><path fill="#3b5998" style="fill:var(--color4,#3b5998)" d="M4.571 0h22.857a4.571 4.571 0 0 1 4.571 4.571v22.857a4.571 4.571 0 0 1-4.571 4.571H4.571A4.571 4.571 0 0 1 0 27.428V4.571A4.571 4.571 0 0 1 4.571 0z"/><path fill="#fff" style="fill:var(--color2,#fff)" d="M17.668 25.408v-8.705h2.403l.318-3h-2.721l.004-1.501c0-.782.074-1.202 1.198-1.202h1.502V8h-2.403c-2.887 0-3.903 1.455-3.903 3.902v1.801h-1.799v3h1.799v8.704h3.602z"/></symbol></defs></svg>