<svg aria-hidden="true" style="width:0;height:0;position:absolute;overflow:hidden" xmlns="http://www.w3.org/2000/svg"><defs><symbol id="icon-facebook" viewBox="0 0 32 32"><path fill="#3b5998" style="fill:var(--color4,#3b5998)" d="M0 16C0 7.163 7.163 0 16 0s16 7.163 16 16-7.163 16-16 16S0 24.837 0 16z"/><path fill="#3b5998" style="fill:var(--color4,#3b5998)" d="M4.571 0h22.857a4.571 4.571 0 0 1 4.571 4.571v22.857a4.571 4.571 0 0 1-4.571 4.571H4.571A4.571 4.571 0 0 1 0 27.428V4.571A4.571 4.571 0 0 1 4.571 0z"/><path fill="#fff" style="fill:var(--color2,#fff)" d="M17.668 25.408v-8.705h2.403l.318-3h-2.721l.004-1.501c0-.782.074-1.202 1.198-1.202h1.502V8h-2.403c-2.887 0-3.903 1.455-3.903 3.902v1.801h-1.799v3h1.799v8.704h3.602z"/></symbol><symbol id="icon-instagram" viewBox="0 0 32 32"><path style="fill:var(--color1,#000)" d="M0 16C0 7.163 7.163 0 16 0s16 7.163 16 16-7.163 16-16 16S0 24.837 0 16z"/><path style="fill:var(--color1,#000)" d="M4.571 0h22.857a4.571 4.571 0 0 1 4.571 4.571v22.857a4.571 4.571 0 0 1-4.571 4.571H4.571A4.571 4.571 0 0 1 0 27.428V4.571A4.571 4.571 0 0 1 4.571 0z"/><path fill="#fff" style="fill:var(--color2,#fff)" d="M11.619 16a4.382 4.382 0 1 1 8.764 0 4.382 4.382 0 0 1-8.764 0zm7.226 0a2.844 2.844 0 1 0-5.689 0 2.844 2.844 0 0 0 5.689 0zM19.532 11.445a1.024 1.024 0 1 1 2.048 0 1.024 1.024 0 0 1-2.048 0z"/><path fill="#fff" style="fill:var(--color2,#fff)" d="M12.482 7.518c.91-.041 1.201-.052 3.519-.052h-.003c2.318 0 2.608.01 3.518.052.908.042 1.529.185 2.073.396.562.218 1.036.509 1.511.984s.766.95.985 1.512c.21.543.354 1.163.397 2.071.041.91.052 1.201.052 3.519s-.011 2.608-.052 3.518c-.043.908-.187 1.528-.397 2.071-.219.561-.51 1.037-.985 1.512s-.95.767-1.511.985c-.543.211-1.164.355-2.072.396-.91.041-1.2.052-3.518.052s-2.608-.01-3.518-.052c-.908-.042-1.528-.185-2.072-.396-.561-.218-1.037-.51-1.511-.985s-.766-.95-.984-1.512c-.211-.543-.355-1.163-.396-2.071-.041-.91-.052-1.2-.052-3.518s.011-2.609.051-3.519c.041-.908.185-1.528.396-2.071.219-.561.51-1.037.985-1.511s.95-.766 1.512-.984c.543-.211 1.163-.355 2.071-.396zm3.234 1.486h-.481v-.002c-1.59.002-1.895.012-2.683.048-.832.038-1.284.177-1.585.294-.398.155-.683.34-.981.639s-.484.583-.639.981c-.117.301-.256.752-.294 1.584-.041.9-.049 1.168-.049 3.447s.008 2.549.049 3.449c.038.832.177 1.284.294 1.584.155.398.34.682.639.981s.583.484.981.638c.301.117.752.256 1.585.294.9.041 1.17.05 3.448.05s2.549-.009 3.448-.05c.832-.038 1.284-.177 1.584-.294.398-.155.682-.34.981-.638s.484-.582.639-.98c.117-.3.256-.752.294-1.584.041-.9.05-1.17.05-3.447s-.009-2.548-.05-3.447c-.038-.832-.177-1.284-.294-1.584-.155-.398-.34-.683-.639-.981s-.582-.484-.981-.638c-.301-.117-.752-.256-1.584-.294-.9-.041-1.17-.049-3.448-.049h-.284z"/></symbol><symbol id="icon-viber" viewBox="0 0 32 32"><path fill="#675da9" style="fill:var(--color3,#675da9)" d="M16 32c8.837 0 16-7.163 16-16S24.837 0 16 0 0 7.163 0 16s7.163 16 16 16z"/><path fill="#675da9" style="fill:var(--color3,#675da9)" d="M4.571 0h22.857a4.571 4.571 0 0 1 4.571 4.571v22.857a4.571 4.571 0 0 1-4.571 4.571H4.571A4.571 4.571 0 0 1 0 27.428V4.571A4.571 4.571 0 0 1 4.571 0z"/><path fill="#fff" style="fill:var(--color2,#fff)" d="m24.985 11.977-.006-.023c-.454-1.85-2.5-3.835-4.379-4.248l-.021-.004a24.119 24.119 0 0 0-9.159 0l-.022.004c-1.878.413-3.924 2.398-4.379 4.248l-.005.023a18.225 18.225 0 0 0 0 7.787l.005.023c.435 1.771 2.329 3.665 4.137 4.186v2.065c0 .747.903 1.114 1.417.575l2.075-2.175c.45.025.9.04 1.351.04 1.53 0 3.06-.146 4.579-.438l.021-.004c1.879-.413 3.925-2.398 4.379-4.248l.006-.023a18.225 18.225 0 0 0 0-7.787zm-1.642 7.413c-.303 1.207-1.856 2.707-3.091 2.985a22.52 22.52 0 0 1-4.872.397.115.115 0 0 0-.086.035l-1.515 1.568-1.611 1.668a.188.188 0 0 1-.325-.131v-3.421a.117.117 0 0 0-.095-.115h-.001c-1.234-.277-2.787-1.778-3.091-2.985a16.537 16.537 0 0 1 0-7.038c.304-1.207 1.856-2.707 3.091-2.985a22.487 22.487 0 0 1 8.505 0c1.235.277 2.788 1.778 3.091 2.985a16.505 16.505 0 0 1 0 7.038z"/><path fill="#fff" style="fill:var(--color2,#fff)" d="M18.685 20.969c-.19-.058-.371-.097-.538-.167-1.74-.728-3.342-1.667-4.61-3.107-.721-.819-1.286-1.743-1.763-2.721-.226-.464-.417-.946-.612-1.425-.177-.437.084-.888.359-1.217.258-.309.59-.545.95-.719.281-.136.557-.058.762.182a9.97 9.97 0 0 1 1.18 1.665c.203.37.147.822-.22 1.073-.089.061-.171.133-.254.202a.846.846 0 0 0-.192.204.563.563 0 0 0-.037.49c.453 1.255 1.216 2.231 2.469 2.757.201.084.402.182.633.155.387-.046.512-.473.783-.697.265-.218.604-.221.889-.039s.562.378.837.575c.27.194.539.384.788.605.239.213.322.492.187.78-.247.528-.606.968-1.124 1.249-.146.079-.321.105-.486.156.165-.051-.19-.058 0 0zm-2.68-9.962c2.276.064 4.146 1.588 4.547 3.857.068.387.093.782.123 1.174.013.165-.08.322-.257.324-.183.002-.265-.152-.276-.317-.023-.327-.04-.655-.084-.979-.236-1.71-1.588-3.124-3.276-3.428-.254-.046-.514-.058-.771-.085-.163-.017-.376-.027-.412-.231-.03-.171.113-.307.274-.316.044-.002.088 0 .132 0 2.276.064-.044 0 0 0z"/><path fill="#fff" style="fill:var(--color2,#fff)" d="M19.464 15.529c-.004.029-.006.096-.022.16-.06.23-.407.259-.487.027a.687.687 0 0 1-.027-.222 2.803 2.803 0 0 0-.349-1.395 2.58 2.58 0 0 0-1.08-1.021 3.066 3.066 0 0 0-.86-.266c-.13-.022-.261-.035-.391-.053-.158-.022-.242-.124-.235-.281a.246.246 0 0 1 .273-.244c.522.03 1.027.144 1.491.392.944.504 1.484 1.3 1.641 2.363.007.048.019.096.022.144.009.119.015.239.024.396-.004.029-.009-.157 0 0z"/><path fill="#fff" style="fill:var(--color2,#fff)" d="M18.048 15.474c-.19.003-.292-.103-.312-.279-.014-.123-.024-.247-.053-.367a1.032 1.032 0 0 0-.377-.597.99.99 0 0 0-.308-.15c-.14-.041-.285-.029-.424-.064-.151-.037-.235-.161-.211-.304a.275.275 0 0 1 .289-.222c.883.064 1.513.524 1.603 1.572.006.074.014.152-.002.223-.028.121-.117.182-.203.188.087-.006-.19.003 0 0z"/></symbol><symbol id="icon-scroll-down" viewBox="0 0 50 32"><path d="M24.889 29.202 46.258 7.833l-5.024-5.031-16.345 16.356L8.548 2.802 3.52 7.83l21.369 21.372z"/></symbol><symbol id="icon-hero-img" viewBox="0 0 33 32"><path fill="#553e93" style="fill:var(--color1,#553e93)" d="M23.646 24.988c3.873-3.873 3.873-10.151 0-14.024s-10.154-3.873-14.027 0c-3.874 3.873-3.873 10.151 0 14.024s10.154 3.873 14.027 0z"/><path fill="#786ab5" style="fill:var(--color2,#786ab5)" d="M17.518 8.099c.04.027.082.053.126.08.004-.029 2.09.632 2.304.73.619.283 1 .385.321.599.294-.093.962 1.72 1.429 1.645.456-.073.59.44.71.792.064.186.263.296.188.52-.024.071-.349.217-.325.265.137.259.759.29.763.672a.287.287 0 0 1-.274.137c-.288.117-.015.349.04.531.133.436.551.822.851.327.303-.497-.391-.986.031-1.495.248-.298.907.237.75-.332-.044-.164-.732-.884-.352-.991.018-.004.031-.042.04-.104a9.868 9.868 0 0 0-4.366-2.908 9.786 9.786 0 0 0-2.236-.469zM25.459 13.457c-.049-.093-.537.444-.639.502-.372.206-.453-.199-.765.228-.055.075-.619.822-.621.741.011.279-.104.553.029.82.119.239-.161.455-.146.708.022.332-.281.557-.203.887.066.285.239.495.239.798 0 .484-.086.705.303 1.052.25.223.577.995 1.017.559.082-.08.885-.723.838-.774.285.303.033.104.44.086.111-.004-.082 2.79-.25 2.726.027.011.058.007.093-.007a9.893 9.893 0 0 0-.334-8.327zM20.817 22.743c.002-.285-.531-.553-.82-.54-.621.024-.785-.175-1.362-.325-.484-.126-.409-.951-1.146-.986-.391-.02-1.13-1.083-1.517-.765-.257.21-.748-.354-.92-.356-.396-.004-.075.23-.334-.064-.17-.195-.639.214-.736.329-.192.223-1.026-.113-1.154-.433-.046-.115.221-.573.022-.898-.075-.126-.628-.033-.714-.117-.115-.113.296-.524.25-.61-.192-.358-.825.54-1.101-.181-.223-.586.069-.807.126-1.371.027-.265.48-.396.699-.301.352.155.305.011.573-.018.21-.022.436.217.637.252.239.042.075.714.301.876.13.093.128-.904.137-.929.144-.405.77-.367.871-.708.248-.838.814-.774 1.502-1.07.327-.142 1.137-.305 1.34-.626.383-.597-.621-1.49-.882-1.912-.002-.004-.232.259-.285.261-.195.009-.376-1.088-.748-.458-.071.119-.343.155-.192.332.296.345-.279.429-.458.378-.181-.049-1.075-.566-.761-.856.641-.588.785-.283 1.451-.287.761-.002.79.712 1.42-.053.175-.212-.964-.818-.739-1.086.796-.951 1.232 1.161 1.53 1.526.436.535.717.252.681-.338-.015-.279.575-.537.617-.838.009-.062-.383-.615-.44-.652-.206-.133-.252-.272-.358-.402-.133-.166-.341.082-.46-.066-.055-.069-1.055-.031-1.161-.029-.524-.02-1.112-.002-1.643.004-.217-.009-1.367.553-1.398.093-.015-.228.259-.628-.23-.442-.157.06-.254-.029-.223-.035-.336.069-.966.303-1.236.546-.15.135.208.197.232.312.046.221-.513.635-.637.778-.445.513-.425 1.194-1.024 1.691-.692.575-.73 1.417-.736 2.211-.002.385-.334.546-.124.982.177.371.509.551.564 1.002.035.296-.197.57-.084.86.137.356.4.67.721.838.686.36 1.135.63 1.575 1.289.544.818 1.517.46 1.199 1.287-.135.347-.476.513-.615.884-.168.444.155.767.361 1.128.208.365.285.8.65 1.048.261.177.739.325.805.685.106.575-.378 1.291-.325 1.817.035.354.042.716.349.949.555.416.422-.164.767-.438.323-.256.703-.181 1.073-.283.338-.093-.064-.219.073-.294.29-.164.462.082.741-.166.252-.226.593-.292.712-.646.192-.579 1.066-.367 1.429-.818.223-.276.321-.573.422-.909.122-.416.732-.606.736-1.052.002-.299-.004.298 0 0z"/><path fill="#fdad9b" style="fill:var(--color3,#fdad9b)" d="M14.744 4.814c-.115.203-1.276 1.986-1.033 3.728l1.263-.453.577-2.348-.807-.926z"/><path fill="#ff8548" style="fill:var(--color4,#ff8548)" d="M19.791 4.084s-.776-1.38-2.667-.997c-1.891.38-2.921 3.06-2.408 8.367 0 0 3.003-1.183 6.907-.23 0-.002-.641-5.141-1.831-7.139z"/><path fill="#ff8548" style="fill:var(--color4,#ff8548)" d="M21.233 3.527 19.904 4.84s-3.406.911-4.352.9-1.318-.696-1.318-.696.798-1.251 2.415-1.817c.153-.053.31-.099.478-.139.279-.066.562-.104.845-.122 1.67-.099 3.262.562 3.262.562z"/><path fill="#66192d" style="fill:var(--color5,#66192d)" d="M21.233 3.527c.212.228-.115.478-.482.84s-.745.575-.847.473c-.102-.102.115-.478.482-.84.367-.365.75-.579.847-.473z"/><path fill="#fdad9b" style="fill:var(--color3,#fdad9b)" d="M20.081 4.845s-.02-.263.314-.597c.201-.201.453-.334.624-.407a.194.194 0 0 1 .259.108l.106.272-.495.316-.807.307z"/><path fill="#ffd00e" style="fill:var(--color6,#ffd00e)" d="M17.734 9.709s4.098-2.2 5.569.199c1.088 1.775-.546 3.429-6.61 3.261 0 0-.599-.279-.453-1.72.055-.568 1.495-1.74 1.495-1.74z"/><path fill="#ffd00e" style="fill:var(--color6,#ffd00e)" d="M17.734 9.709s-5.458-2.213-6.54-.829c-1.241 1.59-.051 4.292 5.704 3.325l.701-.754.135-1.742z"/><path fill="#66192d" style="fill:var(--color5,#66192d)" d="M16.202 11.847s-1.006.04-1.48.27-.221.789.739.774c.96-.015.887-.157.887-.157s-.181-.489-.146-.887z"/><path fill="#020202" style="fill:var(--color7,#020202)" d="M16.684 13.18c-.672-.475-.46-1.718-.458-1.731l.002-.007.007-.002 4.144-1.492.009.022-4.138 1.49c-.015.097-.186 1.251.449 1.702l-.015.018z"/><path fill="#fdad9b" style="fill:var(--color3,#fdad9b)" d="M17.489 9.815c-.334 0-.606-.084-.829-.25-.42-.314-.498-.811-.436-1.145l.4-.23c.02-.108.794.296.792.296.004.002.369.106 1.637-.535.882-.447 1.327-1.081 1.36-1.939.024-.646-.268-1.01-.336-1.167-.009-.02.427-.453.414-.497l.327-.164c-.011-.038.314-.164.31-.175l.252.212c.124.285.389.94.356 1.842-.035.937-.427 2.229-2.085 3.069-.9.456-1.61.683-2.161.683z"/><path fill="#66192d" style="fill:var(--color5,#66192d)" d="M17.221 9.868h-3.538a.175.175 0 0 1-.164-.115l-.734-2.173a.17.17 0 0 1 .164-.223h3.401c.155 0 .292.097.341.243l.692 2.047a.167.167 0 0 1-.161.221z"/><path fill="#66192d" style="fill:var(--color5,#66192d)" d="M16.998 9.868h-3.536a.173.173 0 0 1-.164-.115l-.734-2.173a.17.17 0 0 1 .164-.223h3.401c.155 0 .292.097.341.243l.692 2.047c.038.108-.046.221-.164.221z"/><path fill="#deebe9" style="fill:var(--color8,#deebe9)" d="M14.521 8.539c0-.082.095-.117.179-.117s.221.091.221.206c0 .124-.1.142-.184.142-.084.002-.217-.124-.217-.23z"/><path fill="#66192d" style="fill:var(--color5,#66192d)" d="M18.301 9.561H13.46v.307h4.943a.103.103 0 0 0 .104-.104.206.206 0 0 0-.206-.203zM16.748 8.455c-.002-.007-.175-.65-.288-.851-.111-.197-.248-.237-.248-.237l.007-.022c.007.002.148.042.263.248.113.203.283.829.29.856l-.024.007z"/><path fill="#66192d" style="fill:var(--color5,#66192d)" d="M17.27 9.572c-.131 0-.164-.057-.166-.06V9.51l-.276-.816.022-.007.274.814c.004.004.035.046.144.046v.024h.002z"/><path fill="#f18c7e" style="fill:var(--color9,#f18c7e)" d="M20.669 7.931a.11.11 0 0 1-.058-.015c-.086-.051-.084-.21.004-.367a.492.492 0 0 1 .153-.168c.062-.038.119-.046.161-.02.086.051.084.21-.004.367-.071.124-.172.203-.257.203zm.208-.537a.154.154 0 0 0-.082.029.427.427 0 0 0-.137.15c-.075.128-.084.268-.022.303s.177-.042.252-.17.084-.268.022-.303a.055.055 0 0 0-.033-.009z"/><path fill="#fdad9b" style="fill:var(--color3,#fdad9b)" d="M17.998 2.961c-.232-.007-.409-.031-.542-.186l-1.241-1.446.666 1.727c.049.124-.015.181-.06.327-.018.06-.139.422.177.425.396.002.898-.453 1.006-.847h-.007z"/><path fill="#66192d" style="fill:var(--color5,#66192d)" d="M17.157 1.984s.781-.743.329-1.369c-.449-.626-.562 1.006-.562 1.006l.126.378.106-.015zM17.038 2.278c.002.004.002.011.004.018.073.325-.23.579-.23.579l-.002-.002-.223-.579c.095-.071.234-.155.336-.139.051.007.095.044.115.124z"/><path fill="#fdad9b" style="fill:var(--color3,#fdad9b)" d="M15.388 1.873c-.177-.579.071-1.167.553-1.313.48-.146 1.013.206 1.19.785s-.071 1.167-.553 1.313c-.482.148-1.015-.203-1.19-.785z"/><path fill="#66192d" style="fill:var(--color5,#66192d)" d="M16.965 1.263s-.248.179-.456.029-.356-.294-.82-.062c-.467.232-.975.128-1.07-.133s.128-.462.42-.449c.292.013-.062-.146.142-.42s.721.009.975-.128c.257-.137 1.168-.254 1.331.52l-.522.643z"/><path fill="#fdad9b" style="fill:var(--color3,#fdad9b)" d="M17.159 1.418c-.06.091-.175.122-.257.069s-.1-.17-.04-.263c.06-.091.175-.122.257-.069s.1.17.04.263z"/><path fill="#fff" style="fill:var(--color10,#fff)" d="M15.131 1.004a.18.18 0 0 1-.051-.007c-.104-.027-.135-.082-.126-.124.009-.049.069-.095.161-.086.139.013.215-.033.217-.033l.018.029c-.004.002-.086.053-.237.038-.069-.007-.119.024-.124.057-.007.035.033.066.102.084.179.044.489-.232.493-.234l.022.024c-.015.015-.281.252-.475.252zM15.936.356a.781.781 0 0 1-.374-.097l.027-.022-.013.011.011-.011c.018.015.294.148.531.055.08-.031.148-.066.217-.102.137-.073.257-.135.394-.108l-.007.033c-.124-.024-.239.035-.372.104-.069.035-.139.073-.219.104a.605.605 0 0 1-.195.033zM17.25.575c-.051 0-.144-.077-.168-.126-.018-.035 0-.053.009-.057.069-.042.166.091.186.117l.002.002v.002c.011.042-.007.055-.018.06 0 .002-.004.002-.011.002zm-.128-.157c-.004 0-.009 0-.011.002s.002.022.035.055c.046.046.093.069.104.066l-.002-.015c-.033-.049-.091-.108-.126-.108z"/><path fill="#66192d" style="fill:var(--color5,#66192d)" d="M22.624 11.292a.388.388 0 0 1-.192-.051c-.099-.057-.168-.157-.19-.279s.002-.252.066-.365c.137-.237.416-.334.619-.217.206.119.261.407.124.646a.536.536 0 0 1-.283.241.4.4 0 0 1-.144.024zm.113-.915a.462.462 0 0 0-.389.243.496.496 0 0 0-.062.334c.02.108.08.197.168.248s.195.057.299.022a.496.496 0 0 0 .259-.221c.124-.214.077-.478-.106-.581a.318.318 0 0 0-.168-.044zM16.821 4.243l-.002-.057c1.015-.029 1.382-.9 1.387-.909l.053.022c-.004.009-.095.232-.318.462a1.598 1.598 0 0 1-1.119.482z"/><path fill="#66192d" style="fill:var(--color5,#66192d)" d="m17.305 4.732-.031-.049c.004-.002.524-.332.59-.92l.058.007c-.071.615-.613.957-.617.962zM15.139 4.991l-.209.63.055.018.209-.63-.055-.018z"/><path fill="#ff8548" style="fill:var(--color4,#ff8548)" d="M13.059 7.124a.036.036 0 0 1-.029-.013c-.044-.058-.093-.115-.139-.17-.013-.015-.011-.04.004-.053s.04-.011.053.004c.049.055.095.115.142.172a.036.036 0 0 1-.007.051c-.009.004-.015.009-.024.009zM8.006 23.612a.037.037 0 0 1-.038-.038c0-.02.015-.038.038-.038.144-.002.292-.004.44-.011.02-.002.038.015.038.035s-.015.038-.035.038a7.367 7.367 0 0 1-.442.013zm-.44-.002a12.499 12.499 0 0 1-.442-.02.039.039 0 0 1-.035-.04.04.04 0 0 1 .04-.035c.144.009.292.015.438.018.02 0 .038.018.035.038 0 .024-.016.04-.035.04zm1.32-.034a.039.039 0 0 1-.038-.033.037.037 0 0 1 .033-.04c.144-.011.292-.024.438-.038.02-.002.038.013.04.033s-.013.038-.033.04c-.146.015-.294.029-.44.038zm-2.2-.022h-.004a11.918 11.918 0 0 1-.438-.053c-.02-.002-.033-.022-.031-.042s.022-.033.042-.031c.141.02.29.038.436.053.02.002.035.02.033.04s-.018.033-.038.033zm3.076-.068c-.018 0-.033-.013-.038-.033-.002-.02.011-.04.031-.042.144-.018.29-.04.436-.062.02-.002.04.011.042.031s-.011.04-.031.042c-.146.022-.292.044-.438.062 0 .002-.002.002-.002.002zm-3.948-.055h-.007a9.458 9.458 0 0 1-.433-.091.035.035 0 0 1-.027-.044.035.035 0 0 1 .044-.027c.139.033.285.064.429.091.02.004.033.022.029.042-.002.018-.018.029-.035.029zm4.817-.08a.035.035 0 0 1-.035-.031c-.004-.02.009-.04.029-.042l.431-.084c.02-.004.04.009.044.029s-.009.04-.029.044c-.144.031-.29.058-.433.084h-.007zm-5.673-.124c-.004 0-.007 0-.011-.002a11.51 11.51 0 0 1-.422-.133.036.036 0 0 1-.022-.046.036.036 0 0 1 .046-.022c.137.046.276.091.418.133.02.007.031.027.024.046-.002.015-.018.024-.033.024zm6.535-.055c-.018 0-.031-.011-.035-.029-.004-.02.009-.04.027-.044.142-.033.285-.069.427-.104.02-.004.04.007.044.027s-.007.04-.027.044c-.142.035-.287.071-.429.104 0 .002-.004.002-.007.002zm.854-.219a.037.037 0 0 1-.035-.027.04.04 0 0 1 .027-.046c.142-.04.283-.082.422-.124.02-.007.04.004.046.024s-.004.04-.024.046a23.67 23.67 0 0 1-.425.124c-.004.002-.007.002-.011.002zm-8.22-.013c-.004 0-.009 0-.013-.002a6.638 6.638 0 0 1-.405-.179c-.018-.009-.027-.031-.018-.049s.031-.027.049-.018c.13.062.265.122.4.177.02.007.029.029.02.049-.007.013-.02.022-.033.022zm9.063-.243c-.015 0-.031-.009-.035-.024a.035.035 0 0 1 .024-.046c.142-.046.281-.095.416-.144.02-.007.04.002.046.022s-.002.04-.022.046a15.62 15.62 0 0 1-.418.144c-.002.002-.007.002-.011.002zm-9.859-.135c-.007 0-.011-.002-.018-.004a6.333 6.333 0 0 1-.38-.226c-.018-.011-.022-.033-.011-.051s.033-.022.051-.011c.122.077.25.153.378.223.018.009.024.033.015.051a.047.047 0 0 1-.035.018zm-.743-.469a.038.038 0 0 1-.022-.007 8.213 8.213 0 0 1-.352-.27c-.015-.013-.018-.035-.004-.053a.035.035 0 0 1 .051-.004c.113.093.23.181.347.265.015.011.02.035.009.051a.032.032 0 0 1-.029.018zm-.682-.557c-.009 0-.018-.002-.024-.009L1.8 21.45a5.64 5.64 0 0 1-.232-.232.04.04 0 0 1 0-.053.04.04 0 0 1 .053 0c.073.077.153.155.23.23.027.027.055.051.082.077a.038.038 0 0 1 .002.053.04.04 0 0 1-.029.011zm-.61-.635a.039.039 0 0 1-.029-.013 6.59 6.59 0 0 1-.272-.349c-.011-.015-.009-.04.009-.051.015-.011.04-.009.051.009.084.115.175.232.27.345a.039.039 0 0 1-.004.053.048.048 0 0 1-.024.007zm-.515-.712a.037.037 0 0 1-.031-.018 5.878 5.878 0 0 1-.217-.387c-.009-.018-.002-.04.015-.049s.04-.002.049.015c.064.128.137.256.215.38a.039.039 0 0 1-.011.051.04.04 0 0 1-.02.007zm-.398-.783a.039.039 0 0 1-.035-.022 5.055 5.055 0 0 1-.146-.418c-.007-.02.004-.04.024-.046s.04.004.046.024c.042.137.091.276.144.411a.04.04 0 0 1-.02.049l-.013.002zm-.253-.842c-.018 0-.033-.011-.035-.029a4.627 4.627 0 0 1-.066-.438c-.002-.02.013-.038.033-.04s.038.013.04.033c.015.144.038.29.066.431a.038.038 0 0 1-.029.044c-.004-.002-.007-.002-.009-.002zm-.092-.875A.037.037 0 0 1 0 17.651v-.04c0-.135.007-.27.018-.405.002-.02.02-.035.04-.033s.035.02.033.04a4.817 4.817 0 0 0-.018.398v.038c.002.024-.013.04-.035.04zm.075-.876H.106a.036.036 0 0 1-.029-.042c.027-.144.06-.29.097-.433.004-.02.027-.031.046-.027s.031.027.027.046a4.992 4.992 0 0 0-.097.427.038.038 0 0 1-.038.029zm3.123-.002c-.102 0-.203-.007-.305-.02a.038.038 0 0 1-.033-.042c.002-.02.022-.035.042-.033.144.018.29.022.433.013.02-.002.038.013.04.035.002.02-.013.038-.035.04-.049.007-.095.007-.142.007zm.572-.073a.037.037 0 0 1-.035-.027c-.004-.02.007-.04.027-.044.142-.038.279-.091.402-.155a.04.04 0 0 1 .051.015.04.04 0 0 1-.015.051c-.128.069-.27.122-.418.161-.004-.002-.009-.002-.011-.002zM2.506 16.7c-.004 0-.007 0-.011-.002a2.69 2.69 0 0 1-.414-.166c-.018-.009-.027-.031-.015-.049.009-.018.031-.027.049-.015.13.064.265.119.402.161.02.007.031.027.024.046a.039.039 0 0 1-.035.024zm2.072-.371a.04.04 0 0 1-.027-.011.039.039 0 0 1 .002-.053c.106-.1.197-.21.268-.334.011-.018.033-.024.051-.013s.024.033.013.051a1.507 1.507 0 0 1-.281.349.045.045 0 0 1-.027.011zm-2.857-.018a.038.038 0 0 1-.022-.007 3.065 3.065 0 0 1-.341-.285c-.015-.013-.015-.038 0-.053.013-.015.038-.015.053 0 .104.102.217.197.332.279.015.011.02.035.009.051a.046.046 0 0 1-.031.015zm-1.374-.345c-.004 0-.009 0-.013-.002a.036.036 0 0 1-.022-.046c.051-.137.108-.274.172-.409.009-.018.031-.027.049-.018s.027.031.018.049c-.062.13-.119.268-.17.402-.004.015-.02.024-.033.024zm.743-.265a.036.036 0 0 1-.029-.013 4.22 4.22 0 0 1-.25-.367c-.011-.018-.004-.04.013-.051s.04-.004.051.013c.075.126.157.248.246.36.013.015.009.04-.007.051-.009.002-.015.007-.024.007zm3.919-.122H5a.038.038 0 0 1-.029-.044 1.56 1.56 0 0 0 .033-.323c0-.035 0-.069-.002-.104-.002-.02.013-.038.035-.04.02-.002.038.013.04.035a1.57 1.57 0 0 1-.031.446.041.041 0 0 1-.038.029zm-4.286-.407a.048.048 0 0 1-.018-.004.037.037 0 0 1-.013-.051 4.62 4.62 0 0 1 .241-.371c.011-.018.035-.02.051-.009.018.011.02.035.009.051a4.507 4.507 0 0 0-.237.367.04.04 0 0 1-.033.018zm-.082-.225a.038.038 0 0 1-.033-.022c-.06-.13-.113-.27-.161-.413-.007-.02.004-.04.024-.046s.04.004.046.024c.046.139.102.276.159.407.009.018 0 .04-.018.049l-.018.002zm4.324-.239c-.016 0-.031-.011-.035-.027l-.013-.044a3.22 3.22 0 0 0-.137-.363c-.009-.018 0-.04.018-.049s.04 0 .049.018c.053.115.1.239.142.371l.013.046c.007.02-.007.04-.024.046h-.011zm-3.731-.252c-.009 0-.018-.002-.024-.009-.015-.013-.018-.038-.004-.053.097-.113.201-.221.305-.323a.039.039 0 0 1 .053.002.039.039 0 0 1-.002.053 5.323 5.323 0 0 0-.301.316c-.004.009-.015.013-.027.013zm-.876-.343c-.018 0-.031-.011-.035-.029a6.133 6.133 0 0 1-.088-.433c-.002-.02.011-.04.031-.042.02-.004.04.011.042.031.024.146.053.29.086.429.004.02-.007.04-.027.044H.358zm4.235-.199a.039.039 0 0 1-.031-.015 1.697 1.697 0 0 0-.29-.316c-.015-.013-.018-.035-.004-.053.013-.015.035-.018.053-.004.111.093.212.203.303.329.011.018.009.04-.009.051-.009.007-.015.009-.022.009zm-2.722-.064a.033.033 0 0 1-.029-.015c-.013-.015-.009-.04.007-.051.122-.093.245-.177.369-.248.018-.011.04-.004.051.013s.004.04-.013.051a3.51 3.51 0 0 0-.361.243c-.009.004-.015.007-.024.007zm.761-.438a.038.038 0 0 1-.035-.024.04.04 0 0 1 .02-.049c.144-.057.29-.097.429-.124.02-.004.04.009.042.031a.035.035 0 0 1-.031.042 2.2 2.2 0 0 0-.425.123zm1.287-.046c-.004 0-.009 0-.013-.002a1.436 1.436 0 0 0-.416-.097c-.02-.002-.035-.02-.033-.04s.02-.035.04-.033c.153.011.301.046.438.102.02.007.029.029.02.049a.04.04 0 0 1-.035.022zm-3.702-.119a.037.037 0 0 1-.038-.033 7.862 7.862 0 0 1-.029-.44c0-.02.015-.038.035-.038s.038.015.038.035c.004.148.015.294.029.438a.037.037 0 0 1-.033.04c0-.002-.002-.002-.002-.002zm-.033-.88a.038.038 0 0 1-.038-.038c.002-.144.009-.292.018-.442a.04.04 0 0 1 .04-.035.04.04 0 0 1 .035.04c-.009.148-.015.296-.018.438-.002.022-.018.038-.038.038zm.053-.878H.233a.037.037 0 0 1-.033-.04c.015-.148.035-.294.058-.438.002-.02.022-.033.042-.031s.033.022.031.042a8.521 8.521 0 0 0-.057.433c0 .02-.015.033-.035.033zm.139-.869H.367a.038.038 0 0 1-.029-.044c.031-.144.066-.29.106-.429.004-.02.027-.031.046-.027s.031.027.027.046a7.99 7.99 0 0 0-.104.425.038.038 0 0 1-.038.029zm.234-.847c-.004 0-.009 0-.011-.002a.035.035 0 0 1-.022-.046c.049-.139.1-.279.155-.413.009-.02.029-.029.049-.02s.029.029.02.049a9.075 9.075 0 0 0-.155.409c-.004.015-.02.024-.035.024zm.337-.814a.042.042 0 0 1-.015-.004c-.018-.009-.027-.031-.018-.049.064-.133.133-.263.206-.391.011-.018.033-.024.051-.013s.024.033.013.051a7.472 7.472 0 0 0-.203.387.038.038 0 0 1-.033.02zm.433-.762a.032.032 0 0 1-.02-.007c-.018-.011-.022-.033-.011-.051.08-.122.166-.243.254-.36.013-.015.035-.02.051-.007s.02.035.007.051a6.394 6.394 0 0 0-.252.358c-.004.009-.018.015-.029.015zm.531-.703c-.009 0-.018-.002-.024-.009-.015-.013-.018-.038-.004-.053.095-.111.197-.221.299-.325.013-.015.038-.015.053 0 .015.013.015.038 0 .053a6.471 6.471 0 0 0-.296.323.04.04 0 0 1-.027.011zm.615-.628a.032.032 0 0 1-.027-.013.039.039 0 0 1 .002-.053c.108-.097.223-.192.338-.285.015-.013.04-.011.051.007.013.015.011.04-.007.051a7.173 7.173 0 0 0-.334.281.025.025 0 0 1-.024.013zm10.091-.235a.045.045 0 0 1-.027-.011 5.672 5.672 0 0 0-.325-.292c-.015-.013-.018-.035-.004-.053.013-.015.035-.018.053-.004.115.095.226.192.329.294.015.013.015.038 0 .053-.007.011-.018.013-.027.013zm-9.401-.309a.039.039 0 0 1-.031-.015c-.011-.018-.007-.04.009-.051.119-.084.245-.166.369-.241.018-.011.04-.004.051.013s.004.04-.013.051a7.441 7.441 0 0 0-.367.239.044.044 0 0 1-.018.004zm8.722-.248a.038.038 0 0 1-.022-.007 4.72 4.72 0 0 0-.369-.234c-.018-.011-.024-.033-.013-.051s.033-.024.051-.013c.128.075.254.155.374.239.018.011.02.035.009.051a.033.033 0 0 1-.029.015zm-7.973-.212a.036.036 0 0 1-.033-.02.04.04 0 0 1 .015-.051 6.95 6.95 0 0 1 .396-.197c.018-.009.04 0 .049.018s0 .04-.018.049a8.376 8.376 0 0 0-.391.195c-.007.007-.013.007-.018.007zm7.214-.232a.042.042 0 0 1-.015-.004 5.732 5.732 0 0 0-.398-.179c-.02-.009-.029-.029-.02-.049s.029-.029.049-.02a6.1 6.1 0 0 1 .403.181c.018.009.027.031.018.049-.009.013-.022.022-.035.022zm-6.415-.137a.038.038 0 0 1-.035-.024.04.04 0 0 1 .02-.049c.135-.053.276-.106.416-.153.02-.007.04.004.046.022a.036.036 0 0 1-.022.046 8.03 8.03 0 0 0-.424.157zm5.602-.197c-.004 0-.009 0-.011-.002a6.981 6.981 0 0 0-.418-.126c-.02-.004-.031-.027-.027-.044.004-.02.027-.031.044-.027.144.038.285.082.422.128.02.007.029.027.022.046-.002.013-.018.024-.033.024zm-4.771-.084a.037.037 0 0 1-.035-.027.04.04 0 0 1 .027-.046c.141-.04.285-.075.429-.108.02-.004.04.009.044.029s-.009.04-.029.044c-.142.031-.285.069-.425.106-.004.002-.007.002-.011.002zm3.921-.146h-.007a8.824 8.824 0 0 0-.431-.077c-.02-.002-.033-.022-.031-.042s.022-.033.042-.031c.146.022.292.049.436.077.02.004.033.024.029.044a.04.04 0 0 1-.038.029zm-3.06-.047a.035.035 0 0 1-.035-.031.036.036 0 0 1 .031-.042c.144-.024.292-.046.438-.062a.038.038 0 0 1 .042.033.038.038 0 0 1-.033.042c-.144.018-.29.038-.433.062-.004-.002-.007-.002-.009-.002zm2.191-.084h-.004a10.498 10.498 0 0 0-.438-.029c-.02 0-.035-.018-.035-.038s.018-.035.038-.035c.146.007.296.015.44.029.02.002.035.02.033.04.002.02-.015.033-.033.033zm-1.318-.017c-.02 0-.035-.015-.038-.035s.013-.038.035-.04c.146-.009.294-.015.442-.018.02 0 .038.015.038.035s-.015.038-.035.038a7.125 7.125 0 0 0-.438.018l-.004.002zM14.037 22.394a.038.038 0 0 1-.035-.024.04.04 0 0 1 .02-.049c.13-.051.203-.084.203-.084.018-.009.04 0 .049.02.009.018 0 .04-.02.049 0 0-.073.031-.206.084a.018.018 0 0 1-.011.004z"/><path fill="#66192d" style="fill:var(--color5,#66192d)" d="M16.076 6.713h-.009a.038.038 0 0 1-.029-.044c.015-.073.035-.146.06-.217.007-.02.027-.031.046-.024s.031.027.024.046a2.506 2.506 0 0 0-.058.21c-.002.018-.018.029-.035.029zM25.992 17.14a.038.038 0 0 1-.035-.024c-.007-.02.002-.04.022-.049.131-.049.263-.111.394-.181a.04.04 0 0 1 .051.015.04.04 0 0 1-.015.051 3.211 3.211 0 0 1-.402.186.03.03 0 0 1-.013.002zm.77-.416a.039.039 0 0 1-.031-.015c-.011-.015-.009-.04.009-.051.117-.084.23-.177.336-.274.015-.013.038-.013.053.002s.013.038-.002.053c-.108.1-.223.192-.343.279-.009.004-.015.007-.022.007zm.641-.592c-.009 0-.018-.002-.024-.009-.015-.013-.018-.035-.004-.053a3.48 3.48 0 0 0 .257-.349c.011-.018.033-.022.051-.011s.022.033.011.051c-.08.124-.168.243-.263.356-.004.011-.015.015-.027.015zm.471-.736a.042.042 0 0 1-.015-.004c-.018-.009-.027-.031-.018-.049.06-.13.113-.265.155-.405.007-.02.027-.031.046-.024s.031.027.024.046a3.205 3.205 0 0 1-.159.413c-.007.013-.02.022-.033.022zm.259-.834h-.007a.038.038 0 0 1-.031-.042c.024-.139.04-.285.049-.431 0-.02.018-.035.04-.035.02 0 .035.018.035.04a3.567 3.567 0 0 1-.049.44.041.041 0 0 1-.038.029zm.047-.873c-.02 0-.035-.015-.038-.035a5.011 5.011 0 0 0-.046-.431c-.002-.02.011-.04.031-.042s.04.011.042.031c.024.148.04.296.049.438 0 .022-.015.04-.038.04zm-.135-.865c-.018 0-.031-.011-.035-.029a5.268 5.268 0 0 0-.119-.418c-.007-.02.004-.04.024-.046s.04.004.046.024c.046.142.086.285.122.425.004.02-.007.04-.027.044h-.011zm-.266-.833a.035.035 0 0 1-.035-.027 4.503 4.503 0 0 1-.115-.427c-.004-.02.009-.04.029-.044s.04.009.044.029c.029.139.069.281.113.418a.035.035 0 0 1-.024.046c-.002.004-.007.004-.011.004zm-.181-.856a.039.039 0 0 1-.038-.033 3.72 3.72 0 0 1-.02-.38v-.062c0-.02.018-.035.038-.035s.038.018.035.038v.06c0 .124.007.25.018.374a.037.037 0 0 1-.033.04zm.013-.873h-.004a.036.036 0 0 1-.031-.042c.02-.146.049-.292.086-.433.004-.02.024-.031.044-.027s.031.024.027.044a4.093 4.093 0 0 0-.084.425c-.002.02-.018.033-.038.033zm3.063-.056c-.02 0-.038-.015-.038-.035s.015-.038.035-.038a3.02 3.02 0 0 0 .431-.035c.02-.002.04.011.042.031s-.011.04-.031.042c-.142.02-.29.033-.44.035zm-.438-.017h-.004a3.74 3.74 0 0 1-.438-.066c-.02-.004-.033-.024-.029-.044s.024-.033.044-.029c.144.029.288.051.429.064.02.002.035.02.033.04 0 .02-.015.035-.035.035zm1.301-.113a.037.037 0 0 1-.035-.027.035.035 0 0 1 .024-.046c.144-.044.279-.1.398-.166a.04.04 0 0 1 .051.015.04.04 0 0 1-.015.051 2.324 2.324 0 0 1-.411.17c-.002.002-.007.002-.011.002zm-2.159-.062c-.004 0-.007 0-.011-.002a4.475 4.475 0 0 1-.414-.153.04.04 0 0 1-.02-.049.04.04 0 0 1 .049-.02c.133.055.27.106.407.15.02.007.031.027.024.046a.037.037 0 0 1-.035.027zm-.805-.34c-.007 0-.011-.002-.018-.004a4.429 4.429 0 0 1-.378-.23.036.036 0 0 1-.011-.051.036.036 0 0 1 .051-.011c.119.082.245.157.372.226.018.009.024.033.015.051-.004.013-.018.02-.031.02zm3.72-.025a.04.04 0 0 1-.027-.011.035.035 0 0 1 0-.053c.106-.106.184-.223.234-.347.007-.02.029-.029.049-.02.02.007.029.029.02.049a1.097 1.097 0 0 1-.25.374c-.007.007-.018.009-.027.009zm-4.463-.232c-.004 0-.009 0-.013-.002-.02-.007-.029-.029-.02-.049.053-.137.115-.272.184-.402.009-.018.031-.024.051-.015.018.009.024.031.015.051a3.772 3.772 0 0 0-.181.394.039.039 0 0 1-.035.024zm.018-.232a.034.034 0 0 1-.024-.009 4.571 4.571 0 0 1-.327-.296c-.015-.013-.015-.038 0-.053.013-.015.038-.015.053 0 .102.102.212.199.323.292.015.013.018.035.004.053a.036.036 0 0 1-.029.013zM32.6 8.86c-.02 0-.035-.015-.038-.035a1.203 1.203 0 0 0-.106-.409c-.009-.018 0-.04.02-.049.018-.009.04 0 .049.02.064.148.102.294.111.433.002.02-.013.038-.035.04.002 0 .002 0 0 0zm-4.358-.215a.029.029 0 0 1-.02-.007c-.018-.011-.02-.035-.009-.051.084-.122.175-.239.272-.349.013-.015.038-.018.053-.002.015.013.018.038.004.053a3.826 3.826 0 0 0-.268.341c-.011.009-.022.015-.033.015zm-1.016-.077a.039.039 0 0 1-.029-.013 4.881 4.881 0 0 1-.268-.349c-.011-.018-.007-.04.009-.051.018-.011.04-.007.051.009.084.119.172.234.265.345a.039.039 0 0 1-.004.053.048.048 0 0 1-.024.007zm5.047-.506a.039.039 0 0 1-.031-.015 2.23 2.23 0 0 0-.283-.325c-.015-.013-.015-.038-.002-.053s.038-.015.053-.002c.104.097.203.21.292.334.011.015.009.04-.009.051a.022.022 0 0 1-.02.011zm-3.454-.073a.032.032 0 0 1-.027-.013.039.039 0 0 1 .002-.053c.111-.1.228-.19.347-.274.018-.011.04-.007.051.009.011.018.007.04-.009.051-.117.08-.232.17-.341.268a.025.025 0 0 1-.024.013zm-2.095-.135a.037.037 0 0 1-.031-.018 5.327 5.327 0 0 1-.208-.389.036.036 0 0 1 .018-.049.036.036 0 0 1 .049.018c.064.13.133.261.203.385.011.018.004.04-.013.051l-.018.002zm2.816-.358a.036.036 0 0 1-.033-.02.037.037 0 0 1 .015-.049c.135-.069.272-.124.409-.168.02-.007.04.004.046.024s-.004.04-.024.046a3.032 3.032 0 0 0-.4.164l-.013.002zm2.098-.029a.048.048 0 0 1-.018-.004 1.802 1.802 0 0 0-.392-.172c-.02-.007-.031-.027-.024-.046s.027-.031.046-.024c.142.044.279.104.409.179a.037.037 0 0 1 .013.051.046.046 0 0 1-.035.018zm-1.267-.237c-.018 0-.033-.013-.038-.031-.002-.02.011-.04.031-.042.15-.02.301-.027.445-.015.02.002.035.02.035.04s-.018.035-.04.035a2.214 2.214 0 0 0-.429.015l-.004-.002zm-4.029-.163a.038.038 0 0 1-.035-.024 6.534 6.534 0 0 1-.148-.413c-.007-.02.004-.04.024-.046s.04.004.046.024c.044.139.093.276.146.409a.04.04 0 0 1-.02.049.03.03 0 0 1-.013.002zm-.286-.827a.038.038 0 0 1-.035-.024 4.34 4.34 0 0 0-.173-.398.036.036 0 0 1 .018-.049.036.036 0 0 1 .049.018c.064.13.122.265.175.405.007.02-.002.04-.022.049-.002-.002-.007 0-.011 0zm-9.752-.144c-.007 0-.011-.002-.018-.004a.036.036 0 0 1-.015-.049c.066-.128.144-.254.23-.378.011-.018.035-.02.051-.009.018.011.02.035.009.051a3.621 3.621 0 0 0-.226.369c-.004.013-.018.02-.031.02zm9.368-.641a.037.037 0 0 1-.031-.018 3.892 3.892 0 0 0-.248-.356.036.036 0 0 1 .007-.051c.015-.013.04-.009.051.007.088.115.175.237.252.363a.039.039 0 0 1-.011.051c-.007.002-.013.004-.02.004zm-8.869-.075c-.009 0-.018-.002-.024-.009-.015-.013-.015-.038-.002-.053.095-.106.201-.212.312-.312a.039.039 0 0 1 .053.002.039.039 0 0 1-.002.053 4.939 4.939 0 0 0-.307.307.037.037 0 0 1-.029.011zm.646-.588a.033.033 0 0 1-.029-.015c-.013-.015-.009-.04.007-.051.115-.086.237-.172.36-.252.018-.011.04-.007.051.011s.007.04-.011.051c-.124.08-.243.164-.356.25-.007.002-.013.007-.022.007zm7.688-.027a.04.04 0 0 1-.027-.011 3.83 3.83 0 0 0-.318-.294c-.015-.013-.018-.035-.004-.053.013-.015.035-.018.053-.004.113.093.223.195.325.301a.04.04 0 0 1 0 .053c-.011.004-.02.009-.029.009zm-6.951-.449a.036.036 0 0 1-.033-.02.04.04 0 0 1 .015-.051c.126-.071.259-.137.394-.199.018-.009.04 0 .049.018s0 .04-.018.049a6.738 6.738 0 0 0-.389.197.041.041 0 0 1-.018.007zm6.276-.108a.032.032 0 0 1-.02-.007 3.657 3.657 0 0 0-.374-.219c-.018-.009-.024-.031-.015-.051.009-.018.031-.024.051-.015.131.069.259.144.38.223.018.011.022.033.011.051-.009.011-.02.018-.033.018zm-5.485-.263a.038.038 0 0 1-.035-.024.04.04 0 0 1 .02-.049c.135-.053.274-.104.414-.148.02-.007.04.004.046.024s-.004.04-.024.046a6.421 6.421 0 0 0-.409.148l-.011.002zm4.711-.142c-.004 0-.009 0-.013-.002a4.855 4.855 0 0 0-.411-.144c-.02-.007-.031-.027-.024-.046s.027-.031.046-.024c.142.042.283.091.416.146.02.007.029.029.02.049-.004.013-.02.022-.033.022zm-3.877-.13a.037.037 0 0 1-.035-.027c-.004-.02.007-.04.027-.044a6.34 6.34 0 0 1 .429-.099c.02-.004.04.009.044.029s-.009.04-.029.044a7.7 7.7 0 0 0-.425.099c-.004-.002-.009-.002-.011-.002zm3.039-.12h-.007a5.256 5.256 0 0 0-.429-.071.036.036 0 0 1-.031-.042.036.036 0 0 1 .042-.031c.148.02.294.044.436.073.02.004.033.024.029.044-.009.013-.024.027-.04.027zM20.669 3.5c-.018 0-.033-.013-.038-.031-.002-.02.011-.04.031-.042.146-.02.292-.035.438-.049.02-.002.038.013.04.033s-.013.038-.033.04c-.144.011-.29.027-.433.046 0 .002-.002.002-.004.002zm1.312-.059c-.146-.009-.292-.011-.438-.009-.02 0-.038-.015-.038-.035s.015-.038.035-.038c.148-.002.296 0 .44.009.02.002.035.018.035.04 0 .018-.015.033-.035.033zM25.342 17.282a.037.037 0 0 1-.038-.038c0-.02.015-.038.038-.038.064 0 .137-.007.215-.02.02-.004.04.011.042.031a.036.036 0 0 1-.031.042 1.24 1.24 0 0 1-.226.022z"/><path fill="#786ab5" style="fill:var(--color2,#786ab5)" d="M18.725 7.286h-.002l-.221-.013a.039.039 0 0 1-.035-.04.04.04 0 0 1 .04-.035l.221.013c.02.002.035.02.033.04 0 .022-.015.035-.035.035zM25.712 28.394h-.093c-.02 0-.038-.018-.035-.038 0-.02.018-.035.038-.035.148.002.294 0 .44-.011.02-.002.038.013.04.035.002.02-.013.038-.035.04-.117.004-.234.009-.354.009zm-.536-.026h-.004a5.58 5.58 0 0 1-.442-.06.038.038 0 0 1-.031-.042.038.038 0 0 1 .042-.031c.146.027.292.046.438.06.02.002.035.02.033.04 0 .018-.015.033-.035.033zm1.329-.033a.035.035 0 0 1-.035-.031c-.002-.02.011-.04.031-.042.144-.022.29-.051.433-.084.02-.004.04.007.044.027s-.007.04-.027.044a5.047 5.047 0 0 1-.438.084l-.009.002zm-2.202-.115h-.009a6.637 6.637 0 0 1-.431-.113c-.02-.007-.031-.027-.024-.046s.027-.031.046-.024c.139.04.283.077.427.111.02.004.033.024.029.044-.007.018-.022.029-.038.029zm3.065-.091c-.015 0-.031-.009-.035-.024a.035.035 0 0 1 .024-.046 5.09 5.09 0 0 0 .411-.155c.02-.009.04 0 .049.02.009.018 0 .04-.02.049a5.118 5.118 0 0 1-.418.157h-.011zm-3.919-.157c-.004 0-.009 0-.013-.002a9.402 9.402 0 0 1-.416-.159c-.02-.009-.029-.029-.02-.049s.029-.029.049-.02c.135.058.274.111.411.159.02.007.029.029.022.046-.002.015-.018.024-.033.024zm4.735-.19a.036.036 0 0 1-.033-.02.04.04 0 0 1 .015-.051c.128-.069.257-.142.38-.221.018-.011.04-.007.051.011s.007.04-.011.051c-.126.08-.257.155-.387.223-.004.007-.011.007-.015.007zm-5.553-.153a.042.042 0 0 1-.015-.004 8.213 8.213 0 0 1-.394-.208c-.018-.011-.024-.033-.013-.051s.033-.024.051-.013c.126.073.259.142.389.206.018.009.027.031.018.049a.037.037 0 0 1-.035.022zm6.301-.323a.033.033 0 0 1-.029-.015c-.013-.015-.009-.04.007-.051.117-.088.232-.181.341-.279.015-.013.038-.011.053.002.013.015.011.038-.002.053a5.394 5.394 0 0 1-.345.283.069.069 0 0 1-.024.007zm-7.071-.114a.032.032 0 0 1-.02-.007 7.388 7.388 0 0 1-.365-.254c-.015-.013-.02-.035-.007-.051a.036.036 0 0 1 .051-.007c.117.088.239.172.363.252.018.011.022.033.011.051a.05.05 0 0 1-.033.015zm7.734-.474a.045.045 0 0 1-.027-.011c-.015-.013-.015-.038 0-.053.102-.106.201-.217.294-.329.013-.015.035-.018.053-.004.015.013.018.035.004.053a5.891 5.891 0 0 1-.299.334c-.007.009-.018.011-.027.011zm-8.446-.057c-.009 0-.018-.002-.024-.009a5.853 5.853 0 0 1-.332-.299c-.015-.013-.015-.038-.002-.053s.038-.015.053-.002c.106.102.217.201.329.294.015.013.018.035.004.053-.009.011-.018.015-.029.015zm-.643-.61a.04.04 0 0 1-.027-.011 6.563 6.563 0 0 1-.294-.334c-.013-.015-.011-.04.004-.053s.04-.011.053.004c.095.113.192.226.292.332a.039.039 0 0 1-.002.053c-.009.004-.018.009-.027.009zm9.653-.016a.038.038 0 0 1-.022-.007c-.018-.011-.02-.035-.009-.051.084-.119.166-.245.239-.371.011-.018.033-.024.051-.013s.024.033.013.051a5.349 5.349 0 0 1-.243.376c-.004.011-.015.015-.029.015zm-10.222-.668a.033.033 0 0 1-.029-.015 6.483 6.483 0 0 1-.254-.367c-.011-.018-.007-.04.011-.051s.04-.007.051.011c.08.122.166.245.252.363.011.015.009.04-.007.051a.034.034 0 0 1-.024.009zm10.673-.095a.042.042 0 0 1-.015-.004c-.018-.009-.027-.031-.018-.049.064-.133.124-.268.177-.405.007-.02.029-.029.049-.022s.029.029.022.049a5.23 5.23 0 0 1-.179.409c-.009.013-.02.022-.035.022zm-11.159-.647a.037.037 0 0 1-.031-.018 7.946 7.946 0 0 1-.212-.394.036.036 0 0 1 .018-.049.036.036 0 0 1 .049.018c.064.13.135.261.21.389.011.018.004.04-.013.051a.068.068 0 0 1-.02.002zm11.48-.18c-.004 0-.007 0-.011-.002-.02-.007-.031-.027-.024-.046.042-.142.075-.285.104-.429a.037.037 0 0 1 .044-.029c.02.004.033.022.029.044a5.5 5.5 0 0 1-.104.436c-.007.015-.022.027-.038.027zm.166-.871h-.004a.037.037 0 0 1-.033-.04c.011-.126.018-.252.018-.376v-.064c0-.02.015-.038.035-.038s.038.015.038.035v.064c0 .126-.007.254-.018.383 0 .02-.018.035-.035.035zm-.016-.886c-.018 0-.033-.013-.038-.033a3.771 3.771 0 0 0-.082-.431c-.004-.02.007-.04.027-.044s.04.007.044.027c.038.144.064.292.084.44.002.02-.011.04-.031.042h-.004zm-.221-.858a.038.038 0 0 1-.035-.024 3.187 3.187 0 0 0-.188-.396.04.04 0 0 1 .013-.051.04.04 0 0 1 .051.013c.073.13.137.265.192.405a.04.04 0 0 1-.02.049c-.004.004-.009.004-.013.004zm-2.835-.396c-.115 0-.221-.018-.321-.051a.036.036 0 0 1-.022-.046.036.036 0 0 1 .046-.022.938.938 0 0 0 .422.04c.02-.002.038.013.04.033s-.013.038-.033.04c-.044.002-.088.007-.133.007zm.559-.119a.038.038 0 0 1-.035-.024.04.04 0 0 1 .02-.049c.126-.049.257-.115.391-.195.018-.011.04-.004.051.013s.004.04-.013.051a2.82 2.82 0 0 1-.402.199c-.002.004-.007.004-.011.004zm-1.22-.188a.033.033 0 0 1-.029-.015.909.909 0 0 1-.177-.422c-.002-.02.011-.04.031-.042s.04.011.042.031c.022.146.08.281.161.389.013.015.009.04-.007.051a.03.03 0 0 1-.022.009zm3.065-.071a.033.033 0 0 1-.029-.015 3.333 3.333 0 0 0-.283-.336.04.04 0 0 1 0-.053.04.04 0 0 1 .053 0c.104.108.201.223.29.343.013.015.009.04-.007.051-.009.009-.015.011-.024.011zm-1.079-.186a.033.033 0 0 1-.029-.015c-.013-.015-.009-.04.007-.051a2.11 2.11 0 0 0 .316-.298c.013-.015.038-.018.053-.004s.018.038.004.053c-.1.117-.21.221-.327.31-.009.004-.015.007-.024.007zm.466-.453a.034.034 0 0 1-.024-.009l-.04-.033a6.262 6.262 0 0 0-.312-.232c-.018-.011-.02-.035-.009-.051.011-.018.035-.02.051-.009a4.484 4.484 0 0 1 .358.27c.015.013.018.035.004.053a.042.042 0 0 1-.029.011zm-2.596-.135c-.004 0-.007 0-.011-.002-.02-.007-.031-.027-.024-.046a.952.952 0 0 1 .226-.398c.013-.015.038-.015.053-.002s.015.038.002.053a.92.92 0 0 0-.208.367c-.007.018-.02.029-.038.029zm2.704-.08a.048.048 0 0 1-.018-.004.037.037 0 0 1-.013-.051c.071-.122.133-.254.186-.396.007-.02.029-.029.049-.022s.029.029.022.049a2.821 2.821 0 0 1-.192.407.04.04 0 0 1-.033.018zm-.838-.285c-.007 0-.011-.002-.018-.004a2.917 2.917 0 0 0-.398-.181.036.036 0 0 1-.022-.046.036.036 0 0 1 .046-.022c.131.046.27.108.409.186.018.009.024.033.015.051-.009.009-.022.018-.033.018zm-1.276-.245a.037.037 0 0 1-.035-.027.035.035 0 0 1 .024-.046c.137-.042.29-.055.453-.04.02.002.035.02.033.04s-.02.035-.04.033a1.132 1.132 0 0 0-.436.039zm2.437-.294h-.009c-.02-.004-.031-.024-.027-.044.033-.137.062-.283.084-.431.002-.02.022-.033.042-.031s.033.022.031.042a5.2 5.2 0 0 1-.084.44.046.046 0 0 1-.038.024zm.126-.878c-.022-.002-.038-.018-.038-.04.007-.104.009-.212.009-.321 0-.04 0-.082-.002-.122 0-.02.015-.038.035-.038s.038.015.038.035l.002.124c0 .108-.002.219-.009.323 0 .022-.015.038-.035.038zm-.015-.887a.039.039 0 0 1-.038-.033 6.25 6.25 0 0 0-.051-.44c-.002-.02.011-.04.031-.042s.04.011.042.031c.022.148.038.299.051.442a.037.037 0 0 1-.033.04c0 .002-.002.002-.002.002zm-.126-.88c-.018 0-.033-.013-.035-.029a8.833 8.833 0 0 0-.097-.431c-.004-.02.007-.04.027-.044s.04.007.044.027c.035.146.069.292.097.436a.038.038 0 0 1-.029.044c-.002-.002-.004-.002-.007-.002zm-.215-.86a.037.037 0 0 1-.035-.027 9.736 9.736 0 0 0-.135-.42.036.036 0 0 1 .022-.046c.02-.007.04.004.046.022.049.142.095.283.137.425a.035.035 0 0 1-.024.046h-.011zm-.289-.84a.038.038 0 0 1-.035-.024 11.804 11.804 0 0 0-.17-.409c-.009-.018 0-.04.02-.049.018-.009.04 0 .049.02.06.137.117.274.17.411a.04.04 0 0 1-.02.049.03.03 0 0 1-.013.002zm-.359-.811a.036.036 0 0 1-.033-.02 12.12 12.12 0 0 0-.201-.394.04.04 0 0 1 .015-.051.04.04 0 0 1 .051.015c.071.13.137.263.203.396a.036.036 0 0 1-.018.049c-.007.002-.011.004-.018.004zm-.418-.783a.037.037 0 0 1-.031-.018 9.298 9.298 0 0 0-.23-.378c-.011-.018-.007-.04.011-.051s.04-.007.051.011c.08.126.157.254.232.38.011.018.004.04-.013.051-.007.002-.013.004-.02.004zm-.475-.752a.046.046 0 0 1-.031-.015c-.084-.122-.17-.243-.257-.36-.011-.015-.009-.04.007-.051.015-.013.04-.009.051.007.088.119.175.241.259.363.011.018.007.04-.009.051-.007.007-.013.007-.02.007zm-.529-.712a.036.036 0 0 1-.029-.013 8.353 8.353 0 0 0-.283-.34c-.013-.015-.011-.04.004-.053s.04-.011.053.004c.097.113.192.228.283.343.013.015.011.04-.007.051a.03.03 0 0 1-.022.009zm-.579-.674a.037.037 0 0 1-.027-.011c-.1-.108-.203-.217-.305-.321a.04.04 0 0 1 0-.053.04.04 0 0 1 .053 0c.104.104.208.212.307.321a.039.039 0 0 1-.029.064zm-.626-.628c-.009 0-.018-.002-.024-.011a11.479 11.479 0 0 0-.327-.296c-.015-.013-.018-.038-.004-.053s.038-.018.053-.004c.111.097.223.197.33.298.015.013.015.038.002.053a.039.039 0 0 1-.029.013zm-.668-.584a.034.034 0 0 1-.024-.009 12.616 12.616 0 0 0-.349-.272c-.015-.013-.02-.035-.007-.051s.035-.02.051-.007c.117.088.237.181.352.274a.035.035 0 0 1 .004.051.035.035 0 0 1-.027.013zm-.71-.533a.038.038 0 0 1-.022-.007 9.36 9.36 0 0 0-.367-.245c-.018-.011-.022-.033-.011-.051s.033-.022.051-.011c.124.08.248.164.369.248.018.011.02.035.009.051a.038.038 0 0 1-.029.015zm-.747-.482c-.007 0-.013-.002-.02-.004a14.645 14.645 0 0 0-.385-.219c-.018-.009-.024-.033-.015-.051s.033-.024.051-.015c.131.071.259.146.387.221a.037.037 0 0 1 .013.051c-.004.011-.018.018-.031.018zm-.779-.424c-.007 0-.011-.002-.015-.004a9.668 9.668 0 0 0-.398-.19c-.018-.009-.027-.031-.018-.049s.031-.027.049-.018c.135.062.27.126.402.192.018.009.027.031.015.049-.009.011-.022.02-.035.02zm-.807-.369c-.004 0-.009 0-.013-.002a25.117 25.117 0 0 0-.411-.164c-.02-.007-.029-.029-.022-.049s.029-.029.049-.022c.139.051.279.106.414.164.02.009.029.029.02.049a.039.039 0 0 1-.035.024zm-.829-.312c-.004 0-.009 0-.011-.002a26.026 26.026 0 0 0-.422-.135c-.02-.007-.031-.027-.024-.046s.027-.031.046-.024c.142.042.285.088.425.135.02.007.029.027.024.046-.009.015-.022.027-.038.027zm-.852-.254c-.002 0-.007 0-.009-.002a12.205 12.205 0 0 0-.429-.106c-.02-.004-.033-.024-.029-.044s.024-.033.044-.029c.144.033.29.069.431.106.02.004.031.024.027.044s-.018.031-.035.031zm-.864-.199h-.007c-.144-.029-.29-.053-.436-.077-.02-.002-.033-.022-.031-.042s.022-.033.042-.031c.146.024.294.051.438.077.02.004.033.024.029.044-.002.018-.018.029-.035.029zm-.876-.142h-.004c-.146-.02-.292-.035-.44-.051-.02-.002-.035-.02-.033-.04s.02-.035.04-.033c.148.016.296.031.442.051.02.002.035.022.031.042a.036.036 0 0 1-.035.031zM19.053 23.82c-.015 0-.029-.009-.033-.022-.053-.133-.077-.206-.08-.21-.007-.02.004-.04.024-.046s.04.004.046.024c0 0 .024.075.077.206a.04.04 0 0 1-.02.049h-.015z"/><path fill="#ff443c" style="fill:var(--color11,#ff443c)" d="M10.624 15.044c-.073 0-.148-.002-.221-.009-.015 0-.027-.013-.027-.029s.015-.027.029-.027c.144.011.292.011.438 0 .015 0 .029.011.029.027s-.011.029-.027.029a2.28 2.28 0 0 1-.221.009zm.664-.071a.028.028 0 0 1-.027-.022.03.03 0 0 1 .022-.033 1.88 1.88 0 0 0 .102-.024c.015-.004.031.004.033.02.004.015-.004.031-.02.033-.035.009-.071.015-.104.024l-.007.002zm-1.321 0H9.96a2.899 2.899 0 0 1-.429-.128c-.013-.004-.022-.022-.015-.035.004-.013.022-.022.035-.015.137.051.279.093.42.126.015.002.024.018.022.033-.002.011-.013.02-.027.02zm-.824-.314a.033.033 0 0 1-.013-.004 3.386 3.386 0 0 1-.374-.245.028.028 0 0 1-.004-.04.028.028 0 0 1 .04-.004c.115.088.239.17.367.241a.029.029 0 0 1 .011.038c-.009.011-.018.015-.027.015zm-.702-.537c-.007 0-.015-.002-.02-.009a3.263 3.263 0 0 1-.29-.341c-.009-.013-.007-.029.007-.04.013-.009.029-.007.04.007.086.117.181.23.283.334a.028.028 0 0 1 0 .04c-.007.007-.013.009-.02.009zm-.524-.71c-.009 0-.02-.004-.024-.015a3.229 3.229 0 0 1-.186-.405c-.004-.013.002-.031.016-.035s.031.002.035.015c.053.137.115.272.184.398a.029.029 0 0 1-.024.042zm-.316-.824a.028.028 0 0 1-.027-.022 4.18 4.18 0 0 1-.082-.438c-.002-.015.009-.029.024-.031s.029.009.031.024c.018.146.044.292.08.431.004.015-.004.031-.02.033-.004 0-.007.002-.007.002zm-.113-.878c-.015 0-.027-.011-.029-.027v-.064c0-.126.007-.254.015-.382.002-.015.016-.027.031-.024s.027.015.024.031a4.328 4.328 0 0 0-.015.376v.064c.002.013-.009.027-.027.027.002 0 .002 0 0 0zm.076-.882H7.56c-.016-.002-.024-.018-.022-.033.011-.066.027-.135.04-.203.018-.08.031-.157.038-.232.002-.015.015-.027.031-.024s.027.015.024.031c-.007.075-.02.155-.038.239a3.57 3.57 0 0 0-.04.201.03.03 0 0 1-.029.022zm.042-.874c-.011 0-.022-.009-.027-.02a.92.92 0 0 0-.206-.369c-.011-.011-.009-.029.002-.04s.029-.009.04.002a.993.993 0 0 1 .219.391.028.028 0 0 1-.02.035h-.009zm-.558-.652a.033.033 0 0 1-.013-.004 2.728 2.728 0 0 0-.396-.188c-.013-.007-.022-.022-.015-.035s.022-.022.035-.015c.157.062.29.124.405.192.013.009.018.024.009.038-.004.009-.013.013-.024.013zm-.818-.334-.009-.002a24.722 24.722 0 0 0-.427-.124c-.015-.004-.024-.02-.02-.033.004-.015.02-.024.033-.02.128.035.281.077.427.124.015.004.022.02.018.035 0 .011-.011.02-.022.02zm-.856-.243h-.007a9.811 9.811 0 0 1-.427-.126c-.016-.004-.022-.02-.018-.035s.02-.022.035-.018c.124.038.259.08.425.126.016.004.024.02.02.033a.03.03 0 0 1-.029.02zm-.845-.267c-.002 0-.007 0-.009-.002a5.796 5.796 0 0 1-.411-.172c-.013-.007-.02-.022-.013-.038.007-.013.022-.02.038-.013.126.06.259.115.407.17.013.004.022.022.015.035a.03.03 0 0 1-.027.02zm-.798-.383a.042.042 0 0 1-.015-.004 3.047 3.047 0 0 1-.361-.263c-.011-.011-.013-.027-.002-.04.011-.011.027-.013.04-.002.106.091.226.177.354.259.013.009.018.024.009.038-.007.009-.015.013-.024.013zm-.666-.577c-.009 0-.015-.004-.022-.011a2.268 2.268 0 0 1-.245-.371c-.007-.013-.002-.031.011-.038s.031-.002.038.011c.069.128.148.25.239.363a.029.029 0 0 1-.004.04.021.021 0 0 1-.015.007zm11.427-.756c-.011 0-.022-.009-.027-.02a12.153 12.153 0 0 0-.133-.422c-.004-.015.002-.031.018-.035s.031.002.035.018c.046.139.093.281.133.425.004.015-.004.031-.018.035h-.009zm-11.84-.018a.03.03 0 0 1-.027-.02 2.819 2.819 0 0 1-.1-.433c-.002-.015.009-.029.022-.031.015-.002.029.009.031.022.022.148.055.292.097.425.004.016-.004.031-.018.035 0 .002-.002.002-.007.002zm11.555-.822a.03.03 0 0 1-.027-.018c-.053-.137-.111-.274-.168-.409-.007-.013 0-.031.013-.038s.031 0 .038.013c.06.135.117.272.17.411.007.013-.002.031-.015.035-.004.004-.007.004-.011.004zM2.515 5.857c-.015 0-.027-.011-.029-.027-.002-.042-.002-.084-.002-.126 0-.104.004-.21.011-.318 0-.015.013-.027.029-.027s.027.013.027.029a4.91 4.91 0 0 0-.009.44c.002.016-.011.027-.027.029zm4.482-.243c-.082 0-.164-.004-.245-.015-.015-.002-.027-.015-.024-.031s.016-.027.031-.024c.144.018.292.02.436.004.015-.002.029.009.031.024s-.009.029-.024.031a1.568 1.568 0 0 1-.204.011zm.633-.104a.03.03 0 0 1-.027-.018c-.004-.015.002-.031.018-.035.137-.046.27-.111.394-.188a.027.027 0 0 1 .038.009.027.027 0 0 1-.009.038c-.128.08-.263.144-.405.192l-.009.002zm-1.305-.013c-.002 0-.007 0-.009-.002a1.948 1.948 0 0 1-.402-.197c-.013-.009-.018-.024-.009-.038s.027-.018.038-.009c.122.077.252.141.391.192.015.004.022.022.018.035a.028.028 0 0 1-.027.018zm7.524-.405a.027.027 0 0 1-.024-.015 6.848 6.848 0 0 0-.208-.389c-.007-.013-.002-.031.011-.038s.031-.002.038.011c.073.128.142.259.208.394a.028.028 0 0 1-.013.038h-.011zm-5.478-.05a.024.024 0 0 1-.018-.007c-.011-.011-.013-.029-.002-.04.1-.111.175-.234.223-.367.004-.015.02-.022.035-.018s.022.022.018.035c-.051.139-.128.27-.234.385-.007.007-.013.011-.022.011zm-2.785-.02c-.007 0-.016-.002-.02-.009a1.761 1.761 0 0 1-.263-.365c-.007-.013-.002-.031.011-.038s.031-.002.038.011c.066.126.153.245.254.352a.027.027 0 0 1-.002.04c-.004.007-.011.009-.018.009zM2.57 4.973h-.004c-.015-.002-.027-.016-.024-.031.02-.141.046-.287.077-.438.002-.015.018-.024.033-.022s.024.018.022.033a6.066 6.066 0 0 0-.077.436c0 .013-.011.022-.027.022zm10.845-.652a.028.028 0 0 1-.024-.013 7.607 7.607 0 0 0-.248-.367c-.009-.013-.007-.029.007-.038s.029-.007.038.007c.086.119.168.243.248.369a.027.027 0 0 1-.009.038.018.018 0 0 1-.011.004zm-8.236-.073a.028.028 0 0 1-.027-.022 1.62 1.62 0 0 1-.029-.449c0-.015.013-.027.029-.027s.027.013.027.029c-.002.04-.004.08-.004.117 0 .106.011.212.031.316a.03.03 0 0 1-.022.033l-.004.002zm3.484-.02c-.015 0-.027-.011-.029-.027a1.517 1.517 0 0 0-.084-.425c-.004-.015.002-.031.018-.035s.031.002.035.018c.051.15.08.298.086.44.002.015-.009.029-.027.029zm-5.912-.122h-.007c-.015-.004-.024-.02-.02-.033.04-.146.086-.29.133-.425.004-.015.022-.022.035-.018.015.004.022.022.018.035a5.175 5.175 0 0 0-.133.42c-.002.011-.013.02-.027.02zM12.9 3.6c-.009 0-.015-.004-.022-.011a8.58 8.58 0 0 0-.287-.336c-.011-.011-.009-.029.002-.04s.029-.009.04.002c.1.108.197.221.29.338.009.011.007.029-.004.04a.041.041 0 0 1-.018.007zm-4.509-.206a.028.028 0 0 1-.024-.013 2.8 2.8 0 0 0-.252-.36.029.029 0 0 1 .004-.04.029.029 0 0 1 .04.004c.097.119.184.243.257.367.007.013.002.031-.009.038-.004.004-.009.004-.015.004zm-3.156-.02c-.002 0-.007 0-.009-.002-.015-.004-.022-.02-.018-.035.044-.137.102-.274.177-.411.007-.013.024-.018.038-.011s.018.024.011.038c-.073.133-.13.27-.173.402-.004.011-.013.02-.027.02zm-2.183-.099c-.004 0-.009 0-.011-.002-.013-.007-.02-.022-.013-.038.064-.139.135-.272.21-.394.009-.013.024-.018.038-.009s.018.024.009.038c-.073.119-.144.25-.208.387-.002.011-.013.018-.024.018zm9.251-.33c-.007 0-.013-.002-.02-.009a6.932 6.932 0 0 0-.327-.296c-.011-.009-.013-.027-.002-.04.009-.011.027-.013.04-.002.111.095.223.197.33.298a.028.028 0 0 1 0 .04c-.004.007-.013.009-.02.009zm-4.465-.238a.032.032 0 0 1-.02-.007 3.827 3.827 0 0 0-.334-.285.028.028 0 0 1-.004-.04c.009-.013.027-.015.04-.004.119.091.234.188.338.29a.028.028 0 0 1 0 .04c-.007.002-.013.007-.02.007zm-2.187-.113c-.007 0-.011-.002-.015-.004-.013-.009-.015-.027-.007-.04.062-.082.128-.166.201-.248l.086-.093c.011-.011.029-.011.04 0s.011.029 0 .04l-.086.093c-.071.08-.137.161-.199.243-.004.007-.013.009-.02.009zm-2.132-.071a.024.024 0 0 1-.018-.007c-.011-.009-.013-.027-.004-.04.097-.117.201-.226.312-.321.011-.011.029-.009.04.002s.009.029-.002.04c-.106.093-.21.199-.305.314-.007.009-.013.011-.022.011zm8.109-.15c-.007 0-.011-.002-.015-.004a6.518 6.518 0 0 0-.363-.25c-.013-.009-.018-.024-.009-.038s.024-.018.038-.009c.124.08.248.164.367.252.013.009.015.027.007.04-.007.004-.015.009-.024.009zm-4.494-.204a.033.033 0 0 1-.013-.004 4.042 4.042 0 0 0-.389-.208c-.013-.007-.02-.022-.013-.038.007-.013.022-.02.038-.013.133.062.265.133.394.21.013.009.018.024.009.038-.007.009-.016.015-.024.015zm-.869-.207a.028.028 0 0 1-.022-.011c-.009-.011-.007-.029.004-.04.117-.091.241-.172.372-.248.013-.007.031-.002.038.011s.002.031-.011.038c-.128.073-.25.155-.365.243-.002.004-.009.007-.015.007zm-2.079-.014c-.009 0-.02-.004-.024-.013a.029.029 0 0 1 .011-.038 2.27 2.27 0 0 1 .407-.186c.015-.004.031.002.035.018s-.002.031-.018.035a2.193 2.193 0 0 0-.398.181l-.013.002zm6.695-.051c-.004 0-.009 0-.013-.002a5.804 5.804 0 0 0-.396-.195c-.013-.007-.02-.022-.013-.038.007-.013.022-.02.038-.013.135.06.27.126.4.197a.029.029 0 0 1 .011.038c-.007.007-.015.013-.027.013zm-4.552-.099c-.002 0-.007 0-.009-.002a3.036 3.036 0 0 0-.427-.108c-.015-.002-.024-.018-.022-.033s.018-.024.033-.022c.144.027.29.064.433.111.016.004.022.02.018.035-.002.011-.013.02-.027.02zm-1.311-.137c-.013 0-.027-.011-.027-.024a.028.028 0 0 1 .024-.031 2.63 2.63 0 0 1 .447-.024c.015 0 .027.013.027.029s-.013.027-.029.027a2.635 2.635 0 0 0-.438.022c0 .002-.002.002-.004.002zm5.053-.122c-.002 0-.007 0-.009-.002a5.376 5.376 0 0 0-.422-.128c-.015-.004-.024-.02-.02-.033.004-.015.02-.024.033-.02.142.038.285.08.427.128.015.004.022.02.018.035a.028.028 0 0 1-.027.02zm-3.038-.015a.03.03 0 0 1-.027-.018c-.007-.013.002-.031.016-.035.137-.055.279-.102.425-.139.015-.004.031.004.033.02.004.015-.004.031-.02.033a3.784 3.784 0 0 0-.418.137c0 .002-.004.002-.009.002zm2.18-.206h-.004a4.421 4.421 0 0 0-.438-.051c-.015 0-.027-.013-.027-.029s.013-.027.029-.027a4.5 4.5 0 0 1 .442.051c.015.002.024.018.022.031a.023.023 0 0 1-.024.024zm-1.324-.02c-.013 0-.027-.011-.027-.024a.028.028 0 0 1 .024-.031c.146-.02.294-.033.445-.038.015-.002.029.011.029.027s-.011.029-.027.029a3.917 3.917 0 0 0-.438.038h-.007z"/><path fill="#ff443c" style="fill:var(--color11,#ff443c)" d="M3.496 4.683H2.277a.122.122 0 0 1-.122-.122v-.712c0-.066.053-.122.122-.122h1.219c.066 0 .122.053.122.122v.712a.123.123 0 0 1-.122.122z"/><path fill="#ff443c" style="fill:var(--color11,#ff443c)" d="m3.607 4.61-.721-.436-.719.436a.123.123 0 0 0 .111.073h1.219a.123.123 0 0 0 .111-.073z"/><path fill="#ff443c" style="fill:var(--color11,#ff443c)" d="m2.167 3.801.721.491.719-.489a.123.123 0 0 0-.111-.073H2.277a.12.12 0 0 0-.111.071z"/><path fill="#66192d" style="fill:var(--color5,#66192d)" d="M2.888 4.305 2.16 3.81l.013-.018.714.486.712-.486.013.02-.725.493z"/><path fill="#786ab5" style="fill:var(--color2,#786ab5)" d="M26.793 7.191h-1.219a.122.122 0 0 1-.122-.122v-.712c0-.066.053-.122.122-.122h1.219c.066 0 .122.053.122.122v.712a.122.122 0 0 1-.122.122z"/><path fill="#786ab5" style="fill:var(--color2,#786ab5)" d="m26.901 7.118-.721-.436-.719.436a.123.123 0 0 0 .111.073h1.219a.117.117 0 0 0 .111-.073z"/><path fill="#786ab5" style="fill:var(--color2,#786ab5)" d="m25.464 6.308.721.491.719-.489a.123.123 0 0 0-.111-.073h-1.219a.119.119 0 0 0-.111.071z"/><path fill="#66192d" style="fill:var(--color5,#66192d)" d="m26.183 6.813-.725-.493.013-.02.712.486.714-.484.013.018-.728.493z"/><path fill="#ff8548" style="fill:var(--color4,#ff8548)" d="M31.76 23.347h-1.219a.122.122 0 0 1-.122-.122v-.712c0-.066.053-.122.122-.122h1.219c.066 0 .122.053.122.122v.712a.124.124 0 0 1-.122.122z"/><path fill="#ff8548" style="fill:var(--color4,#ff8548)" d="m31.871 23.274-.721-.436-.719.436a.123.123 0 0 0 .111.073h1.219a.125.125 0 0 0 .111-.073z"/><path fill="#ff8548" style="fill:var(--color4,#ff8548)" d="m30.431 22.464.721.491.719-.489a.123.123 0 0 0-.111-.073h-1.219a.12.12 0 0 0-.111.071z"/><path fill="#66192d" style="fill:var(--color5,#66192d)" d="m31.152 22.968-.728-.495.013-.018.714.486.712-.486.013.02-.725.493z"/><path fill="#ffba41" style="fill:var(--color12,#ffba41)" d="M5.524 14.954H4.305a.122.122 0 0 1-.122-.122v-.712c0-.066.053-.122.122-.122h1.219c.066 0 .122.053.122.122v.712a.121.121 0 0 1-.122.122z"/><path fill="#ffba41" style="fill:var(--color12,#ffba41)" d="m5.635 14.883-.721-.436-.719.436a.123.123 0 0 0 .111.073h1.219a.124.124 0 0 0 .111-.073z"/><path fill="#ffba41" style="fill:var(--color12,#ffba41)" d="m4.198 14.074.721.491.719-.489a.123.123 0 0 0-.111-.073H4.308a.113.113 0 0 0-.111.071z"/><path fill="#66192d" style="fill:var(--color5,#66192d)" d="m4.916 14.578-.725-.495.011-.02.714.486.712-.484.013.018-.725.495z"/></symbol><symbol id="icon-hero-img-background" viewBox="0 0 28 32"><path d="M7.348 24.315a7.272 7.272 0 0 0 3.569 1.855 7.051 7.051 0 0 0 3.397-.193c.316-.103.62-.25.926-.446 1.378-.854 2.762-2.342 4.556-2.55 2.216-.247 5.95.572 8.808-1.699.828-.649 1.394-1.628 1.671-2.67.223-.841.187-1.748.007-2.596-.288-1.376-.903-2.641-1.72-3.809a17.8 17.8 0 0 0-1.55-1.892 22.102 22.102 0 0 0-3.783-3.245c-2.101-1.405-4.544-2.44-7.066-2.461a7.74 7.74 0 0 0-1.692.159 9.19 9.19 0 0 0-1.975.673c-.874.397-1.692.907-2.454 1.479-2.66 2.011-4.645 4.966-5.303 8.28-.716 3.766.531 7.149 2.611 9.116z"/><path d="M7.348 24.315a7.272 7.272 0 0 0 3.569 1.855 7.051 7.051 0 0 0 3.397-.193c.316-.103.62-.25.926-.446 1.378-.854 2.762-2.342 4.556-2.55 2.216-.247 5.95.572 8.808-1.699.828-.649 1.394-1.628 1.671-2.67.223-.841.187-1.748.007-2.596-.288-1.376-.903-2.641-1.72-3.809a17.8 17.8 0 0 0-1.55-1.892 22.102 22.102 0 0 0-3.783-3.245c-2.101-1.405-4.544-2.44-7.066-2.461a7.74 7.74 0 0 0-1.692.159 9.19 9.19 0 0 0-1.975.673c-.874.397-1.692.907-2.454 1.479-2.66 2.011-4.645 4.966-5.303 8.28-.716 3.766.531 7.149 2.611 9.116z"/></symbol><symbol id="icon-arrow-scroll" viewBox="0 0 22 32"><path stroke-linejoin="bevel" stroke-linecap="square" stroke-width="1.103" d="M11.096.551v30.897m0 0 9.931-9.931m-9.931 9.931-9.931-9.931"/></symbol></defs></svg>