<svg aria-hidden="true" style="position: absolute; width: 0; height: 0; overflow: hidden;" version="1.1" xmlns="http://www.w3.org/2000/svg" xmlns:xlink="http://www.w3.org/1999/xlink">
<defs>
<symbol id="icon-instagram" viewBox="0 0 32 32">
<path fill="#000" style="fill: var(--color1, #000)" d="M0 16c0-8.837 7.163-16 16-16s16 7.163 16 16c0 8.837-7.163 16-16 16s-16-7.163-16-16z"></path>
<path fill="#000" style="fill: var(--color1, #000)" d="M4.571 0h22.857c2.525 0 4.571 2.047 4.571 4.571v22.857c0 2.525-2.047 4.571-4.571 4.571h-22.857c-2.525 0-4.571-2.047-4.571-4.571v-22.857c0-2.525 2.047-4.571 4.571-4.571z"></path>
<path fill="#fff" style="fill: var(--color2, #fff)" d="M11.619 16c0-2.42 1.962-4.382 4.382-4.382s4.382 1.962 4.382 4.382-1.961 4.381-4.382 4.381c-2.42 0-4.382-1.961-4.382-4.381zM18.845 16c0-1.571-1.274-2.844-2.844-2.844s-2.845 1.273-2.845 2.844c0 1.571 1.273 2.844 2.845 2.844s2.844-1.274 2.844-2.844z"></path>
<path fill="#fff" style="fill: var(--color2, #fff)" d="M19.532 11.445c0-0.566 0.459-1.024 1.024-1.024s1.024 0.458 1.024 1.024c0 0.565-0.459 1.024-1.024 1.024s-1.024-0.459-1.024-1.024z"></path>
<path fill="#fff" style="fill: var(--color2, #fff)" d="M12.482 7.518c0.91-0.041 1.201-0.052 3.519-0.052h-0.003c2.318 0 2.608 0.010 3.518 0.052 0.908 0.042 1.529 0.185 2.073 0.396 0.562 0.218 1.036 0.509 1.511 0.984s0.766 0.95 0.985 1.512c0.21 0.543 0.354 1.163 0.397 2.071 0.041 0.91 0.052 1.201 0.052 3.519s-0.011 2.608-0.052 3.518c-0.043 0.908-0.187 1.528-0.397 2.071-0.219 0.561-0.51 1.037-0.985 1.512s-0.95 0.767-1.511 0.985c-0.543 0.211-1.164 0.355-2.072 0.396-0.91 0.041-1.2 0.052-3.518 0.052s-2.608-0.010-3.518-0.052c-0.908-0.042-1.528-0.185-2.072-0.396-0.561-0.218-1.037-0.51-1.511-0.985s-0.766-0.95-0.984-1.512c-0.211-0.543-0.355-1.163-0.396-2.071-0.041-0.91-0.052-1.2-0.052-3.518s0.011-2.609 0.051-3.519c0.041-0.908 0.185-1.528 0.396-2.071 0.219-0.561 0.51-1.037 0.985-1.511s0.95-0.766 1.512-0.984c0.543-0.211 1.163-0.355 2.071-0.396zM15.716 9.004c-0.173-0-0.333-0-0.481 0v-0.002c-1.59 0.002-1.895 0.012-2.683 0.048-0.832 0.038-1.284 0.177-1.585 0.294-0.398 0.155-0.683 0.34-0.981 0.639s-0.484 0.583-0.639 0.981c-0.117 0.301-0.256 0.752-0.294 1.584-0.041 0.9-0.049 1.168-0.049 3.447s0.008 2.549 0.049 3.449c0.038 0.832 0.177 1.284 0.294 1.584 0.155 0.398 0.34 0.682 0.639 0.981s0.583 0.484 0.981 0.638c0.301 0.117 0.752 0.256 1.585 0.294 0.9 0.041 1.17 0.050 3.448 0.050s2.549-0.009 3.448-0.050c0.832-0.038 1.284-0.177 1.584-0.294 0.398-0.155 0.682-0.34 0.981-0.638s0.484-0.582 0.639-0.98c0.117-0.3 0.256-0.752 0.294-1.584 0.041-0.9 0.050-1.17 0.050-3.447s-0.009-2.548-0.050-3.447c-0.038-0.832-0.177-1.284-0.294-1.584-0.155-0.398-0.34-0.683-0.639-0.981s-0.582-0.484-0.981-0.638c-0.301-0.117-0.752-0.256-1.584-0.294-0.9-0.041-1.17-0.049-3.448-0.049l-0.284-0z"></path>
</symbol>
<symbol id="icon-viber" viewBox="0 0 32 32">
<path fill="#675da9" style="fill: var(--color3, #675da9)" d="M16 32c8.837 0 16-7.163 16-16s-7.163-16-16-16c-8.837 0-16 7.163-16 16s7.163 16 16 16z"></path>
<path fill="#675da9" style="fill: var(--color3, #675da9)" d="M4.571 0h22.857c2.525 0 4.571 2.047 4.571 4.571v22.857c0 2.525-2.047 4.571-4.571 4.571h-22.857c-2.525 0-4.571-2.047-4.571-4.571v-22.857c0-2.525 2.047-4.571 4.571-4.571z"></path>
<path fill="#fff" style="fill: var(--color2, #fff)" d="M24.985 11.977l-0.006-0.023c-0.454-1.85-2.5-3.835-4.379-4.248l-0.021-0.004c-3.039-0.585-6.12-0.585-9.159 0l-0.022 0.004c-1.878 0.413-3.924 2.398-4.379 4.248l-0.005 0.023c-0.561 2.584-0.561 5.204 0 7.787l0.005 0.023c0.435 1.771 2.329 3.665 4.137 4.186v2.065c0 0.747 0.903 1.114 1.417 0.575l2.075-2.175c0.45 0.025 0.9 0.040 1.351 0.040 1.53 0 3.060-0.146 4.579-0.438l0.021-0.004c1.879-0.413 3.925-2.398 4.379-4.248l0.006-0.023c0.561-2.584 0.561-5.204 0-7.787zM23.343 19.39c-0.303 1.207-1.856 2.707-3.091 2.985-1.616 0.31-3.245 0.442-4.872 0.397-0.032-0.001-0.064 0.012-0.086 0.035-0.231 0.239-1.515 1.568-1.515 1.568l-1.611 1.668c-0.118 0.124-0.325 0.040-0.325-0.131v-3.421c0-0.056-0.040-0.105-0.095-0.115l-0.001-0c-1.234-0.277-2.787-1.778-3.091-2.985-0.505-2.335-0.505-4.703 0-7.038 0.304-1.207 1.856-2.707 3.091-2.985 2.822-0.541 5.683-0.541 8.505 0 1.235 0.277 2.788 1.778 3.091 2.985 0.506 2.335 0.506 4.703 0 7.038z"></path>
<path fill="#fff" style="fill: var(--color2, #fff)" d="M18.685 20.969c-0.19-0.058-0.371-0.097-0.538-0.167-1.74-0.728-3.342-1.667-4.61-3.107-0.721-0.819-1.286-1.743-1.763-2.721-0.226-0.464-0.417-0.946-0.612-1.425-0.177-0.437 0.084-0.888 0.359-1.217 0.258-0.309 0.59-0.545 0.95-0.719 0.281-0.136 0.557-0.058 0.762 0.182 0.443 0.519 0.85 1.064 1.18 1.665 0.203 0.37 0.147 0.822-0.22 1.073-0.089 0.061-0.171 0.133-0.254 0.202-0.073 0.061-0.142 0.122-0.192 0.204-0.091 0.15-0.096 0.327-0.037 0.49 0.453 1.255 1.216 2.231 2.469 2.757 0.201 0.084 0.402 0.182 0.633 0.155 0.387-0.046 0.512-0.473 0.783-0.697 0.265-0.218 0.604-0.221 0.889-0.039s0.562 0.378 0.837 0.575c0.27 0.194 0.539 0.384 0.788 0.605 0.239 0.213 0.322 0.492 0.187 0.78-0.247 0.528-0.606 0.968-1.124 1.249-0.146 0.079-0.321 0.105-0.486 0.156 0.165-0.051-0.19-0.058 0 0zM16.005 11.007c2.276 0.064 4.146 1.588 4.547 3.857 0.068 0.387 0.093 0.782 0.123 1.174 0.013 0.165-0.080 0.322-0.257 0.324-0.183 0.002-0.265-0.152-0.276-0.317-0.023-0.327-0.040-0.655-0.084-0.979-0.236-1.71-1.588-3.124-3.276-3.428-0.254-0.046-0.514-0.058-0.771-0.085-0.163-0.017-0.376-0.027-0.412-0.231-0.030-0.171 0.113-0.307 0.274-0.316 0.044-0.002 0.088-0 0.132-0 2.276 0.064-0.044-0 0 0z"></path>
<path fill="#fff" style="fill: var(--color2, #fff)" d="M19.464 15.529c-0.004 0.029-0.006 0.096-0.022 0.16-0.060 0.23-0.407 0.259-0.487 0.027-0.024-0.069-0.027-0.148-0.027-0.222-0.001-0.486-0.106-0.972-0.349-1.395-0.25-0.435-0.632-0.8-1.080-1.021-0.271-0.134-0.564-0.217-0.86-0.266-0.13-0.022-0.261-0.035-0.391-0.053-0.158-0.022-0.242-0.124-0.235-0.281 0.007-0.147 0.114-0.253 0.273-0.244 0.522 0.030 1.027 0.144 1.491 0.392 0.944 0.504 1.484 1.3 1.641 2.363 0.007 0.048 0.019 0.096 0.022 0.144 0.009 0.119 0.015 0.239 0.024 0.396-0.004 0.029-0.009-0.157 0 0z"></path>
<path fill="#fff" style="fill: var(--color2, #fff)" d="M18.048 15.474c-0.19 0.003-0.292-0.103-0.312-0.279-0.014-0.123-0.024-0.247-0.053-0.367-0.057-0.235-0.181-0.453-0.377-0.597-0.093-0.068-0.198-0.118-0.308-0.15-0.14-0.041-0.285-0.029-0.424-0.064-0.151-0.037-0.235-0.161-0.211-0.304 0.022-0.13 0.147-0.232 0.289-0.222 0.883 0.064 1.513 0.524 1.603 1.572 0.006 0.074 0.014 0.152-0.002 0.223-0.028 0.121-0.117 0.182-0.203 0.188 0.087-0.006-0.19 0.003 0 0z"></path>
</symbol>
<symbol id="icon-facebook" viewBox="0 0 32 32">
<path fill="#3b5998" style="fill: var(--color4, #3b5998)" d="M0 16c0-8.837 7.163-16 16-16s16 7.163 16 16c0 8.837-7.163 16-16 16s-16-7.163-16-16z"></path>
<path fill="#3b5998" style="fill: var(--color4, #3b5998)" d="M4.571 0h22.857c2.525 0 4.571 2.047 4.571 4.571v22.857c0 2.525-2.047 4.571-4.571 4.571h-22.857c-2.525 0-4.571-2.047-4.571-4.571v-22.857c0-2.525 2.047-4.571 4.571-4.571z"></path>
<path fill="#fff" style="fill: var(--color2, #fff)" d="M17.668 25.408v-8.705h2.403l0.318-3h-2.721l0.004-1.501c0-0.782 0.074-1.202 1.198-1.202h1.502v-3h-2.403c-2.887 0-3.903 1.455-3.903 3.902v1.801h-1.799v3h1.799v8.704h3.602z"></path>
</symbol>
</defs>
</svg>
