<svg aria-hidden="true" style="position: absolute; width: 0; height: 0; overflow: hidden;" version="1.1" xmlns="http://www.w3.org/2000/svg" xmlns:xlink="http://www.w3.org/1999/xlink">
<defs>
<symbol id="icon-facebook" viewBox="0 0 32 32">
<path fill="#3b5998" style="fill: var(--color4, #3b5998)" d="M0 16c0-8.837 7.163-16 16-16s16 7.163 16 16c0 8.837-7.163 16-16 16s-16-7.163-16-16z"></path>
<path fill="#3b5998" style="fill: var(--color4, #3b5998)" d="M4.571 0h22.857c2.525 0 4.571 2.047 4.571 4.571v22.857c0 2.525-2.047 4.571-4.571 4.571h-22.857c-2.525 0-4.571-2.047-4.571-4.571v-22.857c0-2.525 2.047-4.571 4.571-4.571z"></path>
<path fill="#fff" style="fill: var(--color2, #fff)" d="M17.668 25.408v-8.705h2.403l0.318-3h-2.721l0.004-1.501c0-0.782 0.074-1.202 1.198-1.202h1.502v-3h-2.403c-2.887 0-3.903 1.455-3.903 3.902v1.801h-1.799v3h1.799v8.704h3.602z"></path>
</symbol>

<symbol id="icon-instagram" viewBox="0 0 32 32">
<path fill="#000" style="fill: var(--color1, #000)" d="M0 16c0-8.837 7.163-16 16-16s16 7.163 16 16c0 8.837-7.163 16-16 16s-16-7.163-16-16z"></path>
<path fill="#000" style="fill: var(--color1, #000)" d="M4.571 0h22.857c2.525 0 4.571 2.047 4.571 4.571v22.857c0 2.525-2.047 4.571-4.571 4.571h-22.857c-2.525 0-4.571-2.047-4.571-4.571v-22.857c0-2.525 2.047-4.571 4.571-4.571z"></path>
<path fill="#fff" style="fill: var(--color2, #fff)" d="M11.619 16c0-2.42 1.962-4.382 4.382-4.382s4.382 1.962 4.382 4.382-1.961 4.381-4.382 4.381c-2.42 0-4.382-1.961-4.382-4.381zM18.845 16c0-1.571-1.274-2.844-2.844-2.844s-2.845 1.273-2.845 2.844c0 1.571 1.273 2.844 2.845 2.844s2.844-1.274 2.844-2.844z"></path>
<path fill="#fff" style="fill: var(--color2, #fff)" d="M19.532 11.445c0-0.566 0.459-1.024 1.024-1.024s1.024 0.458 1.024 1.024c0 0.565-0.459 1.024-1.024 1.024s-1.024-0.459-1.024-1.024z"></path>
<path fill="#fff" style="fill: var(--color2, #fff)" d="M12.482 7.518c0.91-0.041 1.201-0.052 3.519-0.052h-0.003c2.318 0 2.608 0.010 3.518 0.052 0.908 0.042 1.529 0.185 2.073 0.396 0.562 0.218 1.036 0.509 1.511 0.984s0.766 0.95 0.985 1.512c0.21 0.543 0.354 1.163 0.397 2.071 0.041 0.91 0.052 1.201 0.052 3.519s-0.011 2.608-0.052 3.518c-0.043 0.908-0.187 1.528-0.397 2.071-0.219 0.561-0.51 1.037-0.985 1.512s-0.95 0.767-1.511 0.985c-0.543 0.211-1.164 0.355-2.072 0.396-0.91 0.041-1.2 0.052-3.518 0.052s-2.608-0.010-3.518-0.052c-0.908-0.042-1.528-0.185-2.072-0.396-0.561-0.218-1.037-0.51-1.511-0.985s-0.766-0.95-0.984-1.512c-0.211-0.543-0.355-1.163-0.396-2.071-0.041-0.91-0.052-1.2-0.052-3.518s0.011-2.609 0.051-3.519c0.041-0.908 0.185-1.528 0.396-2.071 0.219-0.561 0.51-1.037 0.985-1.511s0.95-0.766 1.512-0.984c0.543-0.211 1.163-0.355 2.071-0.396zM15.716 9.004c-0.173-0-0.333-0-0.481 0v-0.002c-1.59 0.002-1.895 0.012-2.683 0.048-0.832 0.038-1.284 0.177-1.585 0.294-0.398 0.155-0.683 0.34-0.981 0.639s-0.484 0.583-0.639 0.981c-0.117 0.301-0.256 0.752-0.294 1.584-0.041 0.9-0.049 1.168-0.049 3.447s0.008 2.549 0.049 3.449c0.038 0.832 0.177 1.284 0.294 1.584 0.155 0.398 0.34 0.682 0.639 0.981s0.583 0.484 0.981 0.638c0.301 0.117 0.752 0.256 1.585 0.294 0.9 0.041 1.17 0.050 3.448 0.050s2.549-0.009 3.448-0.050c0.832-0.038 1.284-0.177 1.584-0.294 0.398-0.155 0.682-0.34 0.981-0.638s0.484-0.582 0.639-0.98c0.117-0.3 0.256-0.752 0.294-1.584 0.041-0.9 0.050-1.17 0.050-3.447s-0.009-2.548-0.050-3.447c-0.038-0.832-0.177-1.284-0.294-1.584-0.155-0.398-0.34-0.683-0.639-0.981s-0.582-0.484-0.981-0.638c-0.301-0.117-0.752-0.256-1.584-0.294-0.9-0.041-1.17-0.049-3.448-0.049l-0.284-0z"></path>
</symbol>

<symbol id="icon-viber" viewBox="0 0 32 32">
<path fill="#675da9" style="fill: var(--color3, #675da9)" d="M16 32c8.837 0 16-7.163 16-16s-7.163-16-16-16c-8.837 0-16 7.163-16 16s7.163 16 16 16z"></path>
<path fill="#675da9" style="fill: var(--color3, #675da9)" d="M4.571 0h22.857c2.525 0 4.571 2.047 4.571 4.571v22.857c0 2.525-2.047 4.571-4.571 4.571h-22.857c-2.525 0-4.571-2.047-4.571-4.571v-22.857c0-2.525 2.047-4.571 4.571-4.571z"></path>
<path fill="#fff" style="fill: var(--color2, #fff)" d="M24.985 11.977l-0.006-0.023c-0.454-1.85-2.5-3.835-4.379-4.248l-0.021-0.004c-3.039-0.585-6.12-0.585-9.159 0l-0.022 0.004c-1.878 0.413-3.924 2.398-4.379 4.248l-0.005 0.023c-0.561 2.584-0.561 5.204 0 7.787l0.005 0.023c0.435 1.771 2.329 3.665 4.137 4.186v2.065c0 0.747 0.903 1.114 1.417 0.575l2.075-2.175c0.45 0.025 0.9 0.040 1.351 0.040 1.53 0 3.060-0.146 4.579-0.438l0.021-0.004c1.879-0.413 3.925-2.398 4.379-4.248l0.006-0.023c0.561-2.584 0.561-5.204 0-7.787zM23.343 19.39c-0.303 1.207-1.856 2.707-3.091 2.985-1.616 0.31-3.245 0.442-4.872 0.397-0.032-0.001-0.064 0.012-0.086 0.035-0.231 0.239-1.515 1.568-1.515 1.568l-1.611 1.668c-0.118 0.124-0.325 0.040-0.325-0.131v-3.421c0-0.056-0.040-0.105-0.095-0.115l-0.001-0c-1.234-0.277-2.787-1.778-3.091-2.985-0.505-2.335-0.505-4.703 0-7.038 0.304-1.207 1.856-2.707 3.091-2.985 2.822-0.541 5.683-0.541 8.505 0 1.235 0.277 2.788 1.778 3.091 2.985 0.506 2.335 0.506 4.703 0 7.038z"></path>
<path fill="#fff" style="fill: var(--color2, #fff)" d="M18.685 20.969c-0.19-0.058-0.371-0.097-0.538-0.167-1.74-0.728-3.342-1.667-4.61-3.107-0.721-0.819-1.286-1.743-1.763-2.721-0.226-0.464-0.417-0.946-0.612-1.425-0.177-0.437 0.084-0.888 0.359-1.217 0.258-0.309 0.59-0.545 0.95-0.719 0.281-0.136 0.557-0.058 0.762 0.182 0.443 0.519 0.85 1.064 1.18 1.665 0.203 0.37 0.147 0.822-0.22 1.073-0.089 0.061-0.171 0.133-0.254 0.202-0.073 0.061-0.142 0.122-0.192 0.204-0.091 0.15-0.096 0.327-0.037 0.49 0.453 1.255 1.216 2.231 2.469 2.757 0.201 0.084 0.402 0.182 0.633 0.155 0.387-0.046 0.512-0.473 0.783-0.697 0.265-0.218 0.604-0.221 0.889-0.039s0.562 0.378 0.837 0.575c0.27 0.194 0.539 0.384 0.788 0.605 0.239 0.213 0.322 0.492 0.187 0.78-0.247 0.528-0.606 0.968-1.124 1.249-0.146 0.079-0.321 0.105-0.486 0.156 0.165-0.051-0.19-0.058 0 0zM16.005 11.007c2.276 0.064 4.146 1.588 4.547 3.857 0.068 0.387 0.093 0.782 0.123 1.174 0.013 0.165-0.080 0.322-0.257 0.324-0.183 0.002-0.265-0.152-0.276-0.317-0.023-0.327-0.040-0.655-0.084-0.979-0.236-1.71-1.588-3.124-3.276-3.428-0.254-0.046-0.514-0.058-0.771-0.085-0.163-0.017-0.376-0.027-0.412-0.231-0.030-0.171 0.113-0.307 0.274-0.316 0.044-0.002 0.088-0 0.132-0 2.276 0.064-0.044-0 0 0z"></path>
<path fill="#fff" style="fill: var(--color2, #fff)" d="M19.464 15.529c-0.004 0.029-0.006 0.096-0.022 0.16-0.060 0.23-0.407 0.259-0.487 0.027-0.024-0.069-0.027-0.148-0.027-0.222-0.001-0.486-0.106-0.972-0.349-1.395-0.25-0.435-0.632-0.8-1.080-1.021-0.271-0.134-0.564-0.217-0.86-0.266-0.13-0.022-0.261-0.035-0.391-0.053-0.158-0.022-0.242-0.124-0.235-0.281 0.007-0.147 0.114-0.253 0.273-0.244 0.522 0.030 1.027 0.144 1.491 0.392 0.944 0.504 1.484 1.3 1.641 2.363 0.007 0.048 0.019 0.096 0.022 0.144 0.009 0.119 0.015 0.239 0.024 0.396-0.004 0.029-0.009-0.157 0 0z"></path>
<path fill="#fff" style="fill: var(--color2, #fff)" d="M18.048 15.474c-0.19 0.003-0.292-0.103-0.312-0.279-0.014-0.123-0.024-0.247-0.053-0.367-0.057-0.235-0.181-0.453-0.377-0.597-0.093-0.068-0.198-0.118-0.308-0.15-0.14-0.041-0.285-0.029-0.424-0.064-0.151-0.037-0.235-0.161-0.211-0.304 0.022-0.13 0.147-0.232 0.289-0.222 0.883 0.064 1.513 0.524 1.603 1.572 0.006 0.074 0.014 0.152-0.002 0.223-0.028 0.121-0.117 0.182-0.203 0.188 0.087-0.006-0.19 0.003 0 0z"></path>
</symbol>

<symbol id="icon-scroll-down" viewBox="0 0 50 32">
<path d="M24.889 29.202l21.369-21.369-5.024-5.031-16.345 16.356-16.341-16.356-5.028 5.028 21.369 21.372z"></path>
</symbol>

<symbol id="icon-hero-img" viewBox="0 0 33 32">
<path fill="#553e93" style="fill: var(--color1, #553e93)" d="M23.646 24.988c3.873-3.873 3.873-10.151 0-14.024s-10.154-3.873-14.027 0c-3.874 3.873-3.873 10.151 0 14.024s10.154 3.873 14.027 0z"></path>
<path fill="#786ab5" style="fill: var(--color2, #786ab5)" d="M17.518 8.099c0.040 0.027 0.082 0.053 0.126 0.080 0.004-0.029 2.090 0.632 2.304 0.73 0.619 0.283 1 0.385 0.321 0.599 0.294-0.093 0.962 1.72 1.429 1.645 0.456-0.073 0.59 0.44 0.71 0.792 0.064 0.186 0.263 0.296 0.188 0.52-0.024 0.071-0.349 0.217-0.325 0.265 0.137 0.259 0.759 0.29 0.763 0.672-0.060 0.095-0.15 0.142-0.274 0.137-0.288 0.117-0.015 0.349 0.040 0.531 0.133 0.436 0.551 0.822 0.851 0.327 0.303-0.497-0.391-0.986 0.031-1.495 0.248-0.298 0.907 0.237 0.75-0.332-0.044-0.164-0.732-0.884-0.352-0.991 0.018-0.004 0.031-0.042 0.040-0.104-1.128-1.302-2.612-2.326-4.366-2.908-0.739-0.248-1.491-0.402-2.236-0.469z"></path>
<path fill="#786ab5" style="fill: var(--color2, #786ab5)" d="M25.459 13.457c-0.049-0.093-0.537 0.444-0.639 0.502-0.372 0.206-0.453-0.199-0.765 0.228-0.055 0.075-0.619 0.822-0.621 0.741 0.011 0.279-0.104 0.553 0.029 0.82 0.119 0.239-0.161 0.455-0.146 0.708 0.022 0.332-0.281 0.557-0.203 0.887 0.066 0.285 0.239 0.495 0.239 0.798 0 0.484-0.086 0.705 0.303 1.052 0.25 0.223 0.577 0.995 1.017 0.559 0.082-0.080 0.885-0.723 0.838-0.774 0.285 0.303 0.033 0.104 0.44 0.086 0.111-0.004-0.082 2.79-0.25 2.726 0.027 0.011 0.058 0.007 0.093-0.007 0.093-0.221 0.177-0.449 0.254-0.681 0.871-2.629 0.582-5.362-0.588-7.646z"></path>
<path fill="#786ab5" style="fill: var(--color2, #786ab5)" d="M20.817 22.743c0.002-0.285-0.531-0.553-0.82-0.54-0.621 0.024-0.785-0.175-1.362-0.325-0.484-0.126-0.409-0.951-1.146-0.986-0.391-0.020-1.13-1.083-1.517-0.765-0.257 0.21-0.748-0.354-0.92-0.356-0.396-0.004-0.075 0.23-0.334-0.064-0.17-0.195-0.639 0.214-0.736 0.329-0.192 0.223-1.026-0.113-1.154-0.433-0.046-0.115 0.221-0.573 0.022-0.898-0.075-0.126-0.628-0.033-0.714-0.117-0.115-0.113 0.296-0.524 0.25-0.61-0.192-0.358-0.825 0.54-1.101-0.181-0.223-0.586 0.069-0.807 0.126-1.371 0.027-0.265 0.48-0.396 0.699-0.301 0.352 0.155 0.305 0.011 0.573-0.018 0.21-0.022 0.436 0.217 0.637 0.252 0.239 0.042 0.075 0.714 0.301 0.876 0.13 0.093 0.128-0.904 0.137-0.929 0.144-0.405 0.77-0.367 0.871-0.708 0.248-0.838 0.814-0.774 1.502-1.070 0.327-0.142 1.137-0.305 1.34-0.626 0.383-0.597-0.621-1.49-0.882-1.912-0.002-0.004-0.232 0.259-0.285 0.261-0.195 0.009-0.376-1.088-0.748-0.458-0.071 0.119-0.343 0.155-0.192 0.332 0.296 0.345-0.279 0.429-0.458 0.378-0.181-0.049-1.075-0.566-0.761-0.856 0.641-0.588 0.785-0.283 1.451-0.287 0.761-0.002 0.79 0.712 1.42-0.053 0.175-0.212-0.964-0.818-0.739-1.086 0.796-0.951 1.232 1.161 1.53 1.526 0.436 0.535 0.717 0.252 0.681-0.338-0.015-0.279 0.575-0.537 0.617-0.838 0.009-0.062-0.383-0.615-0.44-0.652-0.206-0.133-0.252-0.272-0.358-0.402-0.133-0.166-0.341 0.082-0.46-0.066-0.055-0.069-1.055-0.031-1.161-0.029-0.524-0.020-1.112-0.002-1.643 0.004-0.217-0.009-1.367 0.553-1.398 0.093-0.015-0.228 0.259-0.628-0.23-0.442-0.157 0.060-0.254-0.029-0.223-0.035-0.336 0.069-0.966 0.303-1.236 0.546-0.15 0.135 0.208 0.197 0.232 0.312 0.046 0.221-0.513 0.635-0.637 0.778-0.445 0.513-0.425 1.194-1.024 1.691-0.692 0.575-0.73 1.417-0.736 2.211-0.002 0.385-0.334 0.546-0.124 0.982 0.177 0.371 0.509 0.551 0.564 1.002 0.035 0.296-0.197 0.57-0.084 0.86 0.137 0.356 0.4 0.67 0.721 0.838 0.686 0.36 1.135 0.63 1.575 1.289 0.544 0.818 1.517 0.46 1.199 1.287-0.135 0.347-0.476 0.513-0.615 0.884-0.168 0.444 0.155 0.767 0.361 1.128 0.208 0.365 0.285 0.8 0.65 1.048 0.261 0.177 0.739 0.325 0.805 0.685 0.106 0.575-0.378 1.291-0.325 1.817 0.035 0.354 0.042 0.716 0.349 0.949 0.555 0.416 0.422-0.164 0.767-0.438 0.323-0.256 0.703-0.181 1.073-0.283 0.338-0.093-0.064-0.219 0.073-0.294 0.29-0.164 0.462 0.082 0.741-0.166 0.252-0.226 0.593-0.292 0.712-0.646 0.192-0.579 1.066-0.367 1.429-0.818 0.223-0.276 0.321-0.573 0.422-0.909 0.122-0.416 0.732-0.606 0.736-1.052 0.002-0.299-0.004 0.298 0 0z"></path>
<path fill="#fdad9b" style="fill: var(--color3, #fdad9b)" d="M14.744 4.814c-0.115 0.203-1.276 1.986-1.033 3.728l1.263-0.453 0.577-2.348-0.807-0.926z"></path>
<path fill="#ff8548" style="fill: var(--color4, #ff8548)" d="M19.791 4.084c0 0-0.776-1.38-2.667-0.997-1.891 0.38-2.921 3.060-2.408 8.367 0 0 3.003-1.183 6.907-0.23 0-0.002-0.641-5.141-1.831-7.139z"></path>
<path fill="#ff8548" style="fill: var(--color4, #ff8548)" d="M21.233 3.527l-1.329 1.313c0 0-3.406 0.911-4.352 0.9s-1.318-0.696-1.318-0.696c0 0 0.798-1.251 2.415-1.817 0.153-0.053 0.31-0.099 0.478-0.139 0.279-0.066 0.562-0.104 0.845-0.122 1.67-0.099 3.262 0.562 3.262 0.562z"></path>
<path fill="#66192d" style="fill: var(--color5, #66192d)" d="M21.233 3.527c0.212 0.228-0.115 0.478-0.482 0.84s-0.745 0.575-0.847 0.473c-0.102-0.102 0.115-0.478 0.482-0.84 0.367-0.365 0.75-0.579 0.847-0.473z"></path>
<path fill="#fdad9b" style="fill: var(--color3, #fdad9b)" d="M20.081 4.845c0 0-0.020-0.263 0.314-0.597 0.201-0.201 0.453-0.334 0.624-0.407 0.102-0.044 0.219 0.004 0.259 0.108l0.106 0.272-0.495 0.316-0.807 0.307z"></path>
<path fill="#ffd00e" style="fill: var(--color6, #ffd00e)" d="M17.734 9.709c0 0 4.098-2.2 5.569 0.199 1.088 1.775-0.546 3.429-6.61 3.261 0 0-0.599-0.279-0.453-1.72 0.055-0.568 1.495-1.74 1.495-1.74z"></path>
<path fill="#ffd00e" style="fill: var(--color6, #ffd00e)" d="M17.734 9.709c0 0-5.458-2.213-6.54-0.829-1.241 1.59-0.051 4.292 5.704 3.325l0.701-0.754 0.135-1.742z"></path>
<path fill="#66192d" style="fill: var(--color5, #66192d)" d="M16.202 11.847c0 0-1.006 0.040-1.48 0.27s-0.221 0.789 0.739 0.774c0.96-0.015 0.887-0.157 0.887-0.157s-0.181-0.489-0.146-0.887z"></path>
<path fill="#020202" style="fill: var(--color7, #020202)" d="M16.684 13.18c-0.672-0.475-0.46-1.718-0.458-1.731l0.002-0.007 0.007-0.002 4.144-1.492 0.009 0.022-4.138 1.49c-0.015 0.097-0.186 1.251 0.449 1.702l-0.015 0.018z"></path>
<path fill="#fdad9b" style="fill: var(--color3, #fdad9b)" d="M17.489 9.815c-0.334 0-0.606-0.084-0.829-0.25-0.42-0.314-0.498-0.811-0.436-1.145l0.4-0.23c0.020-0.108 0.794 0.296 0.792 0.296 0.004 0.002 0.369 0.106 1.637-0.535 0.882-0.447 1.327-1.081 1.36-1.939 0.024-0.646-0.268-1.010-0.336-1.167-0.009-0.020 0.427-0.453 0.414-0.497l0.327-0.164c-0.011-0.038 0.314-0.164 0.31-0.175l0.252 0.212c0.124 0.285 0.389 0.94 0.356 1.842-0.035 0.937-0.427 2.229-2.085 3.069-0.9 0.456-1.61 0.683-2.161 0.683z"></path>
<path fill="#66192d" style="fill: var(--color5, #66192d)" d="M17.221 9.868h-3.538c-0.073 0-0.139-0.046-0.164-0.115l-0.734-2.173c-0.038-0.111 0.046-0.223 0.164-0.223h3.401c0.155 0 0.292 0.097 0.341 0.243l0.692 2.047c0.038 0.108-0.044 0.221-0.161 0.221z"></path>
<path fill="#66192d" style="fill: var(--color5, #66192d)" d="M16.998 9.868h-3.536c-0.075 0-0.139-0.046-0.164-0.115l-0.734-2.173c-0.038-0.111 0.046-0.223 0.164-0.223h3.401c0.155 0 0.292 0.097 0.341 0.243l0.692 2.047c0.038 0.108-0.046 0.221-0.164 0.221z"></path>
<path fill="#deebe9" style="fill: var(--color8, #deebe9)" d="M14.521 8.539c0-0.082 0.095-0.117 0.179-0.117s0.221 0.091 0.221 0.206c0 0.124-0.1 0.142-0.184 0.142-0.084 0.002-0.217-0.124-0.217-0.23z"></path>
<path fill="#66192d" style="fill: var(--color5, #66192d)" d="M18.301 9.561h-4.841v0.307h4.943c0.058 0 0.104-0.046 0.104-0.104-0.002-0.113-0.093-0.203-0.206-0.203z"></path>
<path fill="#66192d" style="fill: var(--color5, #66192d)" d="M16.748 8.455c-0.002-0.007-0.175-0.65-0.288-0.851-0.111-0.197-0.248-0.237-0.248-0.237l0.007-0.022c0.007 0.002 0.148 0.042 0.263 0.248 0.113 0.203 0.283 0.829 0.29 0.856l-0.024 0.007z"></path>
<path fill="#66192d" style="fill: var(--color5, #66192d)" d="M17.27 9.572c-0.131 0-0.164-0.057-0.166-0.060v-0.002l-0.276-0.816 0.022-0.007 0.274 0.814c0.004 0.004 0.035 0.046 0.144 0.046v0.024h0.002z"></path>
<path fill="#f18c7e" style="fill: var(--color9, #f18c7e)" d="M20.669 7.931c-0.020 0-0.040-0.004-0.058-0.015-0.086-0.051-0.084-0.21 0.004-0.367 0.042-0.073 0.095-0.13 0.153-0.168 0.062-0.038 0.119-0.046 0.161-0.020 0.086 0.051 0.084 0.21-0.004 0.367-0.071 0.124-0.172 0.203-0.257 0.203zM20.877 7.394c-0.024 0-0.051 0.009-0.082 0.029-0.051 0.031-0.1 0.086-0.137 0.15-0.075 0.128-0.084 0.268-0.022 0.303s0.177-0.042 0.252-0.17 0.084-0.268 0.022-0.303c-0.009-0.007-0.022-0.009-0.033-0.009z"></path>
<path fill="#fdad9b" style="fill: var(--color3, #fdad9b)" d="M17.998 2.961c-0.232-0.007-0.409-0.031-0.542-0.186l-1.241-1.446 0.666 1.727c0.049 0.124-0.015 0.181-0.060 0.327-0.018 0.060-0.139 0.422 0.177 0.425 0.396 0.002 0.898-0.453 1.006-0.847-0.002 0-0.004 0-0.007 0z"></path>
<path fill="#66192d" style="fill: var(--color5, #66192d)" d="M17.157 1.984c0 0 0.781-0.743 0.329-1.369-0.449-0.626-0.562 1.006-0.562 1.006l0.126 0.378 0.106-0.015z"></path>
<path fill="#66192d" style="fill: var(--color5, #66192d)" d="M17.038 2.278c0.002 0.004 0.002 0.011 0.004 0.018 0.073 0.325-0.23 0.579-0.23 0.579l-0.002-0.002-0.223-0.579c0.095-0.071 0.234-0.155 0.336-0.139 0.051 0.007 0.095 0.044 0.115 0.124z"></path>
<path fill="#fdad9b" style="fill: var(--color3, #fdad9b)" d="M15.388 1.873c-0.177-0.579 0.071-1.167 0.553-1.313 0.48-0.146 1.013 0.206 1.19 0.785s-0.071 1.167-0.553 1.313c-0.482 0.148-1.015-0.203-1.19-0.785z"></path>
<path fill="#66192d" style="fill: var(--color5, #66192d)" d="M16.965 1.263c0 0-0.248 0.179-0.456 0.029s-0.356-0.294-0.82-0.062c-0.467 0.232-0.975 0.128-1.070-0.133s0.128-0.462 0.42-0.449c0.292 0.013-0.062-0.146 0.142-0.42s0.721 0.009 0.975-0.128c0.257-0.137 1.168-0.254 1.331 0.52l-0.522 0.643z"></path>
<path fill="#fdad9b" style="fill: var(--color3, #fdad9b)" d="M17.159 1.418c-0.060 0.091-0.175 0.122-0.257 0.069s-0.1-0.17-0.040-0.263c0.060-0.091 0.175-0.122 0.257-0.069s0.1 0.17 0.040 0.263z"></path>
<path fill="#fff" style="fill: var(--color10, #fff)" d="M15.131 1.004c-0.018 0-0.033-0.002-0.051-0.007-0.104-0.027-0.135-0.082-0.126-0.124 0.009-0.049 0.069-0.095 0.161-0.086 0.139 0.013 0.215-0.033 0.217-0.033l0.018 0.029c-0.004 0.002-0.086 0.053-0.237 0.038-0.069-0.007-0.119 0.024-0.124 0.057-0.007 0.035 0.033 0.066 0.102 0.084 0.179 0.044 0.489-0.232 0.493-0.234l0.022 0.024c-0.015 0.015-0.281 0.252-0.475 0.252z"></path>
<path fill="#fff" style="fill: var(--color10, #fff)" d="M15.936 0.356c-0.19 0-0.358-0.082-0.374-0.097l0.027-0.022-0.013 0.011 0.011-0.011c0.018 0.015 0.294 0.148 0.531 0.055 0.080-0.031 0.148-0.066 0.217-0.102 0.137-0.073 0.257-0.135 0.394-0.108l-0.007 0.033c-0.124-0.024-0.239 0.035-0.372 0.104-0.069 0.035-0.139 0.073-0.219 0.104-0.064 0.022-0.131 0.033-0.195 0.033z"></path>
<path fill="#fff" style="fill: var(--color10, #fff)" d="M17.25 0.575c-0.051 0-0.144-0.077-0.168-0.126-0.018-0.035 0-0.053 0.009-0.057 0.069-0.042 0.166 0.091 0.186 0.117l0.002 0.002v0.002c0.011 0.042-0.007 0.055-0.018 0.060 0 0.002-0.004 0.002-0.011 0.002zM17.122 0.418c-0.004 0-0.009 0-0.011 0.002s0.002 0.022 0.035 0.055c0.046 0.046 0.093 0.069 0.104 0.066 0 0 0-0.004-0.002-0.015-0.033-0.049-0.091-0.108-0.126-0.108z"></path>
<path fill="#66192d" style="fill: var(--color5, #66192d)" d="M22.624 11.292c-0.069 0-0.133-0.018-0.192-0.051-0.099-0.057-0.168-0.157-0.19-0.279s0.002-0.252 0.066-0.365c0.137-0.237 0.416-0.334 0.619-0.217 0.206 0.119 0.261 0.407 0.124 0.646-0.066 0.115-0.166 0.199-0.283 0.241-0.046 0.018-0.097 0.024-0.144 0.024zM22.737 10.377c-0.146 0-0.301 0.088-0.389 0.243-0.060 0.104-0.082 0.223-0.062 0.334 0.020 0.108 0.080 0.197 0.168 0.248s0.195 0.057 0.299 0.022c0.106-0.038 0.197-0.115 0.259-0.221 0.124-0.214 0.077-0.478-0.106-0.581-0.051-0.031-0.108-0.044-0.168-0.044z"></path>
<path fill="#66192d" style="fill: var(--color5, #66192d)" d="M16.821 4.243l-0.002-0.057c1.015-0.029 1.382-0.9 1.387-0.909l0.053 0.022c-0.004 0.009-0.095 0.232-0.318 0.462-0.208 0.212-0.571 0.467-1.119 0.482z"></path>
<path fill="#66192d" style="fill: var(--color5, #66192d)" d="M17.305 4.732l-0.031-0.049c0.004-0.002 0.524-0.332 0.59-0.92l0.058 0.007c-0.071 0.615-0.613 0.957-0.617 0.962z"></path>
<path fill="#66192d" style="fill: var(--color5, #66192d)" d="M15.139 4.991l-0.209 0.63 0.055 0.018 0.209-0.63-0.055-0.018z"></path>
<path fill="#ff8548" style="fill: var(--color4, #ff8548)" d="M13.059 7.124c-0.011 0-0.022-0.004-0.029-0.013-0.044-0.058-0.093-0.115-0.139-0.17-0.013-0.015-0.011-0.040 0.004-0.053s0.040-0.011 0.053 0.004c0.049 0.055 0.095 0.115 0.142 0.172 0.013 0.016 0.009 0.040-0.007 0.051-0.009 0.004-0.015 0.009-0.024 0.009z"></path>
<path fill="#ff8548" style="fill: var(--color4, #ff8548)" d="M8.006 23.612c-0.020 0-0.038-0.015-0.038-0.038 0-0.020 0.015-0.038 0.038-0.038 0.144-0.002 0.292-0.004 0.44-0.011 0.020-0.002 0.038 0.015 0.038 0.035s-0.015 0.038-0.035 0.038c-0.148 0.009-0.299 0.013-0.442 0.013zM7.566 23.61c-0.148-0.004-0.299-0.011-0.442-0.020-0.020-0.002-0.035-0.018-0.035-0.040 0.002-0.020 0.020-0.035 0.040-0.035 0.144 0.009 0.292 0.015 0.438 0.018 0.020 0 0.038 0.018 0.035 0.038 0 0.024-0.016 0.040-0.035 0.040zM8.886 23.576c-0.020 0-0.035-0.015-0.038-0.033-0.002-0.020 0.013-0.038 0.033-0.040 0.144-0.011 0.292-0.024 0.438-0.038 0.020-0.002 0.038 0.013 0.040 0.033s-0.013 0.038-0.033 0.040c-0.146 0.015-0.294 0.029-0.44 0.038zM6.686 23.554c-0.002 0-0.002 0-0.004 0-0.148-0.015-0.294-0.033-0.438-0.053-0.020-0.002-0.033-0.022-0.031-0.042s0.022-0.033 0.042-0.031c0.141 0.020 0.29 0.038 0.436 0.053 0.020 0.002 0.035 0.020 0.033 0.040s-0.018 0.033-0.038 0.033zM9.762 23.486c-0.018 0-0.033-0.013-0.038-0.033-0.002-0.020 0.011-0.040 0.031-0.042 0.144-0.018 0.29-0.040 0.436-0.062 0.020-0.002 0.040 0.011 0.042 0.031s-0.011 0.040-0.031 0.042c-0.146 0.022-0.292 0.044-0.438 0.062 0 0.002-0.002 0.002-0.002 0.002zM5.814 23.431c-0.002 0-0.004 0-0.007 0-0.146-0.027-0.292-0.058-0.433-0.091-0.020-0.004-0.033-0.024-0.027-0.044 0.004-0.020 0.024-0.033 0.044-0.027 0.139 0.033 0.285 0.064 0.429 0.091 0.020 0.004 0.033 0.022 0.029 0.042-0.002 0.018-0.018 0.029-0.035 0.029zM10.631 23.351c-0.018 0-0.033-0.013-0.035-0.031-0.004-0.020 0.009-0.040 0.029-0.042 0.142-0.027 0.287-0.055 0.431-0.084 0.020-0.004 0.040 0.009 0.044 0.029s-0.009 0.040-0.029 0.044c-0.144 0.031-0.29 0.058-0.433 0.084-0.002 0-0.004 0-0.007 0zM4.958 23.227c-0.004 0-0.007 0-0.011-0.002-0.142-0.042-0.283-0.086-0.422-0.133-0.020-0.007-0.029-0.029-0.022-0.046 0.007-0.020 0.029-0.029 0.046-0.022 0.137 0.046 0.276 0.091 0.418 0.133 0.020 0.007 0.031 0.027 0.024 0.046-0.002 0.015-0.018 0.024-0.033 0.024zM11.493 23.172c-0.018 0-0.031-0.011-0.035-0.029-0.004-0.020 0.009-0.040 0.027-0.044 0.142-0.033 0.285-0.069 0.427-0.104 0.020-0.004 0.040 0.007 0.044 0.027s-0.007 0.040-0.027 0.044c-0.142 0.035-0.287 0.071-0.429 0.104 0 0.002-0.004 0.002-0.007 0.002zM12.347 22.953c-0.015 0-0.031-0.011-0.035-0.027-0.004-0.020 0.007-0.040 0.027-0.046 0.142-0.040 0.283-0.082 0.422-0.124 0.020-0.007 0.040 0.004 0.046 0.024s-0.004 0.040-0.024 0.046c-0.139 0.042-0.283 0.084-0.425 0.124-0.004 0.002-0.007 0.002-0.011 0.002zM4.127 22.94c-0.004 0-0.009 0-0.013-0.002-0.137-0.055-0.272-0.115-0.405-0.179-0.018-0.009-0.027-0.031-0.018-0.049s0.031-0.027 0.049-0.018c0.13 0.062 0.265 0.122 0.4 0.177 0.020 0.007 0.029 0.029 0.020 0.049-0.007 0.013-0.020 0.022-0.033 0.022zM13.19 22.697c-0.015 0-0.031-0.009-0.035-0.024-0.007-0.020 0.004-0.040 0.024-0.046 0.142-0.046 0.281-0.095 0.416-0.144 0.020-0.007 0.040 0.002 0.046 0.022s-0.002 0.040-0.022 0.046c-0.135 0.049-0.276 0.097-0.418 0.144-0.002 0.002-0.007 0.002-0.011 0.002zM3.331 22.562c-0.007 0-0.011-0.002-0.018-0.004-0.128-0.071-0.257-0.146-0.38-0.226-0.018-0.011-0.022-0.033-0.011-0.051s0.033-0.022 0.051-0.011c0.122 0.077 0.25 0.153 0.378 0.223 0.018 0.009 0.024 0.033 0.015 0.051-0.009 0.011-0.022 0.018-0.035 0.018zM2.588 22.093c-0.007 0-0.015-0.002-0.022-0.007-0.119-0.086-0.237-0.177-0.352-0.27-0.015-0.013-0.018-0.035-0.004-0.053 0.013-0.015 0.035-0.018 0.051-0.004 0.113 0.093 0.23 0.181 0.347 0.265 0.015 0.011 0.020 0.035 0.009 0.051-0.007 0.013-0.018 0.018-0.029 0.018zM1.906 21.536c-0.009 0-0.018-0.002-0.024-0.009-0.029-0.027-0.055-0.051-0.082-0.077-0.080-0.075-0.159-0.155-0.232-0.232-0.013-0.015-0.013-0.038 0-0.053 0.015-0.013 0.038-0.013 0.053 0 0.073 0.077 0.153 0.155 0.23 0.23 0.027 0.027 0.055 0.051 0.082 0.077 0.015 0.013 0.016 0.038 0.002 0.053-0.009 0.009-0.020 0.011-0.029 0.011zM1.296 20.901c-0.011 0-0.020-0.004-0.029-0.013-0.095-0.115-0.188-0.232-0.272-0.349-0.011-0.015-0.009-0.040 0.009-0.051 0.015-0.011 0.040-0.009 0.051 0.009 0.084 0.115 0.175 0.232 0.27 0.345 0.013 0.015 0.011 0.040-0.004 0.053-0.007 0.004-0.015 0.007-0.024 0.007zM0.781 20.189c-0.013 0-0.024-0.007-0.031-0.018-0.077-0.126-0.15-0.256-0.217-0.387-0.009-0.018-0.002-0.040 0.015-0.049s0.040-0.002 0.049 0.015c0.064 0.128 0.137 0.256 0.215 0.38 0.011 0.018 0.004 0.040-0.011 0.051-0.007 0.004-0.013 0.007-0.020 0.007zM0.383 19.406c-0.015 0-0.029-0.009-0.035-0.022-0.055-0.137-0.104-0.279-0.146-0.418-0.007-0.020 0.004-0.040 0.024-0.046s0.040 0.004 0.046 0.024c0.042 0.137 0.091 0.276 0.144 0.411 0.007 0.020-0.002 0.040-0.020 0.049-0.004 0-0.009 0.002-0.013 0.002zM0.13 18.564c-0.018 0-0.033-0.011-0.035-0.029-0.029-0.144-0.051-0.292-0.066-0.438-0.002-0.020 0.013-0.038 0.033-0.040s0.038 0.013 0.040 0.033c0.015 0.144 0.038 0.29 0.066 0.431 0.004 0.020-0.009 0.040-0.029 0.044-0.004-0.002-0.007-0.002-0.009-0.002zM0.038 17.689c-0.020 0-0.038-0.015-0.038-0.038 0-0.013 0-0.027 0-0.040 0-0.135 0.007-0.27 0.018-0.405 0.002-0.020 0.020-0.035 0.040-0.033s0.035 0.020 0.033 0.040c-0.011 0.133-0.018 0.265-0.018 0.398 0 0.013 0 0.027 0 0.038 0.002 0.024-0.013 0.040-0.035 0.040zM0.113 16.813c-0.002 0-0.004 0-0.007 0-0.020-0.004-0.033-0.022-0.029-0.042 0.027-0.144 0.060-0.29 0.097-0.433 0.004-0.020 0.027-0.031 0.046-0.027s0.031 0.027 0.027 0.046c-0.038 0.139-0.071 0.283-0.097 0.427-0.004 0.018-0.020 0.029-0.038 0.029zM3.236 16.811c-0.102 0-0.203-0.007-0.305-0.020-0.020-0.002-0.035-0.020-0.033-0.042 0.002-0.020 0.022-0.035 0.042-0.033 0.144 0.018 0.29 0.022 0.433 0.013 0.020-0.002 0.038 0.013 0.040 0.035 0.002 0.020-0.013 0.038-0.035 0.040-0.049 0.007-0.095 0.007-0.142 0.007zM3.808 16.738c-0.015 0-0.031-0.011-0.035-0.027-0.004-0.020 0.007-0.040 0.027-0.044 0.142-0.038 0.279-0.091 0.402-0.155 0.018-0.009 0.040-0.002 0.051 0.015 0.009 0.018 0.002 0.040-0.015 0.051-0.128 0.069-0.27 0.122-0.418 0.161-0.004-0.002-0.009-0.002-0.011-0.002zM2.506 16.7c-0.004 0-0.007 0-0.011-0.002-0.142-0.044-0.281-0.099-0.414-0.166-0.018-0.009-0.027-0.031-0.015-0.049 0.009-0.018 0.031-0.027 0.049-0.015 0.13 0.064 0.265 0.119 0.402 0.161 0.020 0.007 0.031 0.027 0.024 0.046-0.007 0.015-0.020 0.024-0.035 0.024zM4.578 16.329c-0.009 0-0.020-0.004-0.027-0.011-0.013-0.015-0.013-0.038 0.002-0.053 0.106-0.1 0.197-0.21 0.268-0.334 0.011-0.018 0.033-0.024 0.051-0.013s0.024 0.033 0.013 0.051c-0.075 0.128-0.168 0.245-0.281 0.349-0.009 0.007-0.018 0.011-0.027 0.011zM1.721 16.311c-0.007 0-0.015-0.002-0.022-0.007-0.119-0.086-0.234-0.181-0.341-0.285-0.015-0.013-0.015-0.038 0-0.053 0.013-0.015 0.038-0.015 0.053 0 0.104 0.102 0.217 0.197 0.332 0.279 0.015 0.011 0.020 0.035 0.009 0.051-0.009 0.009-0.020 0.015-0.031 0.015zM0.347 15.966c-0.004 0-0.009 0-0.013-0.002-0.020-0.007-0.029-0.029-0.022-0.046 0.051-0.137 0.108-0.274 0.172-0.409 0.009-0.018 0.031-0.027 0.049-0.018s0.027 0.031 0.018 0.049c-0.062 0.13-0.119 0.268-0.17 0.402-0.004 0.015-0.020 0.024-0.033 0.024zM1.090 15.701c-0.011 0-0.022-0.004-0.029-0.013-0.088-0.115-0.172-0.239-0.25-0.367-0.011-0.018-0.004-0.040 0.013-0.051s0.040-0.004 0.051 0.013c0.075 0.126 0.157 0.248 0.246 0.36 0.013 0.015 0.009 0.040-0.007 0.051-0.009 0.002-0.015 0.007-0.024 0.007zM5.009 15.579c-0.002 0-0.004 0-0.009 0-0.020-0.004-0.033-0.024-0.029-0.044 0.022-0.104 0.033-0.212 0.033-0.323 0-0.035 0-0.069-0.002-0.104-0.002-0.020 0.013-0.038 0.035-0.040 0.020-0.002 0.038 0.013 0.040 0.035 0.002 0.035 0.004 0.073 0.004 0.108 0 0.115-0.011 0.23-0.035 0.338-0.004 0.015-0.020 0.029-0.038 0.029zM0.723 15.172c-0.007 0-0.013-0.002-0.018-0.004-0.018-0.011-0.024-0.033-0.013-0.051 0.075-0.128 0.155-0.252 0.241-0.371 0.011-0.018 0.035-0.020 0.051-0.009 0.018 0.011 0.020 0.035 0.009 0.051-0.084 0.117-0.164 0.241-0.237 0.367-0.007 0.011-0.020 0.018-0.033 0.018zM0.641 14.947c-0.013 0-0.027-0.009-0.033-0.022-0.060-0.13-0.113-0.27-0.161-0.413-0.007-0.020 0.004-0.040 0.024-0.046s0.040 0.004 0.046 0.024c0.046 0.139 0.102 0.276 0.159 0.407 0.009 0.018 0 0.040-0.018 0.049-0.007 0-0.013 0.002-0.018 0.002zM4.965 14.708c-0.016 0-0.031-0.011-0.035-0.027s-0.009-0.031-0.013-0.044c-0.040-0.128-0.086-0.25-0.137-0.363-0.009-0.018 0-0.040 0.018-0.049s0.040 0 0.049 0.018c0.053 0.115 0.1 0.239 0.142 0.371 0.004 0.015 0.009 0.031 0.013 0.046 0.007 0.020-0.007 0.040-0.024 0.046-0.004 0-0.009 0-0.011 0zM1.234 14.456c-0.009 0-0.018-0.002-0.024-0.009-0.015-0.013-0.018-0.038-0.004-0.053 0.097-0.113 0.201-0.221 0.305-0.323 0.015-0.013 0.038-0.013 0.053 0.002 0.013 0.015 0.013 0.038-0.002 0.053-0.104 0.099-0.203 0.206-0.301 0.316-0.004 0.009-0.015 0.013-0.027 0.013zM0.358 14.113c-0.018 0-0.031-0.011-0.035-0.029-0.033-0.139-0.064-0.285-0.088-0.433-0.002-0.020 0.011-0.040 0.031-0.042 0.020-0.004 0.040 0.011 0.042 0.031 0.024 0.146 0.053 0.29 0.086 0.429 0.004 0.020-0.007 0.040-0.027 0.044-0.002 0-0.004 0-0.009 0zM4.593 13.914c-0.011 0-0.022-0.004-0.031-0.015-0.086-0.122-0.186-0.228-0.29-0.316-0.015-0.013-0.018-0.035-0.004-0.053 0.013-0.015 0.035-0.018 0.053-0.004 0.111 0.093 0.212 0.203 0.303 0.329 0.011 0.018 0.009 0.040-0.009 0.051-0.009 0.007-0.015 0.009-0.022 0.009zM1.871 13.85c-0.011 0-0.022-0.004-0.029-0.015-0.013-0.015-0.009-0.040 0.007-0.051 0.122-0.093 0.245-0.177 0.369-0.248 0.018-0.011 0.040-0.004 0.051 0.013s0.004 0.040-0.013 0.051c-0.122 0.071-0.243 0.153-0.361 0.243-0.009 0.004-0.015 0.007-0.024 0.007zM2.632 13.412c-0.015 0-0.029-0.009-0.035-0.024-0.007-0.020 0.002-0.040 0.020-0.049 0.144-0.057 0.29-0.097 0.429-0.124 0.020-0.004 0.040 0.009 0.042 0.031 0.004 0.020-0.009 0.040-0.031 0.042-0.135 0.024-0.276 0.064-0.416 0.119 0 0.002-0.004 0.004-0.009 0.004zM3.919 13.366c-0.004 0-0.009 0-0.013-0.002-0.13-0.053-0.27-0.084-0.416-0.097-0.020-0.002-0.035-0.020-0.033-0.040s0.020-0.035 0.040-0.033c0.153 0.011 0.301 0.046 0.438 0.102 0.020 0.007 0.029 0.029 0.020 0.049-0.007 0.013-0.020 0.022-0.035 0.022zM0.217 13.247c-0.020 0-0.035-0.013-0.038-0.033-0.013-0.144-0.024-0.292-0.029-0.44 0-0.020 0.015-0.038 0.035-0.038s0.038 0.015 0.038 0.035c0.004 0.148 0.015 0.294 0.029 0.438 0.002 0.020-0.013 0.038-0.033 0.040 0-0.002-0.002-0.002-0.002-0.002zM0.184 12.367c-0.022 0-0.038-0.018-0.038-0.038 0.002-0.144 0.009-0.292 0.018-0.442 0.002-0.020 0.020-0.035 0.040-0.035 0.020 0.002 0.035 0.020 0.035 0.040-0.009 0.148-0.015 0.296-0.018 0.438-0.002 0.022-0.018 0.038-0.038 0.038zM0.237 11.489c-0.002 0-0.002 0-0.004 0-0.020-0.002-0.035-0.020-0.033-0.040 0.015-0.148 0.035-0.294 0.058-0.438 0.002-0.020 0.022-0.033 0.042-0.031s0.033 0.022 0.031 0.042c-0.022 0.142-0.042 0.287-0.057 0.433 0 0.020-0.015 0.033-0.035 0.033zM0.376 10.62c-0.002 0-0.004 0-0.009 0-0.020-0.004-0.033-0.024-0.029-0.044 0.031-0.144 0.066-0.29 0.106-0.429 0.004-0.020 0.027-0.031 0.046-0.027s0.031 0.027 0.027 0.046c-0.038 0.139-0.073 0.281-0.104 0.425-0.004 0.018-0.020 0.029-0.038 0.029zM0.61 9.773c-0.004 0-0.009 0-0.011-0.002-0.020-0.007-0.029-0.027-0.022-0.046 0.049-0.139 0.1-0.279 0.155-0.413 0.009-0.020 0.029-0.029 0.049-0.020s0.029 0.029 0.020 0.049c-0.055 0.133-0.106 0.272-0.155 0.409-0.004 0.015-0.020 0.024-0.035 0.024zM0.947 8.959c-0.004 0-0.011-0.002-0.015-0.004-0.018-0.009-0.027-0.031-0.018-0.049 0.064-0.133 0.133-0.263 0.206-0.391 0.011-0.018 0.033-0.024 0.051-0.013s0.024 0.033 0.013 0.051c-0.071 0.126-0.139 0.256-0.203 0.387-0.007 0.013-0.020 0.020-0.033 0.020zM1.38 8.197c-0.007 0-0.013-0.002-0.020-0.007-0.018-0.011-0.022-0.033-0.011-0.051 0.080-0.122 0.166-0.243 0.254-0.36 0.013-0.015 0.035-0.020 0.051-0.007s0.020 0.035 0.007 0.051c-0.088 0.115-0.172 0.237-0.252 0.358-0.004 0.009-0.018 0.015-0.029 0.015zM1.911 7.494c-0.009 0-0.018-0.002-0.024-0.009-0.015-0.013-0.018-0.038-0.004-0.053 0.095-0.111 0.197-0.221 0.299-0.325 0.013-0.015 0.038-0.015 0.053 0 0.015 0.013 0.015 0.038 0 0.053-0.102 0.104-0.201 0.212-0.296 0.323-0.007 0.007-0.018 0.011-0.027 0.011zM2.526 6.866c-0.011 0-0.020-0.004-0.027-0.013-0.013-0.015-0.013-0.038 0.002-0.053 0.108-0.097 0.223-0.192 0.338-0.285 0.015-0.013 0.040-0.011 0.051 0.007 0.013 0.015 0.011 0.040-0.007 0.051-0.115 0.091-0.228 0.186-0.334 0.281-0.007 0.011-0.015 0.013-0.024 0.013zM12.617 6.631c-0.009 0-0.018-0.004-0.027-0.011-0.104-0.1-0.212-0.199-0.325-0.292-0.015-0.013-0.018-0.035-0.004-0.053 0.013-0.015 0.035-0.018 0.053-0.004 0.115 0.095 0.226 0.192 0.329 0.294 0.015 0.013 0.015 0.038 0 0.053-0.007 0.011-0.018 0.013-0.027 0.013zM3.216 6.322c-0.011 0-0.022-0.004-0.031-0.015-0.011-0.018-0.007-0.040 0.009-0.051 0.119-0.084 0.245-0.166 0.369-0.241 0.018-0.011 0.040-0.004 0.051 0.013s0.004 0.040-0.013 0.051c-0.124 0.075-0.248 0.157-0.367 0.239-0.004 0.002-0.011 0.004-0.018 0.004zM11.938 6.074c-0.007 0-0.015-0.002-0.022-0.007-0.117-0.082-0.241-0.161-0.369-0.234-0.018-0.011-0.024-0.033-0.013-0.051s0.033-0.024 0.051-0.013c0.128 0.075 0.254 0.155 0.374 0.239 0.018 0.011 0.020 0.035 0.009 0.051-0.007 0.011-0.018 0.015-0.029 0.015zM3.965 5.862c-0.013 0-0.027-0.007-0.033-0.020-0.009-0.018-0.002-0.040 0.015-0.051 0.128-0.069 0.261-0.135 0.396-0.197 0.018-0.009 0.040 0 0.049 0.018s0 0.040-0.018 0.049c-0.133 0.062-0.265 0.128-0.391 0.195-0.007 0.007-0.013 0.007-0.018 0.007zM11.179 5.63c-0.004 0-0.011-0.002-0.015-0.004-0.128-0.064-0.263-0.124-0.398-0.179-0.020-0.009-0.029-0.029-0.020-0.049s0.029-0.029 0.049-0.020c0.137 0.055 0.272 0.117 0.403 0.181 0.018 0.009 0.027 0.031 0.018 0.049-0.009 0.013-0.022 0.022-0.035 0.022zM4.764 5.493c-0.015 0-0.029-0.009-0.035-0.024-0.007-0.020 0.002-0.040 0.020-0.049 0.135-0.053 0.276-0.106 0.416-0.153 0.020-0.007 0.040 0.004 0.046 0.022 0.007 0.020-0.004 0.040-0.022 0.046-0.139 0.046-0.276 0.097-0.411 0.15-0.004 0.004-0.009 0.007-0.013 0.007zM10.366 5.296c-0.004 0-0.009 0-0.011-0.002-0.137-0.046-0.276-0.088-0.418-0.126-0.020-0.004-0.031-0.027-0.027-0.044 0.004-0.020 0.027-0.031 0.044-0.027 0.144 0.038 0.285 0.082 0.422 0.128 0.020 0.007 0.029 0.027 0.022 0.046-0.002 0.013-0.018 0.024-0.033 0.024zM5.595 5.212c-0.015 0-0.031-0.011-0.035-0.027-0.004-0.020 0.007-0.040 0.027-0.046 0.141-0.040 0.285-0.075 0.429-0.108 0.020-0.004 0.040 0.009 0.044 0.029s-0.009 0.040-0.029 0.044c-0.142 0.031-0.285 0.069-0.425 0.106-0.004 0.002-0.007 0.002-0.011 0.002zM9.516 5.066c-0.002 0-0.004 0-0.007 0-0.142-0.029-0.287-0.055-0.431-0.077-0.020-0.002-0.033-0.022-0.031-0.042s0.022-0.033 0.042-0.031c0.146 0.022 0.292 0.049 0.436 0.077 0.020 0.004 0.033 0.024 0.029 0.044-0.004 0.016-0.020 0.029-0.038 0.029zM6.456 5.019c-0.018 0-0.033-0.013-0.035-0.031-0.004-0.020 0.011-0.040 0.031-0.042 0.144-0.024 0.292-0.046 0.438-0.062 0.020-0.002 0.038 0.011 0.042 0.033 0.002 0.020-0.011 0.038-0.033 0.042-0.144 0.018-0.29 0.038-0.433 0.062-0.004-0.002-0.007-0.002-0.009-0.002zM8.647 4.935c-0.002 0-0.002 0-0.004 0-0.144-0.013-0.292-0.022-0.438-0.029-0.020 0-0.035-0.018-0.035-0.038s0.018-0.035 0.038-0.035c0.146 0.007 0.296 0.015 0.44 0.029 0.020 0.002 0.035 0.020 0.033 0.040 0.002 0.020-0.015 0.033-0.033 0.033zM7.329 4.918c-0.020 0-0.035-0.015-0.038-0.035s0.013-0.038 0.035-0.040c0.146-0.009 0.294-0.015 0.442-0.018 0.020 0 0.038 0.015 0.038 0.035s-0.015 0.038-0.035 0.038c-0.146 0.002-0.292 0.007-0.438 0.018-0.004 0.002-0.004 0.002-0.004 0.002z"></path>
<path fill="#ff8548" style="fill: var(--color4, #ff8548)" d="M14.037 22.394c-0.015 0-0.029-0.009-0.035-0.024-0.007-0.020 0.002-0.040 0.020-0.049 0.13-0.051 0.203-0.084 0.203-0.084 0.018-0.009 0.040 0 0.049 0.020 0.009 0.018 0 0.040-0.020 0.049 0 0-0.073 0.031-0.206 0.084-0.002 0.002-0.007 0.004-0.011 0.004z"></path>
<path fill="#66192d" style="fill: var(--color5, #66192d)" d="M16.076 6.713c-0.002 0-0.004 0-0.009 0-0.020-0.004-0.033-0.024-0.029-0.044 0.015-0.073 0.035-0.146 0.060-0.217 0.007-0.020 0.027-0.031 0.046-0.024s0.031 0.027 0.024 0.046c-0.022 0.069-0.042 0.139-0.058 0.21-0.002 0.018-0.018 0.029-0.035 0.029z"></path>
<path fill="#66192d" style="fill: var(--color5, #66192d)" d="M25.992 17.14c-0.015 0-0.029-0.009-0.035-0.024-0.007-0.020 0.002-0.040 0.022-0.049 0.131-0.049 0.263-0.111 0.394-0.181 0.018-0.009 0.040-0.002 0.051 0.015 0.009 0.018 0.002 0.040-0.015 0.051-0.133 0.073-0.268 0.135-0.402 0.186-0.004 0.002-0.009 0.002-0.013 0.002zM26.762 16.724c-0.011 0-0.022-0.004-0.031-0.015-0.011-0.015-0.009-0.040 0.009-0.051 0.117-0.084 0.23-0.177 0.336-0.274 0.015-0.013 0.038-0.013 0.053 0.002s0.013 0.038-0.002 0.053c-0.108 0.1-0.223 0.192-0.343 0.279-0.009 0.004-0.015 0.007-0.022 0.007zM27.403 16.132c-0.009 0-0.018-0.002-0.024-0.009-0.015-0.013-0.018-0.035-0.004-0.053 0.093-0.111 0.179-0.228 0.257-0.349 0.011-0.018 0.033-0.022 0.051-0.011s0.022 0.033 0.011 0.051c-0.080 0.124-0.168 0.243-0.263 0.356-0.004 0.011-0.015 0.015-0.027 0.015zM27.874 15.396c-0.004 0-0.011-0.002-0.015-0.004-0.018-0.009-0.027-0.031-0.018-0.049 0.060-0.13 0.113-0.265 0.155-0.405 0.007-0.020 0.027-0.031 0.046-0.024s0.031 0.027 0.024 0.046c-0.044 0.142-0.097 0.281-0.159 0.413-0.007 0.013-0.020 0.022-0.033 0.022zM28.133 14.562c-0.002 0-0.004 0-0.007 0-0.020-0.004-0.033-0.022-0.031-0.042 0.024-0.139 0.040-0.285 0.049-0.431 0-0.020 0.018-0.035 0.040-0.035 0.020 0 0.035 0.018 0.035 0.040-0.007 0.148-0.024 0.296-0.049 0.44-0.004 0.015-0.020 0.029-0.038 0.029zM28.18 13.689c-0.020 0-0.035-0.015-0.038-0.035-0.009-0.142-0.024-0.285-0.046-0.431-0.002-0.020 0.011-0.040 0.031-0.042s0.040 0.011 0.042 0.031c0.024 0.148 0.040 0.296 0.049 0.438 0 0.022-0.015 0.040-0.038 0.040zM28.045 12.824c-0.018 0-0.031-0.011-0.035-0.029-0.033-0.137-0.073-0.279-0.119-0.418-0.007-0.020 0.004-0.040 0.024-0.046s0.040 0.004 0.046 0.024c0.046 0.142 0.086 0.285 0.122 0.425 0.004 0.020-0.007 0.040-0.027 0.044-0.004 0-0.009 0-0.011 0zM27.779 11.991c-0.015 0-0.031-0.009-0.035-0.027-0.046-0.142-0.084-0.285-0.115-0.427-0.004-0.020 0.009-0.040 0.029-0.044s0.040 0.009 0.044 0.029c0.029 0.139 0.069 0.281 0.113 0.418 0.007 0.020-0.004 0.040-0.024 0.046-0.002 0.004-0.007 0.004-0.011 0.004zM27.598 11.135c-0.018 0-0.035-0.013-0.038-0.033-0.013-0.126-0.020-0.254-0.020-0.38 0-0.020 0-0.042 0-0.062s0.018-0.035 0.038-0.035c0.020 0 0.038 0.018 0.035 0.038 0 0.020 0 0.040 0 0.060 0 0.124 0.007 0.25 0.018 0.374 0.002 0.020-0.013 0.038-0.033 0.040zM27.611 10.262c-0.002 0-0.002 0-0.004 0-0.020-0.002-0.035-0.022-0.031-0.042 0.020-0.146 0.049-0.292 0.086-0.433 0.004-0.020 0.024-0.031 0.044-0.027s0.031 0.024 0.027 0.044c-0.035 0.139-0.064 0.283-0.084 0.425-0.002 0.020-0.018 0.033-0.038 0.033zM30.674 10.206c-0.020 0-0.038-0.015-0.038-0.035s0.015-0.038 0.035-0.038c0.148-0.002 0.292-0.013 0.431-0.035 0.020-0.002 0.040 0.011 0.042 0.031s-0.011 0.040-0.031 0.042c-0.142 0.020-0.29 0.033-0.44 0.035zM30.236 10.189c-0.002 0-0.002 0-0.004 0-0.144-0.013-0.292-0.035-0.438-0.066-0.020-0.004-0.033-0.024-0.029-0.044s0.024-0.033 0.044-0.029c0.144 0.029 0.288 0.051 0.429 0.064 0.020 0.002 0.035 0.020 0.033 0.040 0 0.020-0.015 0.035-0.035 0.035zM31.537 10.076c-0.015 0-0.031-0.011-0.035-0.027-0.007-0.020 0.004-0.040 0.024-0.046 0.144-0.044 0.279-0.1 0.398-0.166 0.018-0.009 0.040-0.002 0.051 0.015 0.009 0.018 0.002 0.040-0.015 0.051-0.124 0.066-0.261 0.124-0.411 0.17-0.002 0.002-0.007 0.002-0.011 0.002zM29.378 10.014c-0.004 0-0.007 0-0.011-0.002-0.139-0.044-0.279-0.095-0.414-0.153-0.018-0.009-0.027-0.029-0.020-0.049 0.009-0.018 0.029-0.027 0.049-0.020 0.133 0.055 0.27 0.106 0.407 0.15 0.020 0.007 0.031 0.027 0.024 0.046-0.004 0.015-0.018 0.027-0.035 0.027zM28.573 9.674c-0.007 0-0.011-0.002-0.018-0.004-0.128-0.071-0.257-0.146-0.378-0.23-0.018-0.011-0.022-0.035-0.011-0.051 0.011-0.018 0.035-0.022 0.051-0.011 0.119 0.082 0.245 0.157 0.372 0.226 0.018 0.009 0.024 0.033 0.015 0.051-0.004 0.013-0.018 0.020-0.031 0.020zM32.293 9.649c-0.009 0-0.020-0.004-0.027-0.011-0.016-0.015-0.016-0.038 0-0.053 0.106-0.106 0.184-0.223 0.234-0.347 0.007-0.020 0.029-0.029 0.049-0.020 0.020 0.007 0.029 0.029 0.020 0.049-0.053 0.135-0.137 0.261-0.25 0.374-0.007 0.007-0.018 0.009-0.027 0.009zM27.83 9.417c-0.004 0-0.009 0-0.013-0.002-0.020-0.007-0.029-0.029-0.020-0.049 0.053-0.137 0.115-0.272 0.184-0.402 0.009-0.018 0.031-0.024 0.051-0.015 0.018 0.009 0.024 0.031 0.015 0.051-0.069 0.128-0.128 0.261-0.181 0.394-0.007 0.015-0.020 0.024-0.035 0.024zM27.848 9.185c-0.009 0-0.015-0.002-0.024-0.009-0.113-0.093-0.223-0.192-0.327-0.296-0.015-0.013-0.015-0.038 0-0.053 0.013-0.015 0.038-0.015 0.053 0 0.102 0.102 0.212 0.199 0.323 0.292 0.015 0.013 0.018 0.035 0.004 0.053-0.007 0.009-0.018 0.013-0.029 0.013zM32.6 8.86c-0.020 0-0.035-0.015-0.038-0.035-0.009-0.133-0.044-0.27-0.106-0.409-0.009-0.018 0-0.040 0.020-0.049 0.018-0.009 0.040 0 0.049 0.020 0.064 0.148 0.102 0.294 0.111 0.433 0.002 0.020-0.013 0.038-0.035 0.040 0.002 0 0.002 0 0 0zM28.242 8.645c-0.007 0-0.015-0.002-0.020-0.007-0.018-0.011-0.020-0.035-0.009-0.051 0.084-0.122 0.175-0.239 0.272-0.349 0.013-0.015 0.038-0.018 0.053-0.002 0.015 0.013 0.018 0.038 0.004 0.053-0.095 0.108-0.186 0.223-0.268 0.341-0.011 0.009-0.022 0.015-0.033 0.015zM27.226 8.568c-0.011 0-0.020-0.004-0.029-0.013-0.093-0.111-0.184-0.228-0.268-0.349-0.011-0.018-0.007-0.040 0.009-0.051 0.018-0.011 0.040-0.007 0.051 0.009 0.084 0.119 0.172 0.234 0.265 0.345 0.013 0.015 0.011 0.040-0.004 0.053-0.007 0.004-0.015 0.007-0.024 0.007zM32.273 8.062c-0.011 0-0.022-0.004-0.031-0.015-0.086-0.119-0.181-0.23-0.283-0.325-0.015-0.013-0.015-0.038-0.002-0.053s0.038-0.015 0.053-0.002c0.104 0.097 0.203 0.21 0.292 0.334 0.011 0.015 0.009 0.040-0.009 0.051-0.004 0.007-0.011 0.011-0.020 0.011zM28.819 7.989c-0.011 0-0.020-0.004-0.027-0.013-0.013-0.015-0.013-0.038 0.002-0.053 0.111-0.1 0.228-0.19 0.347-0.274 0.018-0.011 0.040-0.007 0.051 0.009 0.011 0.018 0.007 0.040-0.009 0.051-0.117 0.080-0.232 0.17-0.341 0.268-0.007 0.011-0.015 0.013-0.024 0.013zM26.724 7.854c-0.013 0-0.024-0.007-0.031-0.018-0.073-0.124-0.144-0.256-0.208-0.389-0.009-0.018-0.002-0.040 0.018-0.049 0.018-0.009 0.040-0.002 0.049 0.018 0.064 0.13 0.133 0.261 0.203 0.385 0.011 0.018 0.004 0.040-0.013 0.051-0.004 0-0.011 0.002-0.018 0.002zM29.54 7.496c-0.013 0-0.027-0.007-0.033-0.020-0.009-0.018-0.002-0.040 0.015-0.049 0.135-0.069 0.272-0.124 0.409-0.168 0.020-0.007 0.040 0.004 0.046 0.024s-0.004 0.040-0.024 0.046c-0.135 0.044-0.268 0.099-0.4 0.164-0.002 0-0.007 0.002-0.013 0.002zM31.638 7.467c-0.007 0-0.013-0.002-0.018-0.004-0.124-0.073-0.254-0.13-0.392-0.172-0.020-0.007-0.031-0.027-0.024-0.046s0.027-0.031 0.046-0.024c0.142 0.044 0.279 0.104 0.409 0.179 0.018 0.011 0.024 0.033 0.013 0.051-0.011 0.013-0.024 0.018-0.035 0.018zM30.371 7.23c-0.018 0-0.033-0.013-0.038-0.031-0.002-0.020 0.011-0.040 0.031-0.042 0.15-0.020 0.301-0.027 0.445-0.015 0.020 0.002 0.035 0.020 0.035 0.040s-0.018 0.035-0.040 0.035c-0.139-0.009-0.285-0.004-0.429 0.015-0.002-0.002-0.004-0.002-0.004-0.002zM26.342 7.067c-0.015 0-0.029-0.009-0.035-0.024-0.053-0.135-0.104-0.274-0.148-0.413-0.007-0.020 0.004-0.040 0.024-0.046s0.040 0.004 0.046 0.024c0.044 0.139 0.093 0.276 0.146 0.409 0.007 0.020-0.002 0.040-0.020 0.049-0.004 0.002-0.009 0.002-0.013 0.002zM26.056 6.24c-0.015 0-0.029-0.009-0.035-0.024-0.051-0.137-0.111-0.272-0.173-0.398-0.009-0.018-0.002-0.040 0.018-0.049 0.018-0.009 0.040-0.002 0.049 0.018 0.064 0.13 0.122 0.265 0.175 0.405 0.007 0.020-0.002 0.040-0.022 0.049-0.002-0.002-0.007 0-0.011 0zM16.304 6.096c-0.007 0-0.011-0.002-0.018-0.004-0.018-0.009-0.024-0.031-0.015-0.049 0.066-0.128 0.144-0.254 0.23-0.378 0.011-0.018 0.035-0.020 0.051-0.009 0.018 0.011 0.020 0.035 0.009 0.051-0.084 0.122-0.161 0.245-0.226 0.369-0.004 0.013-0.018 0.020-0.031 0.020zM25.672 5.455c-0.013 0-0.024-0.007-0.031-0.018-0.077-0.124-0.159-0.243-0.248-0.356-0.013-0.016-0.009-0.040 0.007-0.051 0.015-0.013 0.040-0.009 0.051 0.007 0.088 0.115 0.175 0.237 0.252 0.363 0.011 0.018 0.004 0.040-0.011 0.051-0.007 0.002-0.013 0.004-0.020 0.004zM16.803 5.38c-0.009 0-0.018-0.002-0.024-0.009-0.015-0.013-0.015-0.038-0.002-0.053 0.095-0.106 0.201-0.212 0.312-0.312 0.015-0.013 0.038-0.013 0.053 0.002 0.013 0.016 0.013 0.038-0.002 0.053-0.108 0.099-0.212 0.203-0.307 0.307-0.009 0.009-0.018 0.011-0.029 0.011zM17.449 4.792c-0.011 0-0.022-0.004-0.029-0.015-0.013-0.015-0.009-0.040 0.007-0.051 0.115-0.086 0.237-0.172 0.36-0.252 0.018-0.011 0.040-0.007 0.051 0.011s0.007 0.040-0.011 0.051c-0.124 0.080-0.243 0.164-0.356 0.25-0.007 0.002-0.013 0.007-0.022 0.007zM25.137 4.765c-0.009 0-0.020-0.004-0.027-0.011-0.1-0.104-0.208-0.203-0.318-0.294-0.015-0.013-0.018-0.035-0.004-0.053 0.013-0.015 0.035-0.018 0.053-0.004 0.113 0.093 0.223 0.195 0.325 0.301 0.013 0.015 0.013 0.038 0 0.053-0.011 0.004-0.020 0.009-0.029 0.009zM18.186 4.316c-0.013 0-0.027-0.007-0.033-0.020-0.009-0.018-0.002-0.040 0.015-0.051 0.126-0.071 0.259-0.137 0.394-0.199 0.018-0.009 0.040 0 0.049 0.018s0 0.040-0.018 0.049c-0.133 0.062-0.263 0.128-0.389 0.197-0.007 0.004-0.013 0.007-0.018 0.007zM24.462 4.208c-0.007 0-0.013-0.002-0.020-0.007-0.119-0.080-0.245-0.153-0.374-0.219-0.018-0.009-0.024-0.031-0.015-0.051 0.009-0.018 0.031-0.024 0.051-0.015 0.131 0.069 0.259 0.144 0.38 0.223 0.018 0.011 0.022 0.033 0.011 0.051-0.009 0.011-0.020 0.018-0.033 0.018zM18.977 3.945c-0.015 0-0.029-0.009-0.035-0.024-0.007-0.020 0.002-0.040 0.020-0.049 0.135-0.053 0.274-0.104 0.414-0.148 0.020-0.007 0.040 0.004 0.046 0.024s-0.004 0.040-0.024 0.046c-0.137 0.044-0.276 0.095-0.409 0.148-0.002 0-0.007 0.002-0.011 0.002zM23.688 3.803c-0.004 0-0.009 0-0.013-0.002-0.133-0.053-0.27-0.102-0.411-0.144-0.020-0.007-0.031-0.027-0.024-0.046s0.027-0.031 0.046-0.024c0.142 0.042 0.283 0.091 0.416 0.146 0.020 0.007 0.029 0.029 0.020 0.049-0.004 0.013-0.020 0.022-0.033 0.022zM19.811 3.673c-0.015 0-0.031-0.011-0.035-0.027-0.004-0.020 0.007-0.040 0.027-0.044 0.142-0.038 0.285-0.071 0.429-0.099 0.020-0.004 0.040 0.009 0.044 0.029s-0.009 0.040-0.029 0.044c-0.142 0.029-0.285 0.062-0.425 0.099-0.004-0.002-0.009-0.002-0.011-0.002zM22.85 3.553c-0.002 0-0.004 0-0.007 0-0.139-0.029-0.283-0.053-0.429-0.071-0.020-0.002-0.035-0.022-0.031-0.042 0.002-0.020 0.022-0.035 0.042-0.031 0.148 0.020 0.294 0.044 0.436 0.073 0.020 0.004 0.033 0.024 0.029 0.044-0.009 0.013-0.024 0.027-0.040 0.027zM20.669 3.5c-0.018 0-0.033-0.013-0.038-0.031-0.002-0.020 0.011-0.040 0.031-0.042 0.146-0.020 0.292-0.035 0.438-0.049 0.020-0.002 0.038 0.013 0.040 0.033s-0.013 0.038-0.033 0.040c-0.144 0.011-0.29 0.027-0.433 0.046 0 0.002-0.002 0.002-0.004 0.002zM21.981 3.441c-0.146-0.009-0.292-0.011-0.438-0.009-0.020 0-0.038-0.015-0.038-0.035s0.015-0.038 0.035-0.038c0.148-0.002 0.296 0 0.44 0.009 0.020 0.002 0.035 0.018 0.035 0.040 0 0.018-0.015 0.033-0.035 0.033z"></path>
<path fill="#66192d" style="fill: var(--color5, #66192d)" d="M25.342 17.282c-0.020 0-0.038-0.015-0.038-0.038 0-0.020 0.015-0.038 0.038-0.038 0.064 0 0.137-0.007 0.215-0.020 0.020-0.004 0.040 0.011 0.042 0.031 0.004 0.020-0.011 0.040-0.031 0.042-0.080 0.015-0.157 0.022-0.226 0.022z"></path>
<path fill="#786ab5" style="fill: var(--color2, #786ab5)" d="M18.725 7.286h-0.002c-0.073-0.004-0.148-0.009-0.221-0.013-0.020-0.002-0.035-0.018-0.035-0.040 0.002-0.020 0.020-0.035 0.040-0.035 0.073 0.004 0.148 0.009 0.221 0.013 0.020 0.002 0.035 0.020 0.033 0.040 0 0.022-0.015 0.035-0.035 0.035z"></path>
<path fill="#786ab5" style="fill: var(--color2, #786ab5)" d="M25.712 28.394c-0.031 0-0.062 0-0.093 0-0.020 0-0.038-0.018-0.035-0.038 0-0.020 0.018-0.035 0.038-0.035 0.148 0.002 0.294 0 0.44-0.011 0.020-0.002 0.038 0.013 0.040 0.035 0.002 0.020-0.013 0.038-0.035 0.040-0.117 0.004-0.234 0.009-0.354 0.009zM25.176 28.368c-0.002 0-0.002 0-0.004 0-0.146-0.013-0.296-0.035-0.442-0.060-0.020-0.004-0.033-0.022-0.031-0.042 0.004-0.020 0.022-0.033 0.042-0.031 0.146 0.027 0.292 0.046 0.438 0.060 0.020 0.002 0.035 0.020 0.033 0.040 0 0.018-0.015 0.033-0.035 0.033zM26.505 28.335c-0.018 0-0.033-0.013-0.035-0.031-0.002-0.020 0.011-0.040 0.031-0.042 0.144-0.022 0.29-0.051 0.433-0.084 0.020-0.004 0.040 0.007 0.044 0.027s-0.007 0.040-0.027 0.044c-0.144 0.035-0.292 0.062-0.438 0.084-0.007 0.002-0.009 0.002-0.009 0.002zM24.303 28.22c-0.002 0-0.007 0-0.009 0-0.146-0.033-0.29-0.071-0.431-0.113-0.020-0.007-0.031-0.027-0.024-0.046s0.027-0.031 0.046-0.024c0.139 0.040 0.283 0.077 0.427 0.111 0.020 0.004 0.033 0.024 0.029 0.044-0.007 0.018-0.022 0.029-0.038 0.029zM27.368 28.129c-0.015 0-0.031-0.009-0.035-0.024-0.007-0.020 0.004-0.040 0.024-0.046 0.139-0.046 0.276-0.097 0.411-0.155 0.020-0.009 0.040 0 0.049 0.020 0.009 0.018 0 0.040-0.020 0.049-0.137 0.058-0.276 0.111-0.418 0.157-0.004 0-0.009 0-0.011 0zM23.449 27.972c-0.004 0-0.009 0-0.013-0.002-0.139-0.049-0.281-0.104-0.416-0.159-0.020-0.009-0.029-0.029-0.020-0.049s0.029-0.029 0.049-0.020c0.135 0.058 0.274 0.111 0.411 0.159 0.020 0.007 0.029 0.029 0.022 0.046-0.002 0.015-0.018 0.024-0.033 0.024zM28.184 27.782c-0.013 0-0.027-0.007-0.033-0.020-0.009-0.018-0.002-0.040 0.015-0.051 0.128-0.069 0.257-0.142 0.38-0.221 0.018-0.011 0.040-0.007 0.051 0.011s0.007 0.040-0.011 0.051c-0.126 0.080-0.257 0.155-0.387 0.223-0.004 0.007-0.011 0.007-0.015 0.007zM22.631 27.629c-0.004 0-0.011-0.002-0.015-0.004-0.133-0.066-0.265-0.135-0.394-0.208-0.018-0.011-0.024-0.033-0.013-0.051s0.033-0.024 0.051-0.013c0.126 0.073 0.259 0.142 0.389 0.206 0.018 0.009 0.027 0.031 0.018 0.049-0.007 0.015-0.020 0.022-0.035 0.022zM28.932 27.306c-0.011 0-0.022-0.004-0.029-0.015-0.013-0.015-0.009-0.040 0.007-0.051 0.117-0.088 0.232-0.181 0.341-0.279 0.015-0.013 0.038-0.011 0.053 0.002 0.013 0.015 0.011 0.038-0.002 0.053-0.111 0.099-0.228 0.195-0.345 0.283-0.009 0.004-0.018 0.007-0.024 0.007zM21.861 27.192c-0.007 0-0.013-0.002-0.020-0.007-0.124-0.082-0.248-0.166-0.365-0.254-0.015-0.013-0.020-0.035-0.007-0.051 0.011-0.015 0.035-0.020 0.051-0.007 0.117 0.088 0.239 0.172 0.363 0.252 0.018 0.011 0.022 0.033 0.011 0.051-0.009 0.009-0.022 0.015-0.033 0.015zM29.595 26.718c-0.009 0-0.018-0.004-0.027-0.011-0.015-0.013-0.015-0.038 0-0.053 0.102-0.106 0.201-0.217 0.294-0.329 0.013-0.015 0.035-0.018 0.053-0.004 0.015 0.013 0.018 0.035 0.004 0.053-0.095 0.115-0.195 0.226-0.299 0.334-0.007 0.009-0.018 0.011-0.027 0.011zM21.149 26.661c-0.009 0-0.018-0.002-0.024-0.009-0.113-0.095-0.226-0.195-0.332-0.299-0.015-0.013-0.015-0.038-0.002-0.053s0.038-0.015 0.053-0.002c0.106 0.102 0.217 0.201 0.329 0.294 0.015 0.013 0.018 0.035 0.004 0.053-0.009 0.011-0.018 0.015-0.029 0.015zM20.506 26.051c-0.009 0-0.020-0.004-0.027-0.011-0.102-0.108-0.201-0.221-0.294-0.334-0.013-0.015-0.011-0.040 0.004-0.053s0.040-0.011 0.053 0.004c0.095 0.113 0.192 0.226 0.292 0.332 0.013 0.015 0.013 0.038-0.002 0.053-0.009 0.004-0.018 0.009-0.027 0.009zM30.159 26.035c-0.007 0-0.015-0.002-0.022-0.007-0.018-0.011-0.020-0.035-0.009-0.051 0.084-0.119 0.166-0.245 0.239-0.371 0.011-0.018 0.033-0.024 0.051-0.013s0.024 0.033 0.013 0.051c-0.075 0.128-0.157 0.254-0.243 0.376-0.004 0.011-0.015 0.015-0.029 0.015zM19.937 25.367c-0.011 0-0.022-0.004-0.029-0.015-0.088-0.119-0.175-0.243-0.254-0.367-0.011-0.018-0.007-0.040 0.011-0.051s0.040-0.007 0.051 0.011c0.080 0.122 0.166 0.245 0.252 0.363 0.011 0.015 0.009 0.040-0.007 0.051-0.009 0.007-0.015 0.009-0.024 0.009zM30.61 25.272c-0.004 0-0.011-0.002-0.015-0.004-0.018-0.009-0.027-0.031-0.018-0.049 0.064-0.133 0.124-0.268 0.177-0.405 0.007-0.020 0.029-0.029 0.049-0.022s0.029 0.029 0.022 0.049c-0.053 0.137-0.113 0.274-0.179 0.409-0.009 0.013-0.020 0.022-0.035 0.022zM19.451 24.625c-0.013 0-0.024-0.007-0.031-0.018-0.075-0.13-0.146-0.263-0.212-0.394-0.009-0.018-0.002-0.040 0.018-0.049 0.018-0.009 0.040-0.002 0.049 0.018 0.064 0.13 0.135 0.261 0.21 0.389 0.011 0.018 0.004 0.040-0.013 0.051-0.007 0.002-0.013 0.002-0.020 0.002zM30.931 24.445c-0.004 0-0.007 0-0.011-0.002-0.020-0.007-0.031-0.027-0.024-0.046 0.042-0.142 0.075-0.285 0.104-0.429 0.004-0.020 0.022-0.033 0.044-0.029 0.020 0.004 0.033 0.022 0.029 0.044-0.029 0.144-0.062 0.29-0.104 0.436-0.007 0.015-0.022 0.027-0.038 0.027zM31.097 23.574c0 0-0.002 0-0.004 0-0.020-0.002-0.035-0.020-0.033-0.040 0.011-0.126 0.018-0.252 0.018-0.376 0-0.022 0-0.042 0-0.064 0-0.020 0.015-0.038 0.035-0.038s0.038 0.015 0.038 0.035c0 0.022 0 0.044 0 0.064 0 0.126-0.007 0.254-0.018 0.383 0 0.020-0.018 0.035-0.035 0.035zM31.081 22.688c-0.018 0-0.033-0.013-0.038-0.033-0.020-0.146-0.046-0.292-0.082-0.431-0.004-0.020 0.007-0.040 0.027-0.044s0.040 0.007 0.044 0.027c0.038 0.144 0.064 0.292 0.084 0.44 0.002 0.020-0.011 0.040-0.031 0.042-0.002 0-0.002 0-0.004 0zM30.86 21.83c-0.015 0-0.029-0.009-0.035-0.024-0.053-0.135-0.117-0.27-0.188-0.396-0.009-0.018-0.004-0.040 0.013-0.051 0.018-0.009 0.040-0.004 0.051 0.013 0.073 0.13 0.137 0.265 0.192 0.405 0.007 0.020-0.002 0.040-0.020 0.049-0.004 0.004-0.009 0.004-0.013 0.004zM28.025 21.434c-0.115 0-0.221-0.018-0.321-0.051-0.020-0.007-0.029-0.029-0.022-0.046 0.007-0.020 0.029-0.029 0.046-0.022 0.124 0.044 0.268 0.058 0.422 0.040 0.020-0.002 0.038 0.013 0.040 0.033s-0.013 0.038-0.033 0.040c-0.044 0.002-0.088 0.007-0.133 0.007zM28.584 21.315c-0.015 0-0.029-0.009-0.035-0.024-0.007-0.020 0.002-0.040 0.020-0.049 0.126-0.049 0.257-0.115 0.391-0.195 0.018-0.011 0.040-0.004 0.051 0.013s0.004 0.040-0.013 0.051c-0.137 0.082-0.274 0.148-0.402 0.199-0.002 0.004-0.007 0.004-0.011 0.004zM27.364 21.127c-0.011 0-0.022-0.004-0.029-0.015-0.091-0.117-0.153-0.263-0.177-0.422-0.002-0.020 0.011-0.040 0.031-0.042s0.040 0.011 0.042 0.031c0.022 0.146 0.080 0.281 0.161 0.389 0.013 0.015 0.009 0.040-0.007 0.051-0.007 0.007-0.015 0.009-0.022 0.009zM30.429 21.056c-0.011 0-0.022-0.004-0.029-0.015-0.086-0.117-0.181-0.23-0.283-0.336-0.013-0.015-0.013-0.038 0-0.053 0.015-0.013 0.038-0.013 0.053 0 0.104 0.108 0.201 0.223 0.29 0.343 0.013 0.015 0.009 0.040-0.007 0.051-0.009 0.009-0.015 0.011-0.024 0.011zM29.35 20.87c-0.011 0-0.022-0.004-0.029-0.015-0.013-0.015-0.009-0.040 0.007-0.051 0.113-0.086 0.219-0.186 0.316-0.298 0.013-0.015 0.038-0.018 0.053-0.004s0.018 0.038 0.004 0.053c-0.1 0.117-0.21 0.221-0.327 0.31-0.009 0.004-0.015 0.007-0.024 0.007zM29.816 20.417c-0.009 0-0.015-0.002-0.024-0.009-0.013-0.011-0.027-0.022-0.040-0.033-0.106-0.084-0.21-0.161-0.312-0.232-0.018-0.011-0.020-0.035-0.009-0.051 0.011-0.018 0.035-0.020 0.051-0.009 0.104 0.071 0.21 0.15 0.316 0.237 0.013 0.011 0.027 0.022 0.042 0.033 0.015 0.013 0.018 0.035 0.004 0.053-0.007 0.007-0.018 0.011-0.029 0.011zM27.22 20.282c-0.004 0-0.007 0-0.011-0.002-0.020-0.007-0.031-0.027-0.024-0.046 0.044-0.153 0.122-0.29 0.226-0.398 0.013-0.015 0.038-0.015 0.053-0.002s0.015 0.038 0.002 0.053c-0.095 0.1-0.166 0.228-0.208 0.367-0.007 0.018-0.020 0.029-0.038 0.029zM29.924 20.202c-0.007 0-0.013-0.002-0.018-0.004-0.018-0.011-0.024-0.033-0.013-0.051 0.071-0.122 0.133-0.254 0.186-0.396 0.007-0.020 0.029-0.029 0.049-0.022s0.029 0.029 0.022 0.049c-0.055 0.144-0.119 0.281-0.192 0.407-0.007 0.011-0.020 0.018-0.033 0.018zM29.086 19.917c-0.007 0-0.011-0.002-0.018-0.004-0.137-0.075-0.272-0.135-0.398-0.181-0.020-0.007-0.029-0.029-0.022-0.046 0.007-0.020 0.029-0.029 0.046-0.022 0.131 0.046 0.27 0.108 0.409 0.186 0.018 0.009 0.024 0.033 0.015 0.051-0.009 0.009-0.022 0.018-0.033 0.018zM27.81 19.672c-0.015 0-0.031-0.011-0.035-0.027-0.007-0.020 0.004-0.040 0.024-0.046 0.137-0.042 0.29-0.055 0.453-0.040 0.020 0.002 0.035 0.020 0.033 0.040s-0.020 0.035-0.040 0.033c-0.155-0.015-0.296-0.002-0.425 0.035-0.002 0.002-0.007 0.004-0.011 0.004zM30.247 19.378c-0.002 0-0.007 0-0.009 0-0.020-0.004-0.031-0.024-0.027-0.044 0.033-0.137 0.062-0.283 0.084-0.431 0.002-0.020 0.022-0.033 0.042-0.031s0.033 0.022 0.031 0.042c-0.022 0.153-0.051 0.298-0.084 0.44-0.007 0.013-0.022 0.024-0.038 0.024zM30.373 18.5c-0.022-0.002-0.038-0.018-0.038-0.040 0.007-0.104 0.009-0.212 0.009-0.321 0-0.040 0-0.082-0.002-0.122 0-0.020 0.015-0.038 0.035-0.038s0.038 0.015 0.038 0.035c0 0.042 0.002 0.082 0.002 0.124 0 0.108-0.002 0.219-0.009 0.323 0 0.022-0.015 0.038-0.035 0.038zM30.358 17.613c-0.020 0-0.035-0.015-0.038-0.033-0.011-0.144-0.029-0.292-0.051-0.44-0.002-0.020 0.011-0.040 0.031-0.042s0.040 0.011 0.042 0.031c0.022 0.148 0.038 0.299 0.051 0.442 0.002 0.020-0.013 0.038-0.033 0.040 0 0.002-0.002 0.002-0.002 0.002zM30.232 16.733c-0.018 0-0.033-0.013-0.035-0.029-0.029-0.142-0.060-0.287-0.097-0.431-0.004-0.020 0.007-0.040 0.027-0.044s0.040 0.007 0.044 0.027c0.035 0.146 0.069 0.292 0.097 0.436 0.004 0.020-0.009 0.040-0.029 0.044-0.002-0.002-0.004-0.002-0.007-0.002zM30.017 15.873c-0.015 0-0.031-0.011-0.035-0.027-0.042-0.139-0.086-0.281-0.135-0.42-0.007-0.020 0.004-0.040 0.022-0.046 0.020-0.007 0.040 0.004 0.046 0.022 0.049 0.142 0.095 0.283 0.137 0.425 0.007 0.020-0.004 0.040-0.024 0.046-0.002 0-0.007 0-0.011 0zM29.728 15.033c-0.015 0-0.029-0.009-0.035-0.024-0.053-0.135-0.111-0.274-0.17-0.409-0.009-0.018 0-0.040 0.020-0.049 0.018-0.009 0.040 0 0.049 0.020 0.060 0.137 0.117 0.274 0.17 0.411 0.007 0.020-0.002 0.040-0.020 0.049-0.004 0.002-0.009 0.002-0.013 0.002zM29.369 14.222c-0.013 0-0.027-0.007-0.033-0.020-0.064-0.133-0.133-0.265-0.201-0.394-0.009-0.018-0.002-0.040 0.015-0.051 0.018-0.009 0.040-0.002 0.051 0.015 0.071 0.13 0.137 0.263 0.203 0.396 0.009 0.018 0.002 0.040-0.018 0.049-0.007 0.002-0.011 0.004-0.018 0.004zM28.951 13.439c-0.013 0-0.024-0.007-0.031-0.018-0.073-0.126-0.15-0.254-0.23-0.378-0.011-0.018-0.007-0.040 0.011-0.051s0.040-0.007 0.051 0.011c0.080 0.126 0.157 0.254 0.232 0.38 0.011 0.018 0.004 0.040-0.013 0.051-0.007 0.002-0.013 0.004-0.020 0.004zM28.476 12.687c-0.011 0-0.024-0.007-0.031-0.015-0.084-0.122-0.17-0.243-0.257-0.36-0.011-0.015-0.009-0.040 0.007-0.051 0.015-0.013 0.040-0.009 0.051 0.007 0.088 0.119 0.175 0.241 0.259 0.363 0.011 0.018 0.007 0.040-0.009 0.051-0.007 0.007-0.013 0.007-0.020 0.007zM27.947 11.975c-0.011 0-0.022-0.004-0.029-0.013-0.091-0.115-0.186-0.23-0.283-0.34-0.013-0.015-0.011-0.040 0.004-0.053s0.040-0.011 0.053 0.004c0.097 0.113 0.192 0.228 0.283 0.343 0.013 0.015 0.011 0.040-0.007 0.051-0.007 0.007-0.015 0.009-0.022 0.009zM27.368 11.301c-0.011 0-0.020-0.004-0.027-0.011-0.1-0.108-0.203-0.217-0.305-0.321-0.013-0.015-0.013-0.038 0-0.053 0.015-0.013 0.038-0.013 0.053 0 0.104 0.104 0.208 0.212 0.307 0.321 0.013 0.015 0.013 0.038-0.002 0.053-0.009 0.009-0.018 0.011-0.027 0.011zM26.742 10.673c-0.009 0-0.018-0.002-0.024-0.011-0.106-0.099-0.217-0.201-0.327-0.296-0.015-0.013-0.018-0.038-0.004-0.053s0.038-0.018 0.053-0.004c0.111 0.097 0.223 0.197 0.33 0.298 0.015 0.013 0.015 0.038 0.002 0.053-0.009 0.009-0.018 0.013-0.029 0.013zM26.074 10.089c-0.009 0-0.015-0.002-0.024-0.009-0.115-0.093-0.232-0.184-0.349-0.272-0.015-0.013-0.020-0.035-0.007-0.051s0.035-0.020 0.051-0.007c0.117 0.088 0.237 0.181 0.352 0.274 0.015 0.013 0.018 0.035 0.004 0.051-0.007 0.009-0.018 0.013-0.027 0.013zM25.364 9.556c-0.007 0-0.015-0.002-0.022-0.007-0.119-0.084-0.243-0.166-0.367-0.245-0.018-0.011-0.022-0.033-0.011-0.051s0.033-0.022 0.051-0.011c0.124 0.080 0.248 0.164 0.369 0.248 0.018 0.011 0.020 0.035 0.009 0.051-0.007 0.009-0.018 0.015-0.029 0.015zM24.617 9.074c-0.007 0-0.013-0.002-0.020-0.004-0.126-0.075-0.257-0.148-0.385-0.219-0.018-0.009-0.024-0.033-0.015-0.051s0.033-0.024 0.051-0.015c0.131 0.071 0.259 0.146 0.387 0.221 0.018 0.011 0.024 0.033 0.013 0.051-0.004 0.011-0.018 0.018-0.031 0.018zM23.838 8.65c-0.007 0-0.011-0.002-0.015-0.004-0.13-0.066-0.265-0.13-0.398-0.19-0.018-0.009-0.027-0.031-0.018-0.049s0.031-0.027 0.049-0.018c0.135 0.062 0.27 0.126 0.402 0.192 0.018 0.009 0.027 0.031 0.015 0.049-0.009 0.011-0.022 0.020-0.035 0.020zM23.031 8.281c-0.004 0-0.009 0-0.013-0.002-0.135-0.055-0.274-0.111-0.411-0.164-0.020-0.007-0.029-0.029-0.022-0.049s0.029-0.029 0.049-0.022c0.139 0.051 0.279 0.106 0.414 0.164 0.020 0.009 0.029 0.029 0.020 0.049-0.007 0.015-0.020 0.024-0.035 0.024zM22.202 7.969c-0.004 0-0.009 0-0.011-0.002-0.139-0.046-0.281-0.091-0.422-0.135-0.020-0.007-0.031-0.027-0.024-0.046s0.027-0.031 0.046-0.024c0.142 0.042 0.285 0.088 0.425 0.135 0.020 0.007 0.029 0.027 0.024 0.046-0.009 0.015-0.022 0.027-0.038 0.027zM21.35 7.715c-0.002 0-0.007 0-0.009-0.002-0.142-0.038-0.285-0.073-0.429-0.106-0.020-0.004-0.033-0.024-0.029-0.044s0.024-0.033 0.044-0.029c0.144 0.033 0.29 0.069 0.431 0.106 0.020 0.004 0.031 0.024 0.027 0.044s-0.018 0.031-0.035 0.031zM20.486 7.516c-0.002 0-0.004 0-0.007 0-0.144-0.029-0.29-0.053-0.436-0.077-0.020-0.002-0.033-0.022-0.031-0.042s0.022-0.033 0.042-0.031c0.146 0.024 0.294 0.051 0.438 0.077 0.020 0.004 0.033 0.024 0.029 0.044-0.002 0.018-0.018 0.029-0.035 0.029zM19.61 7.374c-0.002 0-0.002 0-0.004 0-0.146-0.020-0.292-0.035-0.44-0.051-0.020-0.002-0.035-0.020-0.033-0.040s0.020-0.035 0.040-0.033c0.148 0.016 0.296 0.031 0.442 0.051 0.020 0.002 0.035 0.022 0.031 0.042-0.002 0.018-0.018 0.031-0.035 0.031z"></path>
<path fill="#786ab5" style="fill: var(--color2, #786ab5)" d="M19.053 23.82c-0.015 0-0.029-0.009-0.033-0.022-0.053-0.133-0.077-0.206-0.080-0.21-0.007-0.020 0.004-0.040 0.024-0.046s0.040 0.004 0.046 0.024c0 0 0.024 0.075 0.077 0.206 0.007 0.020-0.002 0.040-0.020 0.049-0.007 0-0.011 0-0.015 0z"></path>
<path fill="#ff443c" style="fill: var(--color11, #ff443c)" d="M10.624 15.044c-0.073 0-0.148-0.002-0.221-0.009-0.015 0-0.027-0.013-0.027-0.029s0.015-0.027 0.029-0.027c0.144 0.011 0.292 0.011 0.438 0 0.015 0 0.029 0.011 0.029 0.027s-0.011 0.029-0.027 0.029c-0.071 0.007-0.146 0.009-0.221 0.009zM11.288 14.973c-0.013 0-0.024-0.009-0.027-0.022-0.002-0.015 0.007-0.029 0.022-0.033 0.033-0.007 0.069-0.015 0.102-0.024 0.015-0.004 0.031 0.004 0.033 0.020 0.004 0.015-0.004 0.031-0.020 0.033-0.035 0.009-0.071 0.015-0.104 0.024-0.004 0.002-0.004 0.002-0.007 0.002zM9.967 14.973c-0.002 0-0.004 0-0.007 0-0.146-0.031-0.29-0.075-0.429-0.128-0.013-0.004-0.022-0.022-0.015-0.035 0.004-0.013 0.022-0.022 0.035-0.015 0.137 0.051 0.279 0.093 0.42 0.126 0.015 0.002 0.024 0.018 0.022 0.033-0.002 0.011-0.013 0.020-0.027 0.020zM9.143 14.659c-0.004 0-0.009-0.002-0.013-0.004-0.13-0.073-0.254-0.155-0.374-0.245-0.011-0.009-0.015-0.027-0.004-0.040 0.009-0.011 0.027-0.015 0.040-0.004 0.115 0.088 0.239 0.17 0.367 0.241 0.013 0.007 0.018 0.024 0.011 0.038-0.009 0.011-0.018 0.015-0.027 0.015zM8.441 14.122c-0.007 0-0.015-0.002-0.020-0.009-0.104-0.106-0.201-0.221-0.29-0.341-0.009-0.013-0.007-0.029 0.007-0.040 0.013-0.009 0.029-0.007 0.040 0.007 0.086 0.117 0.181 0.23 0.283 0.334 0.011 0.011 0.011 0.029 0 0.040-0.007 0.007-0.013 0.009-0.020 0.009zM7.917 13.412c-0.009 0-0.020-0.004-0.024-0.015-0.071-0.13-0.133-0.265-0.186-0.405-0.004-0.013 0.002-0.031 0.016-0.035s0.031 0.002 0.035 0.015c0.053 0.137 0.115 0.272 0.184 0.398 0.007 0.013 0.002 0.031-0.011 0.038-0.004 0.002-0.009 0.004-0.013 0.004zM7.601 12.588c-0.013 0-0.024-0.009-0.027-0.022-0.035-0.142-0.062-0.29-0.082-0.438-0.002-0.015 0.009-0.029 0.024-0.031s0.029 0.009 0.031 0.024c0.018 0.146 0.044 0.292 0.080 0.431 0.004 0.015-0.004 0.031-0.020 0.033-0.004 0-0.007 0.002-0.007 0.002zM7.488 11.71c-0.015 0-0.027-0.011-0.029-0.027 0-0.022 0-0.042 0-0.064 0-0.126 0.007-0.254 0.015-0.382 0.002-0.015 0.016-0.027 0.031-0.024s0.027 0.015 0.024 0.031c-0.011 0.126-0.015 0.252-0.015 0.376 0 0.022 0 0.042 0 0.064 0.002 0.013-0.009 0.027-0.027 0.027 0.002 0 0.002 0 0 0zM7.564 10.828c-0.002 0-0.002 0-0.004 0-0.016-0.002-0.024-0.018-0.022-0.033 0.011-0.066 0.027-0.135 0.040-0.203 0.018-0.080 0.031-0.157 0.038-0.232 0.002-0.015 0.015-0.027 0.031-0.024s0.027 0.015 0.024 0.031c-0.007 0.075-0.020 0.155-0.038 0.239-0.015 0.066-0.029 0.135-0.040 0.201-0.004 0.013-0.016 0.022-0.029 0.022zM7.606 9.954c-0.011 0-0.022-0.009-0.027-0.020-0.040-0.137-0.106-0.259-0.206-0.369-0.011-0.011-0.009-0.029 0.002-0.040s0.029-0.009 0.040 0.002c0.104 0.117 0.177 0.245 0.219 0.391 0.004 0.015-0.004 0.031-0.020 0.035-0.004 0-0.007 0-0.009 0zM7.048 9.302c-0.004 0-0.009-0.002-0.013-0.004-0.113-0.066-0.241-0.128-0.396-0.188-0.013-0.007-0.022-0.022-0.015-0.035s0.022-0.022 0.035-0.015c0.157 0.062 0.29 0.124 0.405 0.192 0.013 0.009 0.018 0.024 0.009 0.038-0.004 0.009-0.013 0.013-0.024 0.013zM6.23 8.968c-0.002 0-0.004 0-0.009-0.002-0.146-0.044-0.299-0.088-0.427-0.124-0.015-0.004-0.024-0.020-0.020-0.033 0.004-0.015 0.020-0.024 0.033-0.020 0.128 0.035 0.281 0.077 0.427 0.124 0.015 0.004 0.022 0.020 0.018 0.035 0 0.011-0.011 0.020-0.022 0.020zM5.374 8.725c-0.002 0-0.004 0-0.007 0-0.168-0.046-0.303-0.086-0.427-0.126-0.016-0.004-0.022-0.020-0.018-0.035s0.020-0.022 0.035-0.018c0.124 0.038 0.259 0.080 0.425 0.126 0.016 0.004 0.024 0.020 0.020 0.033-0.004 0.011-0.015 0.020-0.029 0.020zM4.529 8.458c-0.002 0-0.007 0-0.009-0.002-0.148-0.055-0.283-0.113-0.411-0.172-0.013-0.007-0.020-0.022-0.013-0.038 0.007-0.013 0.022-0.020 0.038-0.013 0.126 0.060 0.259 0.115 0.407 0.17 0.013 0.004 0.022 0.022 0.015 0.035-0.004 0.011-0.015 0.020-0.027 0.020zM3.731 8.075c-0.004 0-0.011-0.002-0.015-0.004-0.131-0.082-0.252-0.17-0.361-0.263-0.011-0.011-0.013-0.027-0.002-0.040 0.011-0.011 0.027-0.013 0.040-0.002 0.106 0.091 0.226 0.177 0.354 0.259 0.013 0.009 0.018 0.024 0.009 0.038-0.007 0.009-0.015 0.013-0.024 0.013zM3.065 7.498c-0.009 0-0.015-0.004-0.022-0.011-0.093-0.115-0.177-0.241-0.245-0.371-0.007-0.013-0.002-0.031 0.011-0.038s0.031-0.002 0.038 0.011c0.069 0.128 0.148 0.25 0.239 0.363 0.009 0.011 0.009 0.029-0.004 0.040-0.004 0.004-0.009 0.007-0.015 0.007zM14.492 6.742c-0.011 0-0.022-0.009-0.027-0.020-0.042-0.141-0.086-0.283-0.133-0.422-0.004-0.015 0.002-0.031 0.018-0.035s0.031 0.002 0.035 0.018c0.046 0.139 0.093 0.281 0.133 0.425 0.004 0.015-0.004 0.031-0.018 0.035-0.004 0-0.007 0-0.009 0zM2.652 6.724c-0.011 0-0.022-0.007-0.027-0.020-0.044-0.137-0.077-0.283-0.1-0.433-0.002-0.015 0.009-0.029 0.022-0.031 0.015-0.002 0.029 0.009 0.031 0.022 0.022 0.148 0.055 0.292 0.097 0.425 0.004 0.016-0.004 0.031-0.018 0.035 0 0.002-0.002 0.002-0.007 0.002zM14.207 5.902c-0.011 0-0.022-0.007-0.027-0.018-0.053-0.137-0.111-0.274-0.168-0.409-0.007-0.013 0-0.031 0.013-0.038s0.031 0 0.038 0.013c0.060 0.135 0.117 0.272 0.17 0.411 0.007 0.013-0.002 0.031-0.015 0.035-0.004 0.004-0.007 0.004-0.011 0.004zM2.515 5.857c-0.015 0-0.027-0.011-0.029-0.027-0.002-0.042-0.002-0.084-0.002-0.126 0-0.104 0.004-0.21 0.011-0.318 0-0.015 0.013-0.027 0.029-0.027s0.027 0.013 0.027 0.029c-0.007 0.108-0.011 0.214-0.011 0.316 0 0.042 0 0.084 0.002 0.124 0.002 0.016-0.011 0.027-0.027 0.029zM6.997 5.614c-0.082 0-0.164-0.004-0.245-0.015-0.015-0.002-0.027-0.015-0.024-0.031s0.016-0.027 0.031-0.024c0.144 0.018 0.292 0.020 0.436 0.004 0.015-0.002 0.029 0.009 0.031 0.024s-0.009 0.029-0.024 0.031c-0.069 0.009-0.137 0.011-0.204 0.011zM7.63 5.51c-0.011 0-0.022-0.007-0.027-0.018-0.004-0.015 0.002-0.031 0.018-0.035 0.137-0.046 0.27-0.111 0.394-0.188 0.013-0.009 0.031-0.004 0.038 0.009 0.009 0.013 0.004 0.031-0.009 0.038-0.128 0.080-0.263 0.144-0.405 0.192-0.004 0-0.007 0.002-0.009 0.002zM6.325 5.497c-0.002 0-0.007 0-0.009-0.002-0.142-0.051-0.279-0.117-0.402-0.197-0.013-0.009-0.018-0.024-0.009-0.038s0.027-0.018 0.038-0.009c0.122 0.077 0.252 0.141 0.391 0.192 0.015 0.004 0.022 0.022 0.018 0.035-0.004 0.011-0.015 0.018-0.027 0.018zM13.849 5.092c-0.011 0-0.020-0.007-0.024-0.015-0.066-0.133-0.135-0.263-0.208-0.389-0.007-0.013-0.002-0.031 0.011-0.038s0.031-0.002 0.038 0.011c0.073 0.128 0.142 0.259 0.208 0.394 0.007 0.013 0.002 0.031-0.013 0.038-0.002 0-0.007 0-0.011 0zM8.371 5.042c-0.007 0-0.013-0.002-0.018-0.007-0.011-0.011-0.013-0.029-0.002-0.040 0.1-0.111 0.175-0.234 0.223-0.367 0.004-0.015 0.020-0.022 0.035-0.018s0.022 0.022 0.018 0.035c-0.051 0.139-0.128 0.27-0.234 0.385-0.007 0.007-0.013 0.011-0.022 0.011zM5.586 5.022c-0.007 0-0.016-0.002-0.020-0.009-0.104-0.111-0.192-0.234-0.263-0.365-0.007-0.013-0.002-0.031 0.011-0.038s0.031-0.002 0.038 0.011c0.066 0.126 0.153 0.245 0.254 0.352 0.011 0.011 0.011 0.029-0.002 0.040-0.004 0.007-0.011 0.009-0.018 0.009zM2.57 4.973c-0.002 0-0.002 0-0.004 0-0.015-0.002-0.027-0.016-0.024-0.031 0.020-0.141 0.046-0.287 0.077-0.438 0.002-0.015 0.018-0.024 0.033-0.022s0.024 0.018 0.022 0.033c-0.031 0.148-0.058 0.294-0.077 0.436 0 0.013-0.011 0.022-0.027 0.022zM13.415 4.321c-0.009 0-0.018-0.004-0.024-0.013-0.080-0.124-0.161-0.248-0.248-0.367-0.009-0.013-0.007-0.029 0.007-0.038s0.029-0.007 0.038 0.007c0.086 0.119 0.168 0.243 0.248 0.369 0.009 0.013 0.004 0.031-0.009 0.038-0.002 0.002-0.007 0.004-0.011 0.004zM5.179 4.248c-0.013 0-0.024-0.009-0.027-0.022-0.022-0.106-0.033-0.217-0.033-0.327 0-0.040 0.002-0.082 0.004-0.122 0-0.015 0.013-0.027 0.029-0.027s0.027 0.013 0.027 0.029c-0.002 0.040-0.004 0.080-0.004 0.117 0 0.106 0.011 0.212 0.031 0.316 0.002 0.015-0.007 0.029-0.022 0.033-0.002 0.002-0.004 0.002-0.004 0.002zM8.663 4.228c-0.015 0-0.027-0.011-0.029-0.027-0.007-0.137-0.033-0.279-0.084-0.425-0.004-0.015 0.002-0.031 0.018-0.035s0.031 0.002 0.035 0.018c0.051 0.15 0.080 0.298 0.086 0.44 0.002 0.015-0.009 0.029-0.027 0.029zM2.751 4.106c-0.002 0-0.004 0-0.007 0-0.015-0.004-0.024-0.020-0.020-0.033 0.040-0.146 0.086-0.29 0.133-0.425 0.004-0.015 0.022-0.022 0.035-0.018 0.015 0.004 0.022 0.022 0.018 0.035-0.049 0.133-0.093 0.274-0.133 0.42-0.002 0.011-0.013 0.020-0.027 0.020zM12.9 3.6c-0.009 0-0.015-0.004-0.022-0.011-0.093-0.115-0.19-0.228-0.287-0.336-0.011-0.011-0.009-0.029 0.002-0.040s0.029-0.009 0.040 0.002c0.1 0.108 0.197 0.221 0.29 0.338 0.009 0.011 0.007 0.029-0.004 0.040-0.007 0.004-0.013 0.007-0.018 0.007zM8.391 3.394c-0.009 0-0.018-0.004-0.024-0.013-0.071-0.122-0.155-0.241-0.252-0.36-0.009-0.011-0.009-0.029 0.004-0.040 0.011-0.009 0.029-0.009 0.040 0.004 0.097 0.119 0.184 0.243 0.257 0.367 0.007 0.013 0.002 0.031-0.009 0.038-0.004 0.004-0.009 0.004-0.015 0.004zM5.235 3.374c-0.002 0-0.007 0-0.009-0.002-0.015-0.004-0.022-0.020-0.018-0.035 0.044-0.137 0.102-0.274 0.177-0.411 0.007-0.013 0.024-0.018 0.038-0.011s0.018 0.024 0.011 0.038c-0.073 0.133-0.13 0.27-0.173 0.402-0.004 0.011-0.013 0.020-0.027 0.020zM3.052 3.275c-0.004 0-0.009 0-0.011-0.002-0.013-0.007-0.020-0.022-0.013-0.038 0.064-0.139 0.135-0.272 0.21-0.394 0.009-0.013 0.024-0.018 0.038-0.009s0.018 0.024 0.009 0.038c-0.073 0.119-0.144 0.25-0.208 0.387-0.002 0.011-0.013 0.018-0.024 0.018zM12.303 2.945c-0.007 0-0.013-0.002-0.020-0.009-0.106-0.102-0.217-0.203-0.327-0.296-0.011-0.009-0.013-0.027-0.002-0.040 0.009-0.011 0.027-0.013 0.040-0.002 0.111 0.095 0.223 0.197 0.33 0.298 0.011 0.011 0.011 0.029 0 0.040-0.004 0.007-0.013 0.009-0.020 0.009zM7.838 2.707c-0.007 0-0.013-0.002-0.020-0.007-0.104-0.099-0.217-0.197-0.334-0.285-0.011-0.009-0.015-0.027-0.004-0.040 0.009-0.013 0.027-0.015 0.040-0.004 0.119 0.091 0.234 0.188 0.338 0.29 0.011 0.011 0.011 0.029 0 0.040-0.007 0.002-0.013 0.007-0.020 0.007zM5.651 2.594c-0.007 0-0.011-0.002-0.015-0.004-0.013-0.009-0.015-0.027-0.007-0.040 0.062-0.082 0.128-0.166 0.201-0.248 0.029-0.031 0.058-0.064 0.086-0.093 0.011-0.011 0.029-0.011 0.040 0s0.011 0.029 0 0.040c-0.029 0.031-0.058 0.062-0.086 0.093-0.071 0.080-0.137 0.161-0.199 0.243-0.004 0.007-0.013 0.009-0.020 0.009zM3.519 2.523c-0.007 0-0.013-0.002-0.018-0.007-0.011-0.009-0.013-0.027-0.004-0.040 0.097-0.117 0.201-0.226 0.312-0.321 0.011-0.011 0.029-0.009 0.040 0.002s0.009 0.029-0.002 0.040c-0.106 0.093-0.21 0.199-0.305 0.314-0.007 0.009-0.013 0.011-0.022 0.011zM11.628 2.373c-0.007 0-0.011-0.002-0.015-0.004-0.119-0.088-0.241-0.172-0.363-0.25-0.013-0.009-0.018-0.024-0.009-0.038s0.024-0.018 0.038-0.009c0.124 0.080 0.248 0.164 0.367 0.252 0.013 0.009 0.015 0.027 0.007 0.040-0.007 0.004-0.015 0.009-0.024 0.009zM7.134 2.169c-0.004 0-0.009-0.002-0.013-0.004-0.126-0.077-0.257-0.146-0.389-0.208-0.013-0.007-0.020-0.022-0.013-0.038 0.007-0.013 0.022-0.020 0.038-0.013 0.133 0.062 0.265 0.133 0.394 0.21 0.013 0.009 0.018 0.024 0.009 0.038-0.007 0.009-0.016 0.015-0.024 0.015zM6.265 1.962c-0.009 0-0.016-0.004-0.022-0.011-0.009-0.011-0.007-0.029 0.004-0.040 0.117-0.091 0.241-0.172 0.372-0.248 0.013-0.007 0.031-0.002 0.038 0.011s0.002 0.031-0.011 0.038c-0.128 0.073-0.25 0.155-0.365 0.243-0.002 0.004-0.009 0.007-0.015 0.007zM4.186 1.948c-0.009 0-0.020-0.004-0.024-0.013-0.007-0.013-0.002-0.031 0.011-0.038 0.128-0.075 0.265-0.137 0.407-0.186 0.015-0.004 0.031 0.002 0.035 0.018s-0.002 0.031-0.018 0.035c-0.137 0.046-0.272 0.108-0.398 0.181-0.004 0-0.009 0.002-0.013 0.002zM10.881 1.897c-0.004 0-0.009 0-0.013-0.002-0.13-0.071-0.263-0.135-0.396-0.195-0.013-0.007-0.020-0.022-0.013-0.038 0.007-0.013 0.022-0.020 0.038-0.013 0.135 0.060 0.27 0.126 0.4 0.197 0.013 0.007 0.018 0.024 0.011 0.038-0.007 0.007-0.015 0.013-0.027 0.013zM6.329 1.798c-0.002 0-0.007 0-0.009-0.002-0.142-0.046-0.285-0.084-0.427-0.108-0.015-0.002-0.024-0.018-0.022-0.033s0.018-0.024 0.033-0.022c0.144 0.027 0.29 0.064 0.433 0.111 0.016 0.004 0.022 0.020 0.018 0.035-0.002 0.011-0.013 0.020-0.027 0.020zM5.018 1.661c-0.013 0-0.027-0.011-0.027-0.024-0.002-0.015 0.009-0.029 0.024-0.031 0.144-0.020 0.294-0.029 0.447-0.024 0.015 0 0.027 0.013 0.027 0.029s-0.013 0.027-0.029 0.027c-0.15-0.004-0.296 0.002-0.438 0.022 0 0.002-0.002 0.002-0.004 0.002zM10.071 1.539c-0.002 0-0.007 0-0.009-0.002-0.139-0.049-0.281-0.091-0.422-0.128-0.015-0.004-0.024-0.020-0.020-0.033 0.004-0.015 0.020-0.024 0.033-0.020 0.142 0.038 0.285 0.080 0.427 0.128 0.015 0.004 0.022 0.020 0.018 0.035-0.004 0.013-0.015 0.020-0.027 0.020zM7.033 1.524c-0.011 0-0.022-0.007-0.027-0.018-0.007-0.013 0.002-0.031 0.016-0.035 0.137-0.055 0.279-0.102 0.425-0.139 0.015-0.004 0.031 0.004 0.033 0.020 0.004 0.015-0.004 0.031-0.020 0.033-0.144 0.038-0.283 0.084-0.418 0.137 0 0.002-0.004 0.002-0.009 0.002zM9.213 1.318c-0.002 0-0.002 0-0.004 0-0.146-0.024-0.294-0.042-0.438-0.051-0.015 0-0.027-0.013-0.027-0.029s0.013-0.027 0.029-0.027c0.146 0.009 0.294 0.027 0.442 0.051 0.015 0.002 0.024 0.018 0.022 0.031 0 0.015-0.011 0.024-0.024 0.024zM7.889 1.298c-0.013 0-0.027-0.011-0.027-0.024-0.002-0.015 0.009-0.029 0.024-0.031 0.146-0.020 0.294-0.033 0.445-0.038 0.015-0.002 0.029 0.011 0.029 0.027s-0.011 0.029-0.027 0.029c-0.148 0.004-0.296 0.018-0.438 0.038-0.004 0-0.004 0-0.007 0z"></path>
<path fill="#ff443c" style="fill: var(--color11, #ff443c)" d="M3.496 4.683h-1.219c-0.066 0-0.122-0.053-0.122-0.122v-0.712c0-0.066 0.053-0.122 0.122-0.122h1.219c0.066 0 0.122 0.053 0.122 0.122v0.712c0 0.066-0.055 0.122-0.122 0.122z"></path>
<path fill="#ff443c" style="fill: var(--color11, #ff443c)" d="M3.607 4.61l-0.721-0.436-0.719 0.436c0.018 0.042 0.062 0.073 0.111 0.073h1.219c0.049 0 0.093-0.031 0.111-0.073z"></path>
<path fill="#ff443c" style="fill: var(--color11, #ff443c)" d="M2.167 3.801l0.721 0.491 0.719-0.489c-0.018-0.042-0.062-0.073-0.111-0.073h-1.219c-0.049-0.002-0.091 0.029-0.111 0.071z"></path>
<path fill="#66192d" style="fill: var(--color5, #66192d)" d="M2.888 4.305l-0.728-0.495 0.013-0.018 0.714 0.486 0.712-0.486 0.013 0.020-0.725 0.493z"></path>
<path fill="#786ab5" style="fill: var(--color2, #786ab5)" d="M26.793 7.191h-1.219c-0.066 0-0.122-0.053-0.122-0.122v-0.712c0-0.066 0.053-0.122 0.122-0.122h1.219c0.066 0 0.122 0.053 0.122 0.122v0.712c-0.002 0.069-0.055 0.122-0.122 0.122z"></path>
<path fill="#786ab5" style="fill: var(--color2, #786ab5)" d="M26.901 7.118l-0.721-0.436-0.719 0.436c0.018 0.042 0.062 0.073 0.111 0.073h1.219c0.051 0 0.093-0.029 0.111-0.073z"></path>
<path fill="#786ab5" style="fill: var(--color2, #786ab5)" d="M25.464 6.308l0.721 0.491 0.719-0.489c-0.018-0.042-0.062-0.073-0.111-0.073h-1.219c-0.051 0-0.093 0.029-0.111 0.071z"></path>
<path fill="#66192d" style="fill: var(--color5, #66192d)" d="M26.183 6.813l-0.725-0.493 0.013-0.020 0.712 0.486 0.714-0.484 0.013 0.018-0.728 0.493z"></path>
<path fill="#ff8548" style="fill: var(--color4, #ff8548)" d="M31.76 23.347h-1.219c-0.066 0-0.122-0.053-0.122-0.122v-0.712c0-0.066 0.053-0.122 0.122-0.122h1.219c0.066 0 0.122 0.053 0.122 0.122v0.712c-0.002 0.066-0.055 0.122-0.122 0.122z"></path>
<path fill="#ff8548" style="fill: var(--color4, #ff8548)" d="M31.871 23.274l-0.721-0.436-0.719 0.436c0.018 0.042 0.062 0.073 0.111 0.073h1.219c0.049 0 0.091-0.031 0.111-0.073z"></path>
<path fill="#ff8548" style="fill: var(--color4, #ff8548)" d="M30.431 22.464l0.721 0.491 0.719-0.489c-0.018-0.042-0.062-0.073-0.111-0.073h-1.219c-0.049 0-0.093 0.029-0.111 0.071z"></path>
<path fill="#66192d" style="fill: var(--color5, #66192d)" d="M31.152 22.968l-0.728-0.495 0.013-0.018 0.714 0.486 0.712-0.486 0.013 0.020-0.725 0.493z"></path>
<path fill="#ffba41" style="fill: var(--color12, #ffba41)" d="M5.524 14.954h-1.219c-0.066 0-0.122-0.053-0.122-0.122v-0.712c0-0.066 0.053-0.122 0.122-0.122h1.219c0.066 0 0.122 0.053 0.122 0.122v0.712c0 0.069-0.055 0.122-0.122 0.122z"></path>
<path fill="#ffba41" style="fill: var(--color12, #ffba41)" d="M5.635 14.883l-0.721-0.436-0.719 0.436c0.018 0.042 0.062 0.073 0.111 0.073h1.219c0.051-0.002 0.093-0.031 0.111-0.073z"></path>
<path fill="#ffba41" style="fill: var(--color12, #ffba41)" d="M4.198 14.074l0.721 0.491 0.719-0.489c-0.018-0.042-0.062-0.073-0.111-0.073h-1.219c-0.051-0.002-0.093 0.027-0.111 0.071z"></path>
<path fill="#66192d" style="fill: var(--color5, #66192d)" d="M4.916 14.578l-0.725-0.495 0.011-0.020 0.714 0.486 0.712-0.484 0.013 0.018-0.725 0.495z"></path>
</symbol>


<symbol id="icon-hero-img-background" viewBox="0 0 28 32">
<path d="M7.348 24.315c0.981 0.93 2.241 1.597 3.569 1.855 1.136 0.216 2.303 0.145 3.397-0.193 0.316-0.103 0.62-0.25 0.926-0.446 1.378-0.854 2.762-2.342 4.556-2.55 2.216-0.247 5.95 0.572 8.808-1.699 0.828-0.649 1.394-1.628 1.671-2.67 0.223-0.841 0.187-1.748 0.007-2.596-0.288-1.376-0.903-2.641-1.72-3.809-0.462-0.666-1.002-1.298-1.55-1.892-1.131-1.215-2.4-2.309-3.783-3.245-2.101-1.405-4.544-2.44-7.066-2.461-0.566-0.001-1.14 0.036-1.692 0.159-0.688 0.144-1.335 0.378-1.975 0.673-0.874 0.397-1.692 0.907-2.454 1.479-2.66 2.011-4.645 4.966-5.303 8.28-0.716 3.766 0.531 7.149 2.611 9.116z"></path>
<path d="M7.348 24.315c0.981 0.93 2.241 1.597 3.569 1.855 1.136 0.216 2.303 0.145 3.397-0.193 0.316-0.103 0.62-0.25 0.926-0.446 1.378-0.854 2.762-2.342 4.556-2.55 2.216-0.247 5.95 0.572 8.808-1.699 0.828-0.649 1.394-1.628 1.671-2.67 0.223-0.841 0.187-1.748 0.007-2.596-0.288-1.376-0.903-2.641-1.72-3.809-0.462-0.666-1.002-1.298-1.55-1.892-1.131-1.215-2.4-2.309-3.783-3.245-2.101-1.405-4.544-2.44-7.066-2.461-0.566-0.001-1.14 0.036-1.692 0.159-0.688 0.144-1.335 0.378-1.975 0.673-0.874 0.397-1.692 0.907-2.454 1.479-2.66 2.011-4.645 4.966-5.303 8.28-0.716 3.766 0.531 7.149 2.611 9.116z"></path>
</symbol>


<symbol id="icon-arrow-down" viewBox="0 0 20 20">
<path d="M9 16.172l-6.071-6.071-1.414 1.414 8.485 8.485 8.485-8.485-1.414-1.414-6.071 6.071v-16.172h-2z"></path>
</symbol>


</defs>
</svg>
